<svg xmlns="http://www.w3.org/2000/svg" width="250" height="250" viewBox="-0.3779297 -0.2890625 200 200">
<title>Clube Atlético Paranaense</title>
<path d="m-0.37793,199.71,0,0,0,0,0,0zm100.11-200c-55.077,0-99.885,44.792-99.885,99.85,0,55.057,44.808,99.85,99.885,99.85,55.051,0,99.886-44.793,99.886-99.85,0-55.058-44.834-99.85-99.886-99.85z"/>
<g fill="#FFF">
<path fill="#F10" d="m2.6037,99.561c0,53.417,43.564,96.887,97.133,96.887,53.437,0,96.922-43.47,96.922-96.887,0-53.55-43.485-97.098-96.922-97.098-53.569,0-97.133,43.549-97.133,97.098zm2.9377,0c0-51.909,42.267-94.162,94.195-94.162,51.821,0,93.984,42.253,93.984,94.162,0,51.803-42.162,93.951-93.984,93.951-51.928,0-94.195-42.148-94.195-93.951z"/>
<path d="m19.357,117.79c-0.39688,0.21126-0.79434,0.79347-1.0061,1.4003-0.18516,0.3979-0.18516,0.98051,0,1.774,0.21172,1.0043,0.79434,1.7978,1.4029,2.1957,0.97949,0.3979,1.985,0.58261,2.9645,0.1847,1.1906-0.39556,1.985-0.97817,2.3818-1.7716,0.39688-0.79347,0.60859-1.8001,0.21172-2.7783-0.21172-0.60877-0.39688-1.0047-0.79434-1.1914-0.39688-0.39556-1.0055-0.79347-1.7992-0.79347l-0.39688-1.7982c1.0055,0,2.1961,0.21126,2.9904,0.79347,0.97949,0.79386,1.5881,1.5873,1.7732,2.5917,0.39688,1.3761,0.39688,2.965-0.39688,4.1544-0.79434,1.4022-1.7732,2.1957-3.3613,2.7783-1.5881,0.3979-2.991,0.21086-4.1816-0.39791-1.1912-0.79347-2.1707-1.7716-2.5676-3.3586-0.21172-0.60877-0.21172-1.1914-0.21172-1.8001,0-0.5826,0.21172-0.97817,0.39746-1.3761l-0.79434,0.3979-0.39688-1.4022,3.3879-0.97817,0.39688,1.3757zm5.9549-7.1166-1.5881,0.21086v-1.1914l-7.543,0.58261v1.1914h-1.4023l-0.39688-4.3652,1.5875-0.18665v1.3757l7.543-0.58221-0.18516-2.5917h-1.5881l-0.21172-1.5869,3.1762-0.39791,0.60859,7.5415zm-4.578-12.882c1.0055,0,1.5881-0.21184,1.7992-0.39673,0.39746-0.39673,0.58262-0.79406,0.58262-1.4026,0-0.79346,0-1.1908-0.39688-1.5875-0.39688-0.1849-0.97949-0.39673-1.7732-0.39673l-5.1611-0.18549v0.97895h-1.5881l0.18574-4.1534h1.5875l-0.18516,1.1908,4.9494,0.1849c0.79375,0,1.4023,0,1.7992,0.21184,0.39746,0,0.79434,0.18489,1.1912,0.39673,0.39688,0.39674,0.79375,0.79347,0.97949,1.3757,0.21172,0.60857,0.39688,1.1908,0.39688,1.9842-0.18516,0.60857-0.18516,1.4026-0.39688,1.7994-0.39688,0.58222-0.58262,0.97895-0.97949,1.1908-0.39688,0.39674-0.79375,0.58183-1.1912,0.58183-0.60801,0.21164-1.1906,0.21164-1.9844,0.21164l-4.976-0.21164v1.0047h-1.5881l0.21172-4.1798h1.3764v1.1906l5.1611,0.21184zm0.60859-14.287,3.3613,0.79406,0.21172-0.79406c0.18516-0.79366,0.18516-1.1904,0-1.5875-0.21172-0.39673-0.60859-0.79347-1.1912-0.79347-0.60859-0.21183-1.1912-0.21183-1.5881,0.1849-0.21113,0.21184-0.60859,0.60857-0.79375,1.4024v0.79366zm-3.9699-1.0053,2.567,0.79347,0.21172-0.79347c0-0.58222,0-0.97895-0.21172-1.3757-0.18516-0.39692-0.39688-0.60857-0.58203-0.60857-0.60918-0.18548-1.0061,0-1.1912,0.21165-0.39688,0.18509-0.60859,0.58182-0.60859,0.97855l-0.18516,0.79406zm8.125,5.1587-1.3764-0.39674,0.18574-0.97836-7.3318-1.7994-0.39688,1.1908-1.4023-0.39674,0.79375-3.7572c0.39688-1.1908,0.79434-1.9844,1.4029-2.5928,0.58203-0.39673,1.3758-0.58222,1.985-0.39673,0.58203,0.21125,0.97891,0.39673,1.1912,0.79346,0.39688,0.39674,0.58203,0.79347,0.58203,1.5875,0.21172-0.79406,0.79434-1.1908,1.1912-1.5875,0.60859-0.18509,1.1906-0.39673,1.985-0.18509,1.0055,0.18509,1.5875,0.79347,1.985,1.5875,0.39688,0.79366,0.39688,1.7726,0,3.175l-0.79434,3.7563zm2.991-11.297-1.4029-0.39732,0.39688-1.1902-7.3312-2.7783-0.39688,1.1902-1.1912-0.60838,2.7793-7.7254,2.7787,1.1908-0.60859,1.5875-1.3764-0.60896-1.1906,3.1756,2.3818,1.0045,1.1906-2.7777,1.3764,0.58241-0.97891,2.7777,3.1762,1.1902,1.1906-3.1745-1.5875-0.58183,0.79375-1.5875,2.9645,1.1908-2.9645,7.5403zm5.9549-22.621,1.3764-1.9843-3.7588-1.1908,2.3824,3.175zm2.1707,2.9634,0.60859-0.97915,1.3758,0.79347-2.3818,3.1756-1.1906-0.79405,0.60859-0.79406-4.976-6.5611-0.58203,0.79347-1.1912-0.79347,3.1756-4.5503,1.1912,0.97915-0.79375,1.0045,7.94,2.1699,0.58184-0.79406,1.1912,1.0057-2.1699,3.175-1.4031-0.79405,0.79434-1.0051-1.985-0.58241-1.985,2.7783,1.1912,1.7726zm9.3424-11.297,0.9793-1.0057,1.1906,1.0057-3.3605,3.3601-1.0062-0.97915,1.0062-1.0053-5.7699-5.3448-0.97949,1.1908,1.1908,0.97895-1.1908,1.1904-2.1967-1.9843,5.558-5.953,2.1969,1.9848-1.1912,1.1902-1.1908-0.97836-0.79414,0.97836,5.558,5.3711zm5.7436-3.175-0.79434-1.1908,0.79434-0.60799-4.7643-6.1388-0.9793,0.58222-0.79375-1.1902,3.3611-2.5665,1.0057,1.1908-1.0057,0.79347,4.7637,6.1382,2.1969-1.773-1.1906-1.402,1.3762-0.97895,1.985,2.5665-5.9549,4.5771zm8.5486-6.1646-0.79434-1.3757,0.97949-0.60857-3.7582-6.7468-1.0057,0.60857-0.79434-1.402,7.1463-3.9691,1.4029,2.5932-1.4029,0.79366-0.79375-1.1904-2.9645,1.5871,1.3762,2.3814,2.5938-1.4024,0.79375,1.4024-2.5936,1.3759,1.7998,2.9896,2.9645-1.5871-0.97949-1.5879,1.5881-0.79346,1.5881,2.7781-7.1461,4.1536zm-2.9906-11.906v-2.9628l1.4025-0.79386-0.60879,3.175-0.79375,0.58163zm17.68,3.175,1.1906-0.58222,0.58262,1.5875-4.552,1.3757-0.39746-1.3757,1.3764-0.39673-2.5676-7.3554-1.4023,0.39673,0.60859,1.5875-1.7998,0.39732-0.97891-2.7783,7.7281-2.7777,1.0055,2.9896-1.5881,0.58163-0.39688-1.5869-1.4023,0.60858,2.5936,7.3284zm9.3162-2.5661,1.0061-0.21165,0.39688,1.402-4.1816,0.97895-0.39746-1.3759,1.1912-0.39673-1.7732-7.5403-1.0061,0.18509-0.39688-1.3759,4.1816-1.0057,0.18574,1.5881-0.97949,0.21165,1.7732,7.5403zm12.122-7.3552c-0.21133-0.58241-0.6082-0.97915-1.1908-1.3759-0.39688-0.21164-1.0055-0.39673-1.5881-0.39673-1.1912,0.18509-1.985,0.58182-2.5936,1.3759-0.58262,0.60838-0.79434,1.5875-0.79434,2.7777,0.21172,1.1902,0.60859,1.9842,1.1912,2.5926,0.79375,0.58241,1.5881,0.97915,2.7793,0.79425,0.60859,0,1.1906-0.21184,1.5881-0.60916,0.39688-0.18509,0.79375-0.79347,1.1906-1.3753l1.7998-0.21223c-0.21172,1.1908-0.60918,1.9848-1.4029,2.7783-0.9793,0.79405-1.7732,1.1908-2.9639,1.4024-1.5881,0-2.991-0.39673-4.1822-1.4024-1.1906-0.97856-1.7732-2.1694-1.985-3.7567-0.18516-1.5877,0.21172-2.9896,1.1912-4.1804,1.0055-1.1908,2.1967-1.7726,3.7848-1.9843,0.58203,0,1.1912,0,1.7732,0.21164,0.39688,0.18509,1.0055,0.39674,1.1912,0.79347v-1.0051l1.5875-0.18568,0.21191,3.5724-1.5881,0.18509zm6.9076,1.4018c0.21211-1.5869,0.79492-2.7777,1.9855-3.7834,1.1906-0.79347,2.5938-1.1902,4.182-0.97856,0.79375,0,1.5875,0.18509,2.1703,0.58183,0.6082,0.21164,1.0051,0.60838,1.402,1.1908,0.58242,0.60837,0.9793,1.4024,1.1918,1.9842,0.39687,0.79406,0.39687,1.5875,0.18437,2.381,0,0.79347-0.18437,1.4024-0.58125,1.9843-0.39726,0.79405-0.79492,1.1908-1.1918,1.7994-0.79375,0.39712-1.4031,0.79386-2.1969,0.97895-0.58164,0.21164-1.3762,0.21164-2.1699,0.21164-1.5879-0.21164-2.9906-1.0057-3.9703-2.1959-0.79375-1.1908-1.1637-2.5665-1.0059-4.1542zm1.9855,0.39674c-0.18554,0.97914,0,1.9848,0.60821,2.7783,0.58242,0.79405,1.5883,1.191,2.568,1.3759,1.0059,0,1.7996-0.1849,2.5934-0.79406,0.79414-0.58182,1.191-1.3753,1.3766-2.5659,0.21133-1.0053,0-1.9844-0.58242-2.7779-0.60938-0.79406-1.5879-1.1908-2.5938-1.4024-0.9793-0.18509-1.7734,0.21164-2.5672,0.79346-0.79453,0.60897-1.1914,1.4024-1.4027,2.5926zm25.011,1.5877-1.5887,3.5722,0.60938,0.18509c0.79375,0.39674,1.5875,0.39674,1.9844,0.39674,0.58242-0.18509,0.9793-0.58183,1.1918-1.1908,0.18437-0.58163,0.18437-1.1908,0-1.5875-0.39805-0.39674-0.79375-0.79347-1.8-1.1908l-0.39688-0.1849zm-2.9648,7.1436,1.1918,0.58163-0.39805,1.4026-4.1812-1.7994,0.39687-1.3757,1.1906,0.58222,2.9918-7.3284-1.1918-0.39693,0.58242-1.4024,3.3875,1.4024c1.3762,0.58182,2.3824,1.1904,2.9648,1.9842,0.39688,0.97856,0.39688,1.7726,0,2.9634-0.39687,1.0051-0.97929,1.5875-1.9855,1.7988-0.9793,0.39673-2.1699,0.18548-3.573-0.39674l-0.58242-0.21184-0.79375,2.1961zm11.302,1.5875,2.1969,1.1908,0.79375-3.7836-2.9906,2.5928zm-2.7793,2.3814,1.0062,0.58183-0.60937,1.1908-3.3606-1.9842,0.79375-1.1908,0.58242,0.39673,6.3512-5.3444-0.97813-0.60837,0.79375-1.3757,4.7637,2.7777-0.79375,1.3757-1.1906-0.58163-1.5887,8.1221,0.97929,0.39713-0.79375,1.402-3.573-2.1961,0.79375-1.1902,1.0062,0.60799,0.39687-2.1955-2.9906-1.5875-1.5887,1.4024zm16.278,1.3759-1.5887,2.1955,1.0062,0.79405c0.58242,0.39674,0.97929,0.79347,1.3762,0.79347,0.39687,0,0.79375-0.21184,1.0051-0.60857,0.39804-0.39674,0.39804-0.79347,0.39804-1.1906-0.2125-0.39693-0.39804-0.79366-1.0062-1.1904l-1.1906-0.79347zm-4.7648,6.1646,1.0062,0.79347-0.79375,1.1902-3.573-2.7777,0.97929-1.1908,0.79375,0.79406,4.9762-6.1646-1.0062-0.79405,1.0062-1.1902,3.3605,2.7777c1.1906,0.79405,1.8,1.5875,1.9856,2.3812,0.21133,0.79386,0,1.4024-0.58242,2.1959-0.39688,0.39732-0.79375,0.79406-1.1906,0.97915-0.60937,0-1.0062,0-1.5887-0.18509,0.18555,0.39673,0.39688,0.79405,0.58242,1.1908,0,0.39674-0.18554,0.79347-0.58242,1.1902l-1.4031,1.7726,0.79492,0.60837-0.9793,1.1908-2.3824-1.7992,1.773-2.1694c0.60937-0.79347,0.79375-1.1902,0.79375-1.5875,0-0.39673-0.39688-1.0053-0.97813-1.4026l-0.79492-0.58162-2.1969,2.7783zm12.122,6.1379,1.5875,1.9843,1.9856-3.3601-3.573,1.3759zm-3.3875,1.5873,0.79375,0.79425-1.1918,1.0045-2.5668-2.9894,1.1918-0.97915,0.58125,0.58241,7.543-2.9634-0.79375-0.79347,1.1906-1.0053,3.573,4.1798-0.97812,0.97915-0.79492-0.97915-4.1812,7.1436,0.6082,0.79405-1.1906,0.97856-2.5938-3.175,1.0062-0.97856,0.79375,0.79346,1.1906-1.7986-2.3824-2.3816-1.7988,0.79386zm8.3367,10.715,0.60937,1.0057-1.4031,0.79405-2.1711-3.5724,1.3762-0.79347,0.60937,0.97914,6.5367-4.1542-0.58125-1.0051,1.3762-0.79406,1.5875,2.7783-3.7586,7.1436,4.5523-2.9634-0.58125-1.0051,1.3762-0.79346,2.1957,3.5712-1.402,0.79405-0.58242-0.97914-8.1523,4.9476-0.79375-1.3759,4.5793-7.937-5.373,3.3596zm9.9254,11.113,0.79375,2.1953,2.9906-2.3804-3.7844,0.18509zm-3.573,0.21164,0.39688,0.97915-1.3762,0.60779-1.4031-3.5712,1.4031-0.60896,0.18437,0.79405,8.3379-0.18509-0.39765-1.1908,1.4027-0.39732,1.9856,5.1593-1.4031,0.39674-0.58242-1.1902-6.1668,5.3444,0.2125,1.0057-1.4031,0.39673-1.3762-3.784,1.3762-0.58183,0.39687,1.1908,1.5887-1.4024-1.1918-3.1745-1.9844,0.21164zm1.9844,10.106,1.4031-0.18509,0.18555,0.97856,7.7543-1.5869-0.39688-1.1908,1.5875-0.39674,1.7734,8.1489-2.7785,0.58221-0.39687-1.5875,1.402-0.39674-0.79375-3.3605-2.7793,0.58222,0.79493,2.7783-1.5887,0.39674-0.6082-2.7783-3.3617,0.79347,0.58242,3.3869,1.8-0.39673,0.39688,1.5875-3.1762,0.79347-1.8-8.1489zm4.1824,14.498v1.1908h-1.4031l-0.18554-4.1803h1.5887v1.1908l7.7277-0.1849v-1.1908h1.5883v3.3599l-6.9348,3.9685,5.5586-0.1849v-1.1908h1.3762l0.21132,4.1548h-1.5875v-1.1914l-9.5285,0.21164v-1.5875l8.1258-4.5771-6.5371,0.21125zm-0.79492,12.701-1.0051-0.21321,0.21133-1.5869,3.573,0.60877-0.21132,1.3761c-0.79453,0.21125-1.3762,0.3979-1.773,0.79347-0.39805,0.3979-0.79492,1.0047-0.79492,1.5869,0,0.39791,0,0.79347,0.39687,1.1914,0.18555,0.3979,0.58242,0.60876,0.97969,0.79346,0.39688,0,0.79453-0.1847,1.0059-0.39556,0.39687-0.18665,0.58242-0.79581,0.9793-1.3761l0.39687-1.1914c0.39688-1.0043,0.79375-1.5869,1.4031-1.9844,0.58242-0.39596,1.1906-0.60916,1.9844-0.39596,0.79492,0,1.5887,0.39596,1.9856,1.1894,0.58242,0.58222,0.79375,1.3757,0.58242,2.3824,0,0.58026-0.18555,0.97817-0.39687,1.3761-0.18555,0.39556-0.39766,0.79347-0.79454,0.97778h0.79454l-0.18555,1.5869-3.1762-0.39557,0.18554-1.5623c0.60821,0,1.0051-0.21126,1.402-0.60682,0.39804-0.18665,0.58281-0.79581,0.58281-1.1914,0.21211-0.58261,0-0.98012-0.18477-1.1914-0.21211-0.39556-0.39804-0.58221-0.79492-0.58221-0.39687,0-0.6082,0-1.0051,0.18665-0.18554,0.21087-0.39687,0.39556-0.58242,0.79347l-0.39687,1.4022c-0.60938,1.1894-1.1906,1.9583-1.5887,2.3539-0.6082,0.3979-1.402,0.58221-2.1965,0.3979-0.97969-0.2132-1.7734-0.60916-2.3816-1.1914-0.39688-0.58222-0.58242-1.5604-0.58242-2.5671,0.18554-0.58221,0.39687-0.97816,0.58242-1.5869,0.21133-0.39557,0.6082-0.79347,1.0051-0.97817zm-2.1957,9.2862,1.402,0.39595-0.21133,1.1914,7.543,1.7978,0.21133-1.0043,1.3766,0.39752-2.1703,7.9374-2.7793-0.79347,0.39687-1.5893,1.3762,0.39791,1.0062-3.3609-2.5938-0.79347-0.79375,2.7783-1.5887-0.39791,0.79415-2.776-3.3609-1.0067-1.0062,3.1762,1.8,0.60642-0.60821,1.5893-2.9648-0.79347,2.1711-7.7527z"/>
<path d="m82.269,183.67,0.21172-1.3757,1.1906,0.18666,1.3764-7.3302-1.1906-0.21125,0.21172-1.5869,2.9645,0.60916-1.5881,8.9148,1.1912,0.21359-0.18574,1.189-4.1816-0.60916,0,0,0,0zm12.916-7.5391c-0.39688,0-0.79375,0.21125-1.1912,0.39556-0.21172,0.39791-0.39688,0.79581-0.39688,1.4026,0,0.3979,0,0.79581,0.18516,1.1914,0.39746,0.39791,0.60918,0.58222,1.1912,0.58222,0.39688,0,0.79434-0.18431,1.0055-0.39791,0.39707-0.39556,0.58262-0.79347,0.58262-1.189,0-0.58222,0-0.98012-0.18555-1.3757-0.39707-0.2136-0.79394-0.39791-1.1908-0.60916zm-1.7998,6.1634c0,0.39791,0,0.79581,0.21172,1.1914,0.18516,0.1843,0.58262,0.1843,0.97949,0.1843,0.60859,0,1.0055,0,1.1912-0.1843,0.21113-0.39557,0.39688-1.0047,0.6082-1.9848v-0.79347c-0.39707,0.18665-0.6082,0.3979-1.0057,0.3979-0.39688,0.18431-0.58203,0.18431-0.97891,0.18431-0.79434,0-1.5881-0.39556-1.9855-1.189-0.60859-0.58221-0.79375-1.3757-0.60859-2.3828,0-0.97777,0.39688-1.7712,1.0061-2.3804,0.79375-0.58221,1.5881-0.79347,2.567-0.79347,1.1912,0.21126,1.985,0.60682,2.3818,1.189,0.60879,0.79347,0.79434,1.8005,0.60879,3.1762l-0.21191,3.1739c-0.18496,1.1914-0.58184,1.9848-1.1906,2.3828-0.58242,0.60681-1.3764,1.0047-2.567,0.79346-1.0061,0-1.8004-0.3979-2.1973-0.98012-0.58203-0.60916-0.79375-1.189-0.58203-1.9848v-0.21125l1.7732,0.21125zm13.074-0.39556h1.5887l0.39688,2.7783-6.9082,0.58221v-1.3757l2.9383-3.9697c0.60821-0.60916,0.79375-1.189,1.0051-1.5869,0.18555-0.3979,0.39688-0.79347,0.39688-1.1914-0.21133-0.39556-0.21133-0.60916-0.60821-0.79347-0.18554-0.21125-0.58281-0.39556-0.97968-0.21125-0.60782,0-1.0059,0.21125-1.1637,0.60916-0.39804,0.39556-0.39804,0.97777-0.2125,1.9848v0.18431l-1.773,0.21125v-0.39556c-0.21172-1.4026,0-2.3828,0.58242-2.9919,0.39687-0.79346,1.1906-1.189,2.3559-1.189,1.0051-0.18665,1.7988,0,2.3812,0.60682,0.79375,0.39791,1.0059,0.98012,1.1918,1.9848,0,0.3979,0,0.98012-0.39805,1.5893-0.18477,0.57987-0.58164,1.189-1.3762,2.1692l-2.3816,2.776,2.9641-0.1843v-1.5869zm6.3523-1.1914,2.5938-0.39556-0.39687-2.594c-0.2125-0.39556-0.2125-0.58221-0.2125-0.97777v-1.1914l-1.9844,5.1587zm1.8,3.3605-0.2125-1.1914,1.4031-0.18431-0.21133-1.1914-3.9699,0.79346-0.39805-1.4003,2.9918-7.3302,1.5875-0.21125,1.1906,6.5613,1.1918-0.21125,0.39687,1.1914-1.4031,0.39556,0.2125,1.0047,1.3762-0.21125,0.21133,1.4026-4.3668,0.58221z"/>
<path fill="#F10" d="m147.96,51.118c-12.995-12.938-30.199-20.082-48.408-20.082-18.156,0-35.306,7.1436-48.275,20.108-12.969,12.937-20.089,30.082-20.089,48.232,0,18.202,7.1201,35.401,20.089,48.39,12.969,12.965,30.092,20.135,48.275,20.135,37.768,0,68.522-30.77,68.522-68.524,0-18.15-7.1461-35.294-20.114-48.258zm-96.049,93.052v-89.454c0.47637-0.50295,0.95332-1.0059,1.4557-1.5081,5.2406-5.2382,11.169-9.4718,17.601-12.62v117.74c-6.4318-3.1497-12.36-7.4083-17.601-12.647-0.50234-0.50216-0.9793-1.0047-1.4557-1.5092zm38.297,20.108v-129.65c3.0705-0.42329,6.1934-0.66168,9.343-0.66168,3.2822,0,6.5107,0.23839,9.6869,0.71459v129.53c-3.1762,0.47796-6.3789,0.71577-9.6869,0.71577-3.1496,0-6.2725-0.2136-9.343-0.66227zm38.298-6.0857v-117.47c6.3242,3.1483,12.201,7.3286,17.362,12.488,0.58243,0.58222,1.1383,1.164,1.6942,1.7459v89.029c-5.4262,5.821-11.884,10.662-19.056,14.207z"/>
<path d="m99.948,54.531c-7.7549,0.97914-14.901,4.5503-21.253,9.7096-10.904-3.175-28.187,3.175-32.739,28.389-0.39688,2.9632-1.0057,7.5403-3.3875,10.715,2.7787,1.3761,4.7637,4.5523,6.1668,7.3306,5.558,11.878,11.91,19.021,18.447,23.202,0.39688,4.3652-0.79375,9.5244-5.9549,12.885,3.7848,3.783,8.9453,3.5718,12.704,0.21126,5.1605,2.567,10.533,2.567,14.106-1.7982-3.9699-0.58261-6.9609-3.7565-8.549-6.748,10.931,1.9848,21.438,1.1914,31.152-3.9673,0,3.7826-1.0059,7.7523-5.3727,8.3349,1.9844,4.3629,7.3574,5.1587,11.327,0.21087,6.3523,3.7565,11.302,2.3804,12.889-4.7632-6.1398,1.5869-8.7336-3.9674-8.7336-9.524,11.327-6.3501,26.811-17.832,33.745-16.668-2.3812-2.965-5.1606-4.7366-7.9398-4.7366,0.60937-2.5936,1.4031-5.1587,2.5938-7.7523-9.343,4.5765-19.453,14.076-29.193,21.219v-14.658c3.573,2.1691,7.543,4.154,12.519,1.191,3.573-2.1957,5.9543-8.7309,8.9191-21.034,0.79375-2.5928,1.8-5.9534,4.1812-7.9376-2.3812-2.9896-3.9699-5.1595-4.3668-8.5456-2.1969-16.853-7.9398-19.843-15.086-20.028-6.1668-0.39674-8.9461,2.381-12.519,4.5509-3.3609-1.7726-6.1402-1.9848-9.5273-2.3816,5.5574,13.308,4.5781,26.801,1.5875,40.295,2.9906,4.3652,3.7852,17.251,3.7852,33.496-9.899,5.7675-20.221,4.5761-31.946,1.5869v-11.907c5.1611,0,9.1316-2.1695,12.122-5.9256,0.97891,6.1365-0.39688,11.298-5.1611,14.261,2.3818,3.9673,6.5375,3.9673,10.322,0.60876,6.5375,4.1544,10.692,1.3761,12.677-2.1957-9.1047-1.5873-8.9191-12.858-5.3461-29.527-3.7586-11.906-3.5731-24.817-2.1705-38.098zm18.633,9.7096c1.9844-8.9162,10.11-7.726,12.095,0,1.402,4.7626-0.58242,10.53-2.1699,14.895,1.3762,2.5661,3.1762,8.1221,2.3812,10.9-1.8,7.5403-8.7336,8.3344-12.121,0.39674-1.3762-3.3599,0.6082-8.1221,2.3812-11.297-1.5875-4.1802-3.7574-10.133-2.5668-14.895zm-46.635,7.3546c-5.3463,5.1599-4.9488,11.694-4.9488,22.224,0,2.7783-1.1912,4.5513-3.3879,6.7464,3.9699,5.7409,3.3879,10.902,2.3822,16.643-4.5529-3.783-5.3467-9.1018-4.3672-15.267-5.9551-6.534-4.552-16.27,0.60859-24.393,1.7732-2.99,5.7432-6.3501,9.7131-5.9534zm5.1611,34.712c-1.375-13.284-1.19-25.005,2.781-32.545,2.3818,1.0057,2.3818,3.5718,1.0055,4.3658-3.3879,1.9837-2.1967,7.7515,2.5676,5.556,5.7697-2.7783,3.1762-10.716,1.1906-14.684,0.79434-0.58241,1.5881-1.3759,2.5941-1.9848,3.3607,7.7525,3.9695,22.039,0.39688,31.167-1.985,4.9477-5.5586,8.1215-10.534,8.1215z"/>
</g>
<g fill="#85827d">
<path d="m114.98,52.573s-0.97929,0.63512-1.4285,0.92564c-3.0438-1.5342-5.6117-1.8515-8.5758-2.1953l-0.82031-0.0795-0.74141,1.0051c2.9113,6.9846,3.9176,13.996,3.9176,20.61,0,7.0114-1.1387,13.573-2.3824,19.235l-0.0524,0.31786,0.15781,0.26436c3.2297,4.7093,3.6266,20.743,3.6531,32.648-9.1576,5.1587-18.844,4.3387-30.463,1.4561v-10.636c4.2613-0.18665,7.9133-1.8267,10.851-4.9209,0.05332,0.63376,0.10625,1.2695,0.10625,1.8782,0,4.5499-1.7205,7.9105-5.1346,10.053l-0.60859,0.37135,0.3707,0.63336c1.1373,1.9048,2.7254,3.0427,4.6047,3.334,2.0379,0.31785,4.2875-0.50256,6.4053-2.2472,2.8848,1.7181,5.558,2.3273,7.9396,1.7181,2.7527-0.71342,4.4203-2.8049,5.3199-4.4187l-0.50274-1.0844c-2.2758-0.39557-3.9164-1.4026-5.0281-3.0942-2.7266-4.0494-2.6471-11.907,0.26445-25.559l0.0523-0.21184-0.0523-0.18489c-4.0762-12.832-3.309-26.934-2.1707-37.782l-0.82032-0.81963c-7.3312,0.95181-14.504,4.2063-21.306,9.6569-5.7699-1.5614-12.254-0.4762-17.865,2.9894-5.5053,3.4128-12.651,10.715-15.457,26.06v0.10621c-0.39688,2.9099-0.97949,7.3019-3.2289,10.292l0.26445,1.1113c2.0645,1.0313,3.9699,3.334,5.8227,7.01,5.1084,10.9,11.116,18.522,18.395,23.258,0.02656,0.34246,0.05332,0.68687,0.05332,1.0824,0,3.1497-0.95332,7.7016-5.6908,10.795l-0.10566,1.1379c3.7586,3.7565,9.1838,3.9697,13.339,0.52911,5.8488,2.7518,11.115,1.9848,14.53-2.1692l-0.44961-1.1914c-3.5736-0.52911-5.9555-3.2274-7.199-5.0521,10.878,1.7182,20.379,0.50217,28.902-3.7319-0.26562,3.8896-1.773,6.008-4.6848,6.4036l-0.55585,1.0313c1.032,2.2492,2.8852,3.7049,5.134,3.9962,2.4359,0.2913,4.9762-0.87351,7.0141-3.1762,3.3617,1.8517,6.3789,2.3292,8.7602,1.298,2.3289-1.0067,3.9176-3.307,4.6848-6.8257l-0.89921-0.87352c-1.9324,0.50255-3.573,0.26475-4.8438-0.74232-1.7734-1.3757-2.8582-4.2317-2.9383-7.6727,2.8059-1.5869,5.823-3.4382,8.9992-5.4231,8.8926-5.5031,18.977-11.747,23.873-10.927l0.68828-1.1644c-2.3559-2.9364-4.9762-4.63-7.5965-4.9478,0.63593-2.5382,1.3762-4.7096,2.3289-6.7724l-1.0051-0.97894c-6.3789,3.1217-13.18,8.5983-19.771,13.864-2.7523,2.2226-5.5852,4.4718-8.3379,6.5348v-11.905c3.5211,2.036,7.3852,3.3851,12.149,0.5537,3.9969-2.4604,6.4312-9.7354,9.2629-21.483,0-0.0261,0.0535-0.15893,0.0535-0.15893,0.76718-2.4866,1.7199-5.6088,3.891-7.4079l0.55586-0.44965-0.47695-0.55566c-2.3559-2.9634-3.8379-5.0004-4.2078-8.1754-2.1703-16.853-7.8879-20.478-15.801-20.69-5.3195-0.34382-8.2578,1.6404-11.143,3.5452zm-0.97929,2.381,1.8-1.1636c2.7793-1.8525,5.4262-3.5983,10.269-3.2811,5.7965,0.15893,12.122,1.7992,14.398,19.393,0.39727,3.334,1.8801,5.556,4.1035,8.3609-2.091,2.0899-3.0438,5.1328-3.8121,7.6194l-0.0523,0.21165h-0.0266c-2.6738,11.113-5.0551,18.415-8.6023,20.584-4.5516,2.7252-8.1512,1.0047-11.724-1.191l-1.1383,0.63572v14.658l1.1918,0.58222c3.1492-2.3023,6.4043-4.9209,9.5539-7.4345,5.902-4.7366,11.963-9.5774,17.706-12.727-0.71484,1.8005-1.323,3.7299-1.8266,5.9526l0.71484,0.90007c2.0645,0,4.2348,1.1379,6.2723,3.2274-5.6363,0.37096-14.504,5.8475-23.078,11.166-3.3082,2.0626-6.4578,3.9943-9.3426,5.6343l-0.37149,0.21125v0.42446c0,4.1274,1.2707,7.486,3.5207,9.233,1.3766,1.0578,3.0172,1.4823,4.9226,1.2179-0.71484,2.4339-1.9055,4.0208-3.5461,4.7077-2.0379,0.90007-4.8172,0.37096-7.9668-1.5073l-0.55586-0.31785-0.39687,0.50256c-1.773,2.2226-3.9965,3.334-6.0879,3.0962-1.4293-0.1847-2.6469-1.0313-3.493-2.3273,2.4348-0.71576,4.9484-2.9115,4.9484-8.8636l-1.0852-0.63572c-8.9191,4.7362-18.976,6.0053-30.674,3.8896l-0.76758,1.0578c1.826,3.4652,4.6842,5.928,7.7814,6.8526-4.0762,3.8892-9.4225,2.1692-12.361,0.68881l-0.4498-0.2132-0.3707,0.31785c-3.4141,3.0427-7.7281,3.1493-11.01,0.39752,4.6053-3.4406,5.558-8.1479,5.558-11.429,0-0.58221-0.02656-1.1113-0.07949-1.5893l-0.02598-0.34441-0.31797-0.21125c-7.1723-4.5496-13.127-12.038-18.183-22.858-1.7998-3.5983-3.7053-5.9811-5.7965-7.2771,2.0912-3.2537,2.6732-7.4606,3.0707-10.318v-0.0529c2.6992-14.79,9.5279-21.801,14.795-25.055,5.2666-3.2807,11.645-4.2864,17.018-2.725l0.3707,0.10562,0.31738-0.238c6.3785-5.2126,13.101-8.3343,19.956-9.4189-0.44961,4.4715-0.84668,9.4451-0.84668,14.631,0,7.3819,0.76777,15.187,3.0963,22.621-1.5348,7.0903-2.2758,12.62-2.2758,16.931,0,4.2875,0.74101,7.3572,2.2488,9.5798,1.1652,1.7447,2.8062,2.9095,4.9238,3.4917-0.82148,1.1644-2.0644,2.3804-3.8641,2.856-2.0914,0.52911-4.5264-0.0777-7.2258-1.7982l-0.47637-0.29091-0.42344,0.37096c-1.9061,1.6935-3.8904,2.4874-5.6375,2.2226-1.2174-0.18665-2.3023-0.92663-3.1756-2.0914,3.4141-2.4339,5.1871-6.1369,5.1871-10.927,0-1.1379-0.10606-2.3538-0.31797-3.6249l-1.2967-0.34245c-2.9906,3.7561-6.8549,5.6613-11.54,5.6613l-0.74102,0.71342v12.489l0.55586,0.1312c12.386,3.1493,22.656,4.0739,32.502-1.667l0.34375-0.21125v-0.42212c0-19.077-1.1375-29.475-3.7055-33.628,1.2441-5.6888,2.3559-12.25,2.3559-19.261,0-6.429-0.95274-13.229-3.6-20.028,2.7527,0.31727,5.2141,0.66109,8.0465,2.1692l0.39688,0.21184,0.34375-0.23839z"/>
<path d="m124.27,57.256c-3.0703,0.0527-5.4797,2.5926-6.4055,6.8257-0.26484,1.0057-0.37031,2.0637-0.37031,3.1489,0,4.2331,1.693,8.7834,2.8582,11.852-1.4031,2.5399-2.7793,5.8206-2.7793,8.7846,0,0.97837,0.15899,1.9575,0.5293,2.8572,1.7207,4.048,4.5,6.2966,7.4906,6.0588,2.8047-0.23839,5.1082-2.7521,6.0078-6.5617,0.15898-0.55508,0.21094-1.164,0.21094-1.8253,0-3.0956-1.4551-7.1965-2.5133-9.3135,1.3496-3.7569,2.5934-7.6192,2.5934-11.297,0-1.2697-0.15898-2.5399-0.50234-3.7301-1.0594-4.1007-3.9176-6.8524-7.1195-6.7995zm-4.8168,32.886c-1.3508-3.2272,0.89922-8.0692,2.3289-10.662l0.18437-0.29111-0.13203-0.31727c-1.4031-3.6512-3.732-9.7629-2.5402-14.446v-0.0266c0.7668-3.5191,2.6457-5.6355,5.0016-5.6622,2.091-0.0527,4.6578,1.7199,5.6641,5.6888,1.3762,4.7354-0.7414,10.583-2.1434,14.446l-0.13359,0.31727,0.15899,0.2911c1.4566,2.6721,3.0172,7.9105,2.3293,10.372-0.76719,3.201-2.5672,5.2647-4.7105,5.4504-2.3035,0.21106-4.5524-1.7203-6.0074-5.1599zm-1.5887-26.06z"/>
<path d="m61.599,77.178c-3.0707,4.8155-4.6059,9.737-4.6059,14.234,0,4.0747,1.2969,7.8048,3.8643,10.767-0.21172,1.4823-0.34394,2.8849-0.34394,4.1809,0,4.9475,1.6408,8.6258,5.0021,11.404l1.2172-0.42446c0.39746-2.4339,0.74102-4.7096,0.74102-6.8792,0-3.2805-0.74102-6.4278-2.9377-9.8153,1.9855-2.037,3.1762-3.9677,3.1762-6.8261v-3.9152c0-8.2816,0.29121-13.493,4.7375-17.779l-0.42344-1.2697c-4.1283-0.39674-8.3635,2.8572-10.427,6.3228zm0.39688,29.129c0-1.2956,0.10566-2.7248,0.37012-4.2321l0.05293-0.34441-0.23789-0.26435c-2.6471-2.9369-3.732-6.403-3.732-9.948,0-4.7354,1.9059-9.6308,4.3934-13.573,1.5086-2.5134,4.4203-5.0006,7.358-5.5295-3.6787,4.4447-3.9439,9.8951-3.9439,17.541v3.8625c0,2.5667-1.1111,4.1808-3.1488,6.2177l-0.4502,0.45062,0.34394,0.50256c2.2496,3.2539,2.991,6.3231,2.991,9.524,0,1.667-0.2123,3.414-0.50293,5.2388-2.3557-2.3804-3.4936-5.45-3.4936-9.4463z"/>
<path d="m85.047,67.759-1.2963,1.0319,0.23789,0.55566c0.76777,1.534,3.1762,6.8517,1.8795,10.662-0.45039,1.3757-1.3502,2.3548-2.7266,3.0161-1.5086,0.68785-2.673,0.5295-3.2023-0.47639-0.58203-1.1111-0.18516-2.8837,1.3234-3.7834,0.87344-0.4762,1.3498-1.4813,1.2969-2.5926-0.07949-1.3491-0.9793-2.4872-2.3824-3.069l-0.63477-0.26494-0.29121,0.58221c-3.5998,6.8259-4.4996,17.303-2.8588,32.966l0.05332,0.66227h0.66152c5.0021,0,8.9988-3.0427,11.222-8.5993,3.7848-9.7096,2.832-24.235-0.42363-31.722l-1.059-0.31786c-0.68809,0.39674-1.2701,0.90007-1.7998,1.3497zm0.92656,1.1113c0.29141-0.23839,0.60879-0.47678,0.92617-0.71459,1.5086,3.9424,2.4352,9.4984,2.4352,15.213,0,5.1066-0.71426,10.292-2.3818,14.552-1.8793,4.6831-5.1346,7.3548-9.1844,7.6192-0.4498-4.6831-0.71445-8.8894-0.71445-12.646,0-7.8308,1.059-13.731,3.1764-18.097,0.50293,0.37057,0.82031,0.89968,0.84648,1.4819,0.02676,0.0261,0.02676,0.0795,0.02676,0.10563,0,0.4762-0.23809,0.89968-0.58262,1.1107-1.5613,0.92623-2.2758,2.514-2.2758,3.9691,0,0.63454,0.13242,1.2435,0.39688,1.7726,0.71484,1.3491,2.4348,2.3548,5.1346,1.1375,1.7203-0.84638,2.885-2.1428,3.4936-3.8892,0.31738-0.95239,0.4502-1.9313,0.4502-2.9366,0-3.3072-1.3762-6.6933-2.1439-8.3338,0.21191-0.15892,0.39688-0.34382,0.39688-0.34382z"/>
</g>
</svg>