<?xml version="1.0" encoding="UTF-8" ?>
<!DOCTYPE svg PUBLIC "-//W3C//DTD SVG 1.1//EN" "http://www.w3.org/Graphics/SVG/1.1/DTD/svg11.dtd">
<svg width="800pt" height="740pt" viewBox="0 0 800 740" version="1.1" xmlns="http://www.w3.org/2000/svg">
<g id="#01803dff">
<path fill="#01803d" opacity="1.00" d=" M 249.95 32.01 C 326.79 0.60 413.58 -5.49 494.14 14.37 C 572.60 33.48 644.62 77.50 697.83 138.18 C 725.07 169.09 747.49 204.23 763.97 241.99 C 800.81 325.66 806.97 422.16 781.96 510.02 C 761.51 582.93 719.14 649.35 662.17 699.15 C 646.31 713.25 628.97 725.54 612.13 738.40 C 612.19 712.13 612.28 685.87 612.34 659.60 C 585.22 681.82 554.76 700.02 522.11 712.86 C 449.58 741.70 366.88 743.85 292.94 718.87 C 259.39 707.61 227.68 690.94 199.32 669.78 C 193.23 665.40 187.62 660.41 181.62 655.93 C 182.58 683.26 184.06 710.57 185.23 737.89 C 170.42 726.36 155.25 715.28 140.94 703.13 C 110.62 677.26 84.11 646.90 62.78 613.23 C 38.06 574.30 20.29 530.98 10.56 485.92 C -6.37 408.17 0.38 325.32 30.49 251.61 C 50.05 203.31 79.28 158.98 115.85 121.88 C 153.82 83.22 199.73 52.39 249.95 32.01 M 237.73 50.74 C 186.81 74.29 141.20 109.17 104.98 152.02 C 72.42 190.42 47.46 235.26 32.10 283.22 C 8.88 355.32 7.78 434.28 28.56 507.09 C 40.39 548.71 59.42 588.26 84.54 623.50 C 108.56 657.46 138.37 687.14 171.71 711.96 C 170.73 690.05 169.72 668.14 168.72 646.23 C 174.42 645.16 180.12 644.09 185.82 643.04 C 212.62 666.68 243.34 685.88 276.39 699.50 C 320.69 717.85 369.13 726.03 416.99 723.37 C 487.78 719.65 556.90 691.55 610.39 645.06 C 615.16 645.97 619.92 646.92 624.69 647.87 C 624.65 669.78 624.55 691.70 624.52 713.62 C 661.24 686.75 693.71 653.91 719.15 616.13 C 743.51 580.23 761.59 540.10 772.43 498.10 C 785.06 449.23 787.99 397.89 781.11 347.88 C 770.63 270.46 735.53 196.73 682.43 139.47 C 629.38 81.78 558.40 40.74 481.76 24.14 C 400.41 6.22 313.27 15.50 237.73 50.74 Z" />
<path fill="#01803d" opacity="1.00" d=" M 274.09 44.84 C 348.84 18.35 432.02 16.48 507.91 39.44 C 580.25 61.10 645.50 105.31 692.82 164.10 C 717.64 194.81 737.64 229.43 751.73 266.32 C 784.29 350.84 784.74 447.20 753.03 532.04 C 729.21 596.58 686.76 653.82 632.83 696.39 C 632.80 677.95 632.95 659.51 632.94 641.07 C 615.52 637.67 598.12 634.23 580.71 630.82 C 636.72 586.58 675.89 521.51 688.22 451.16 C 696.65 403.92 693.05 354.62 678.00 309.06 C 659.11 251.40 621.66 200.10 572.75 164.24 C 544.27 143.27 511.98 127.49 477.90 118.02 C 436.73 106.53 393.03 104.29 350.88 111.30 C 287.86 121.62 228.78 153.56 185.24 200.21 C 161.18 225.86 141.73 255.84 128.24 288.32 C 101.10 353.03 98.55 427.59 120.98 494.06 C 138.28 545.85 170.75 592.32 212.98 626.86 C 213.49 627.63 215.39 628.05 214.80 629.21 C 196.61 632.69 178.38 636.01 160.17 639.44 C 160.98 657.61 161.83 675.78 162.65 693.95 C 131.45 668.64 104.05 638.59 82.20 604.86 C 57.33 566.62 39.59 523.76 30.19 479.13 C 13.39 400.18 22.62 315.86 56.77 242.66 C 79.91 192.63 114.22 147.84 156.37 112.33 C 191.11 82.97 231.19 59.96 274.09 44.84 M 398.13 51.08 C 392.94 57.42 391.44 65.97 391.70 73.96 C 391.92 81.28 394.41 89.00 400.22 93.80 C 407.12 99.45 417.17 100.51 425.41 97.47 C 432.59 94.76 437.14 87.75 438.83 80.52 C 435.14 80.35 431.45 80.17 427.76 79.99 C 426.96 82.01 426.25 84.14 424.76 85.77 C 420.05 91.17 410.26 90.54 406.27 84.59 C 403.22 80.01 402.75 74.23 403.21 68.88 C 403.62 64.31 404.86 59.51 408.15 56.13 C 412.25 51.87 419.41 51.63 424.21 54.82 C 426.78 56.53 427.77 59.59 428.58 62.41 C 432.30 62.60 436.02 62.78 439.74 62.92 C 439.28 57.62 437.11 52.38 433.06 48.83 C 423.36 40.40 406.40 40.78 398.13 51.08 M 342.27 47.94 C 344.11 65.64 346.02 83.33 347.89 101.03 C 361.32 99.61 374.76 98.18 388.19 96.74 C 387.84 93.61 387.51 90.48 387.19 87.36 C 377.38 88.36 367.58 89.44 357.77 90.47 C 357.29 85.89 356.79 81.32 356.32 76.74 C 364.94 75.84 373.56 74.90 382.18 74.00 C 381.84 70.86 381.50 67.73 381.18 64.59 C 372.54 65.48 363.91 66.49 355.26 67.29 C 354.94 63.59 354.51 59.90 354.14 56.20 C 363.52 55.21 372.90 54.21 382.28 53.21 C 381.95 50.07 381.61 46.93 381.26 43.80 C 368.26 45.19 355.26 46.58 342.27 47.94 M 463.53 50.69 C 452.86 52.75 446.26 63.03 444.52 73.12 C 442.84 80.78 443.20 89.49 448.07 95.97 C 456.53 107.13 474.83 110.01 485.63 100.65 C 492.01 94.96 494.69 86.27 495.52 78.01 C 496.30 70.58 494.22 62.51 488.54 57.37 C 481.95 51.26 472.27 48.83 463.53 50.69 M 313.99 54.19 C 306.40 56.27 298.70 57.95 291.18 60.27 C 295.88 77.37 300.12 94.60 304.64 111.75 C 308.24 110.83 311.84 109.89 315.45 108.96 C 313.84 102.77 312.27 96.56 310.61 90.38 C 317.02 88.21 324.26 87.89 329.90 83.85 C 338.34 77.30 337.11 63.25 329.44 56.59 C 325.23 52.92 319.13 52.64 313.99 54.19 M 512.03 61.64 C 505.51 78.19 498.99 94.75 492.45 111.29 C 505.00 116.25 517.57 121.19 530.12 126.16 C 531.32 123.23 532.48 120.29 533.59 117.32 C 524.41 113.78 515.28 110.10 506.11 106.53 C 507.78 102.24 509.48 97.96 511.16 93.67 C 519.20 96.86 527.26 99.97 535.27 103.22 C 536.54 100.34 537.65 97.38 538.83 94.46 C 530.79 91.20 522.70 88.07 514.64 84.88 C 516.01 81.40 517.37 77.92 518.76 74.45 C 527.52 77.92 536.30 81.38 545.08 84.83 C 546.25 81.90 547.40 78.97 548.53 76.02 C 536.35 71.26 524.20 66.42 512.03 61.64 M 252.26 75.63 C 253.60 94.44 254.75 113.27 256.00 132.08 C 259.61 130.52 263.24 129.00 266.82 127.37 C 266.46 123.53 266.18 119.69 265.85 115.86 C 271.87 113.25 277.89 110.66 283.90 108.05 C 286.40 110.94 288.90 113.82 291.34 116.77 C 295.11 115.24 298.82 113.57 302.56 111.98 C 289.74 98.14 276.93 84.28 264.12 70.43 C 260.16 72.17 256.16 73.80 252.26 75.63 M 560.27 81.61 C 551.28 96.95 542.34 112.32 533.31 127.63 C 536.29 129.45 539.30 131.19 542.32 132.94 C 548.76 121.94 555.19 110.93 561.64 99.94 C 561.49 114.62 561.37 129.31 561.21 144.00 C 564.42 145.90 567.64 147.78 570.87 149.64 C 579.82 134.28 588.82 118.94 597.80 103.59 C 594.81 101.81 591.81 100.06 588.80 98.31 C 582.52 109.03 576.29 119.77 569.96 130.46 C 570.07 116.16 570.24 101.87 570.44 87.58 C 567.06 85.57 563.66 83.60 560.27 81.61 M 216.60 94.12 C 220.23 99.80 223.85 105.49 227.47 111.17 C 221.63 114.89 215.80 118.63 209.95 122.34 C 206.33 116.66 202.70 110.99 199.09 105.31 C 195.94 107.30 192.81 109.30 189.67 111.30 C 199.23 126.31 208.80 141.31 218.37 156.31 C 221.50 154.31 224.64 152.31 227.78 150.30 C 223.50 143.57 219.19 136.86 214.92 130.13 C 220.78 126.42 226.59 122.63 232.48 118.97 C 236.72 125.71 241.03 132.41 245.30 139.12 C 248.45 137.14 251.58 135.13 254.71 133.13 C 245.16 118.12 235.59 103.13 226.03 88.12 C 222.88 90.11 219.74 92.12 216.60 94.12 M 594.58 132.97 C 596.82 142.06 605.22 147.75 609.00 156.05 C 610.67 160.13 605.78 164.15 601.91 162.77 C 597.56 161.48 593.76 158.39 591.29 154.62 C 589.39 151.71 590.00 147.98 591.83 145.19 C 589.05 142.97 586.31 140.69 583.50 138.50 C 579.32 143.76 578.18 151.36 581.74 157.25 C 586.29 164.91 594.01 171.21 602.94 172.67 C 612.79 174.33 623.59 163.76 619.86 153.87 C 616.64 145.97 609.83 140.26 605.73 132.89 C 604.21 129.18 608.30 125.06 612.04 126.01 C 616.33 126.89 619.96 130.09 622.07 133.85 C 623.52 136.48 622.72 139.55 621.37 142.03 C 624.12 144.28 626.87 146.50 629.61 148.76 C 633.92 143.26 634.51 135.22 630.68 129.31 C 626.75 123.25 620.57 118.40 613.55 116.52 C 603.94 113.88 593.21 123.12 594.58 132.97 M 172.36 126.49 C 162.35 129.64 153.78 139.10 153.95 149.96 C 154.09 159.27 159.77 167.45 166.46 173.47 C 172.16 178.65 180.06 182.05 187.83 180.44 C 196.16 178.64 203.44 172.35 206.52 164.42 C 209.07 157.73 207.25 150.26 203.74 144.28 C 200.96 146.71 198.18 149.17 195.44 151.65 C 196.64 154.26 197.76 157.11 197.24 160.04 C 196.15 166.34 189.44 171.39 183.05 169.90 C 177.77 168.70 173.50 164.96 170.13 160.89 C 167.18 157.24 164.65 152.84 164.74 148.01 C 164.84 142.35 169.49 137.51 174.84 136.20 C 178.02 135.41 181.07 136.93 183.72 138.50 C 186.52 136.04 189.30 133.57 192.07 131.08 C 186.81 126.35 179.18 124.32 172.36 126.49 M 609.72 181.49 C 618.82 191.48 628.00 201.38 637.12 211.35 C 639.45 209.23 641.76 207.10 644.07 204.97 C 637.44 197.67 630.75 190.44 624.08 183.18 C 627.47 180.07 630.85 176.95 634.25 173.84 C 640.13 180.21 645.97 186.62 651.85 192.98 C 654.15 190.86 656.46 188.73 658.79 186.64 C 653.00 180.17 647.05 173.86 641.22 167.43 C 643.95 164.92 646.69 162.42 649.40 159.88 C 655.88 166.75 662.18 173.79 668.63 180.71 C 670.94 178.57 673.26 176.43 675.57 174.28 C 666.70 164.67 657.86 155.03 649.02 145.39 C 635.92 157.42 622.84 169.48 609.72 181.49 M 122.46 181.61 C 110.92 185.04 102.43 197.04 103.24 209.08 C 103.79 216.88 108.93 223.51 114.98 228.08 C 121.40 233.07 129.60 236.85 137.90 235.32 C 151.55 232.70 161.76 217.71 158.64 204.05 C 156.74 196.20 150.60 190.22 144.01 185.98 C 137.75 181.88 129.85 179.44 122.46 181.61 M 649.66 228.22 C 653.51 234.71 657.34 241.21 661.20 247.69 C 663.61 251.82 667.16 255.48 671.75 257.13 C 678.42 259.57 685.82 258.08 692.13 255.25 C 699.08 252.12 705.76 247.28 709.19 240.29 C 711.94 234.74 711.28 228.00 708.33 222.67 C 704.22 215.37 699.79 208.26 695.59 201.01 C 680.25 210.04 664.97 219.16 649.66 228.22 M 71.47 224.39 C 70.76 225.77 70.06 227.17 69.38 228.57 C 70.08 229.81 71.25 231.08 70.66 232.62 C 68.79 236.61 63.71 238.43 62.89 243.04 C 61.86 247.17 64.78 250.76 67.81 253.13 C 68.50 251.75 69.18 250.37 69.84 248.98 C 69.00 247.66 67.64 246.16 68.52 244.51 C 70.87 240.78 75.25 238.39 76.46 233.94 C 77.28 229.96 74.33 226.67 71.47 224.39 M 76.24 249.11 C 89.40 262.66 102.52 276.24 115.70 289.77 C 117.43 286.26 119.17 282.74 120.89 279.22 C 118.15 276.49 115.41 273.77 112.68 271.04 C 115.62 265.15 118.42 259.19 121.47 253.35 C 125.21 254.03 128.98 254.59 132.75 255.19 C 134.54 251.56 136.32 247.94 138.11 244.31 C 119.38 242.04 100.65 239.82 81.92 237.56 C 80.03 241.42 78.13 245.26 76.24 249.11 M 673.89 270.31 C 678.88 282.85 683.95 295.37 688.97 307.91 C 691.90 306.75 694.83 305.58 697.75 304.39 C 694.08 295.24 690.40 286.11 686.75 276.95 C 691.00 275.23 695.27 273.51 699.54 271.82 C 702.77 279.86 705.99 287.90 709.22 295.94 C 712.13 294.78 715.04 293.61 717.96 292.46 C 714.84 284.35 711.49 276.34 708.34 268.25 C 711.80 266.90 715.25 265.49 718.72 264.11 C 722.21 272.88 725.74 281.63 729.25 290.38 C 732.17 289.22 735.09 288.04 738.02 286.87 C 733.16 274.72 728.29 262.57 723.40 250.43 C 706.90 257.06 690.39 263.68 673.89 270.31 M 64.21 283.19 C 55.86 290.94 52.81 304.93 59.25 314.77 C 63.89 321.89 72.03 325.80 80.08 327.65 C 87.05 329.25 94.90 329.02 101.05 325.00 C 108.85 319.90 112.65 309.94 111.70 300.87 C 110.85 293.27 105.23 287.07 98.58 283.76 C 97.50 287.28 96.42 290.79 95.35 294.31 C 97.14 295.58 99.05 296.83 100.26 298.71 C 104.33 304.72 101.10 314.19 94.15 316.39 C 88.04 318.30 81.44 316.73 75.74 314.23 C 71.08 312.15 66.49 308.35 65.84 302.98 C 64.74 295.84 70.68 287.94 78.38 289.27 C 79.69 285.73 80.67 282.09 81.79 278.50 C 75.60 277.37 68.91 278.90 64.21 283.19 M 694.47 328.28 C 695.13 331.95 695.81 335.62 696.53 339.28 C 703.87 337.88 711.22 336.55 718.56 335.17 C 720.01 342.86 721.43 350.56 722.87 358.25 C 725.96 357.67 729.05 357.09 732.16 356.51 C 730.73 348.82 729.28 341.13 727.86 333.43 C 731.79 332.69 735.73 331.97 739.66 331.22 C 741.32 340.01 742.94 348.81 744.59 357.61 C 747.67 357.03 750.77 356.45 753.87 355.88 C 751.59 343.42 749.22 330.98 746.93 318.53 C 729.44 321.77 711.96 325.04 694.47 328.28 M 47.18 342.29 C 46.56 346.52 45.93 350.76 45.32 355.01 C 62.00 363.87 78.67 372.73 95.35 381.59 C 95.93 377.72 96.50 373.84 97.06 369.97 C 93.63 368.19 90.17 366.45 86.73 364.67 C 87.67 358.19 88.64 351.71 89.58 345.23 C 93.33 344.62 97.09 344.00 100.86 343.50 C 101.63 339.50 102.10 335.44 102.72 331.42 C 84.21 335.05 65.69 338.65 47.18 342.29 M 721.00 367.08 C 716.02 367.32 710.56 368.15 706.89 371.84 C 702.60 376.00 700.99 382.19 701.09 388.02 C 701.12 394.08 702.41 400.66 706.80 405.15 C 710.70 409.18 716.59 410.34 722.00 410.13 C 733.54 409.67 745.09 409.29 756.63 408.83 C 756.49 405.03 756.35 401.23 756.22 397.44 C 744.46 397.86 732.71 398.38 720.96 398.74 C 717.90 398.87 714.46 398.12 712.59 395.50 C 710.56 392.51 710.10 388.56 710.90 385.09 C 711.89 381.07 716.02 378.76 719.95 378.59 C 731.77 378.00 743.61 377.67 755.44 377.20 C 755.31 373.40 755.17 369.60 755.03 365.81 C 743.68 366.26 732.34 366.63 721.00 367.08 M 42.91 381.51 C 42.78 385.22 42.64 388.94 42.50 392.66 C 60.27 393.35 78.05 394.03 95.83 394.68 C 95.97 390.96 96.12 387.26 96.26 383.55 C 78.48 382.84 60.70 382.19 42.91 381.51 M 76.63 399.54 C 76.88 403.23 77.16 406.92 77.41 410.61 C 79.40 411.15 81.48 411.57 83.23 412.74 C 89.41 416.64 90.03 426.67 84.52 431.42 C 80.51 434.84 75.11 436.02 69.97 436.30 C 65.17 436.49 59.98 435.91 56.04 432.91 C 51.28 429.30 50.21 422.11 52.92 416.96 C 54.35 414.29 57.19 412.99 59.85 411.89 C 59.61 408.17 59.35 404.46 59.09 400.75 C 54.12 401.77 49.36 404.28 46.30 408.41 C 38.42 419.05 40.84 436.57 52.44 443.61 C 59.24 447.82 67.67 448.32 75.41 447.19 C 82.30 446.17 89.28 443.21 93.56 437.50 C 99.15 429.95 99.25 419.19 95.09 410.97 C 91.58 404.10 84.04 400.41 76.63 399.54 M 746.92 416.98 C 746.36 422.31 745.75 427.65 745.19 432.99 C 730.63 431.44 716.08 429.82 701.53 428.27 C 701.13 431.97 700.71 435.66 700.34 439.37 C 714.88 440.93 729.42 442.53 743.97 444.08 C 743.42 449.44 742.79 454.78 742.25 460.14 C 745.37 460.46 748.50 460.80 751.63 461.16 C 753.21 446.76 754.75 432.37 756.33 417.97 C 753.19 417.64 750.05 417.31 746.92 416.98 M 75.53 452.68 C 66.79 454.16 57.54 458.05 53.09 466.19 C 47.36 476.94 50.48 491.47 59.75 499.26 C 65.62 504.17 73.83 505.15 81.15 503.79 C 89.61 502.36 98.48 498.66 103.09 491.01 C 109.42 480.22 106.32 465.14 96.83 457.19 C 90.97 452.31 82.82 451.36 75.53 452.68 M 698.09 457.10 C 694.77 470.19 691.41 483.27 688.12 496.36 C 691.16 497.13 694.21 497.91 697.26 498.68 C 699.69 489.13 702.14 479.59 704.55 470.04 C 709.01 471.15 713.46 472.30 717.92 473.42 C 715.79 481.80 713.70 490.20 711.50 498.57 C 714.54 499.44 717.61 500.21 720.70 500.94 C 722.82 492.55 724.95 484.16 727.10 475.77 C 730.71 476.69 734.32 477.60 737.94 478.52 C 735.64 487.67 733.28 496.81 730.98 505.97 C 734.02 506.74 737.07 507.52 740.13 508.30 C 743.35 495.62 746.60 482.93 749.80 470.24 C 732.56 465.88 715.33 461.46 698.09 457.10 M 676.46 524.61 C 674.54 529.40 673.64 535.05 676.34 539.73 C 680.22 547.84 692.52 551.68 699.11 544.56 C 699.11 552.33 707.91 557.16 714.89 555.50 C 719.99 554.41 723.50 549.96 725.48 545.40 C 729.00 537.37 732.32 529.25 735.88 521.24 C 719.59 514.06 703.15 507.21 686.79 500.18 C 683.36 508.33 679.71 516.39 676.46 524.61 M 87.92 513.99 C 87.11 522.39 90.31 530.56 90.53 538.91 C 90.29 542.64 85.41 544.64 82.41 542.66 C 78.61 540.15 76.84 535.38 76.54 530.99 C 76.31 527.80 78.53 525.28 81.03 523.66 C 79.67 520.37 78.28 517.09 76.90 513.81 C 72.78 515.86 69.19 519.23 67.74 523.69 C 65.33 530.72 67.87 538.34 71.48 544.48 C 74.45 549.60 79.78 553.86 85.97 553.61 C 92.21 553.37 99.32 549.74 100.68 543.14 C 102.23 534.38 98.02 525.84 98.53 517.10 C 99.02 512.88 104.87 511.53 107.70 514.31 C 111.17 517.55 113.14 522.30 113.48 526.99 C 113.73 530.40 111.39 533.21 108.58 534.82 C 109.96 538.09 111.33 541.36 112.73 544.64 C 116.53 542.73 120.16 539.96 121.80 535.90 C 124.50 529.48 122.72 522.23 120.06 516.11 C 117.22 509.84 112.18 503.57 104.94 502.59 C 97.68 501.76 88.74 505.99 87.92 513.99 M 107.90 559.01 C 108.63 566.94 112.40 574.18 114.04 581.92 C 114.96 585.96 109.93 589.20 106.44 587.37 C 102.28 585.23 99.72 580.61 99.06 576.10 C 98.60 573.17 100.46 570.72 102.48 568.87 C 100.66 565.81 98.80 562.77 96.95 559.73 C 91.30 563.43 87.90 570.39 89.33 577.12 C 90.84 584.44 95.18 591.37 101.39 595.60 C 109.42 601.08 122.17 596.29 124.56 586.90 C 125.83 577.48 119.73 569.17 118.83 560.02 C 118.52 555.75 124.12 553.34 127.40 555.64 C 131.26 558.24 133.89 562.55 135.01 567.02 C 135.93 570.46 134.06 573.80 131.38 575.85 C 133.21 578.88 135.05 581.91 136.89 584.94 C 142.63 581.45 146.30 574.64 144.91 567.88 C 143.20 559.07 137.98 550.44 129.93 546.11 C 121.01 541.28 106.99 548.15 107.90 559.01 M 668.24 552.15 C 656.27 555.74 647.91 568.71 649.45 581.08 C 650.47 588.70 655.82 594.94 661.98 599.16 C 668.71 603.88 677.19 607.26 685.50 605.29 C 697.66 602.24 706.31 589.46 705.31 577.09 C 704.58 568.63 698.51 561.75 691.62 557.35 C 684.86 552.83 676.33 549.80 668.24 552.15 M 150.30 576.01 C 140.72 592.26 131.07 608.46 121.50 624.72 C 124.27 627.98 127.00 631.28 129.76 634.56 C 147.47 628.00 165.17 621.43 182.88 614.87 C 180.46 611.89 177.88 609.05 175.58 605.97 C 171.76 606.99 168.20 608.77 164.45 610.03 C 160.31 604.98 156.07 600.01 151.89 594.99 C 153.95 591.73 156.08 588.52 158.11 585.25 C 155.49 582.18 152.94 579.06 150.30 576.01 M 613.26 616.74 C 615.68 618.87 618.10 621.00 620.52 623.13 C 626.37 616.50 632.21 609.87 638.07 603.25 C 649.00 612.87 659.91 622.53 670.85 632.15 C 673.32 629.38 675.72 626.56 678.18 623.78 C 664.89 611.95 651.51 600.24 638.19 588.47 C 629.88 597.90 621.55 607.30 613.26 616.74 Z" />
<path fill="#01803d" opacity="1.00" d=" M 465.41 60.61 C 472.17 57.77 481.02 61.28 483.45 68.33 C 485.73 75.13 484.12 82.72 480.97 88.98 C 478.19 94.75 471.28 98.05 465.08 96.21 C 458.30 94.71 454.15 87.67 454.75 80.98 C 455.18 73.28 457.68 64.00 465.41 60.61 Z" />
<path fill="#01803d" opacity="1.00" d=" M 304.43 66.13 C 309.68 65.29 314.89 62.44 320.28 63.69 C 325.50 65.93 326.69 75.39 320.92 77.80 C 316.87 79.46 312.51 80.18 308.31 81.38 C 307.01 76.30 305.60 71.25 304.43 66.13 Z" />
<path fill="#01803d" opacity="1.00" d=" M 262.81 83.91 C 267.65 89.56 272.54 95.16 277.36 100.83 C 273.21 102.60 269.08 104.42 264.92 106.18 C 264.22 98.75 263.51 91.33 262.81 83.91 Z" />
<path fill="#01803d" opacity="1.00" d=" M 345.14 120.71 C 403.44 109.39 465.25 116.78 519.07 141.96 C 574.15 167.46 620.60 211.05 649.63 264.34 C 669.59 300.73 681.38 341.57 683.89 383.00 C 686.47 423.50 680.08 464.51 665.51 502.38 C 652.61 536.08 633.28 567.31 608.87 593.89 C 594.71 609.46 578.60 623.15 561.53 635.43 C 574.34 637.98 587.17 640.46 599.98 643.02 C 569.37 668.40 533.94 687.94 496.13 700.23 C 453.34 714.13 407.54 718.78 362.85 713.49 C 301.80 706.45 243.07 680.90 196.27 641.08 C 209.09 638.65 221.94 636.35 234.75 633.86 C 208.04 614.46 184.11 591.05 165.22 563.91 C 138.90 526.47 121.99 482.51 116.35 437.11 C 111.07 395.28 114.97 352.27 128.15 312.19 C 147.29 253.35 186.31 201.31 237.22 166.18 C 269.52 143.75 306.52 128.12 345.14 120.71 M 377.49 137.79 C 336.87 141.07 297.09 154.04 262.32 175.29 C 230.85 194.47 203.45 220.31 182.43 250.58 C 162.32 279.49 148.08 312.47 140.94 346.96 C 128.50 406.23 137.21 469.74 165.60 523.27 C 195.77 580.94 247.95 626.70 309.19 648.83 C 352.08 664.51 399.07 668.61 444.06 660.85 C 479.70 654.74 514.05 641.16 544.18 621.15 C 572.52 602.54 597.13 578.32 616.43 550.46 C 637.26 520.37 651.73 485.89 658.50 449.92 C 667.07 404.67 663.62 357.17 648.33 313.72 C 627.44 253.58 583.84 201.82 528.34 170.70 C 482.86 144.92 429.56 133.41 377.49 137.79 M 250.99 638.09 C 245.04 641.95 241.06 648.90 240.69 655.98 C 240.40 664.08 248.25 670.48 255.94 670.57 C 260.25 670.62 263.98 668.04 266.82 665.03 C 264.85 663.87 262.88 662.72 260.90 661.60 C 259.41 662.74 257.92 664.11 255.96 664.33 C 251.43 664.84 246.94 660.63 247.65 656.01 C 248.37 650.84 251.38 645.59 256.11 643.15 C 261.55 640.51 268.52 646.26 266.34 652.15 C 268.31 653.32 270.31 654.47 272.31 655.61 C 272.92 653.48 273.59 651.29 273.29 649.06 C 272.25 639.18 259.47 632.71 250.99 638.09 M 525.17 649.97 C 524.90 655.52 527.49 660.82 530.92 665.04 C 534.06 668.85 538.99 671.48 544.03 670.69 C 549.70 669.75 555.33 665.87 556.86 660.10 C 557.77 657.08 557.09 653.93 556.42 650.94 C 554.40 651.99 552.43 653.11 550.46 654.24 C 552.23 659.20 548.20 664.70 542.94 664.37 C 537.24 663.66 533.90 657.91 532.39 652.90 C 531.05 648.94 533.04 644.16 537.14 642.87 C 539.93 641.46 542.91 642.89 545.01 644.83 C 547.01 643.70 549.01 642.54 551.00 641.38 C 549.46 639.72 547.86 638.03 545.73 637.18 C 537.02 633.40 525.52 640.39 525.17 649.97 M 280.36 647.48 C 276.04 657.58 271.71 667.68 267.30 677.75 C 269.42 678.80 271.59 679.72 273.83 680.50 C 275.53 675.92 277.66 671.50 279.50 666.98 C 283.47 668.62 287.40 670.36 291.35 672.05 C 289.41 676.61 287.37 681.13 285.52 685.73 C 287.63 686.60 289.74 687.50 291.84 688.41 C 296.20 678.28 300.58 668.16 304.92 658.02 C 302.80 657.11 300.69 656.20 298.58 655.30 C 296.91 659.13 295.28 662.97 293.60 666.80 C 289.67 665.08 285.74 663.41 281.81 661.71 C 283.44 657.86 285.11 654.03 286.74 650.19 C 284.62 649.27 282.49 648.36 280.36 647.48 M 498.62 656.72 C 494.63 661.44 496.95 670.06 503.02 671.68 C 508.43 672.61 513.68 670.10 519.09 670.23 C 521.83 670.31 522.83 674.12 521.05 675.94 C 517.95 679.23 511.11 681.68 508.44 676.61 C 506.39 677.41 504.37 678.28 502.33 679.10 C 503.90 682.91 507.73 685.77 511.95 685.56 C 517.49 685.34 523.16 682.89 526.60 678.44 C 530.51 673.46 527.61 664.24 520.95 663.62 C 515.87 663.34 510.97 665.13 505.94 665.39 C 503.51 665.50 502.09 662.29 503.36 660.38 C 505.97 656.71 512.46 654.97 515.28 659.38 C 517.28 658.53 519.29 657.66 521.28 656.78 C 519.27 653.08 515.37 650.29 511.02 650.65 C 506.38 651.07 501.67 653.11 498.62 656.72 M 297.50 690.62 C 299.82 691.31 302.14 692.00 304.46 692.71 C 305.85 690.71 307.27 688.74 308.76 686.82 C 312.59 688.06 316.46 689.14 320.32 690.31 C 320.34 692.69 320.35 695.07 320.42 697.46 C 322.81 698.17 325.20 698.88 327.60 699.61 C 327.01 687.92 326.53 676.22 325.85 664.54 C 323.30 663.79 320.75 663.03 318.19 662.32 C 311.35 671.79 304.38 681.17 297.50 690.62 M 339.55 668.29 C 337.58 679.14 335.64 689.99 333.68 700.84 C 335.95 701.23 338.23 701.64 340.51 702.02 C 341.21 698.12 341.91 694.22 342.61 690.32 C 346.93 690.88 351.31 692.61 355.67 691.54 C 363.97 689.14 365.76 675.31 357.36 671.87 C 351.58 670.04 345.47 669.53 339.55 668.29 M 440.51 670.73 C 436.58 671.78 432.82 674.11 430.81 677.74 C 427.44 684.24 428.65 692.48 432.30 698.62 C 438.51 708.42 455.57 706.38 459.74 695.72 C 461.93 689.69 460.89 682.71 457.86 677.16 C 454.54 671.17 446.85 668.99 440.51 670.73 M 367.98 673.13 C 367.22 684.12 366.42 695.12 365.64 706.12 C 373.99 706.67 382.33 707.32 390.69 707.87 C 390.82 705.92 390.95 703.97 391.10 702.03 C 385.01 701.59 378.92 701.18 372.83 700.72 C 373.03 697.88 373.23 695.05 373.42 692.22 C 378.79 692.58 384.15 692.97 389.51 693.37 C 389.63 691.40 389.77 689.45 389.90 687.50 C 384.55 687.12 379.19 686.73 373.84 686.36 C 374.01 684.04 374.18 681.75 374.35 679.45 C 380.18 679.85 386.00 680.30 391.84 680.68 C 391.97 678.72 392.11 676.78 392.26 674.83 C 384.16 674.28 376.07 673.66 367.98 673.13 M 397.49 682.34 C 394.88 689.47 395.44 698.52 400.73 704.33 C 405.48 709.12 413.58 709.50 419.26 706.20 C 423.05 703.99 424.92 699.72 425.76 695.59 C 423.47 695.65 421.18 695.74 418.90 695.86 C 418.26 697.47 417.83 699.31 416.46 700.50 C 413.03 703.68 406.69 702.60 404.76 698.25 C 402.49 693.37 402.24 686.97 405.31 682.39 C 408.73 677.65 417.20 679.02 418.46 684.94 C 420.75 684.87 423.05 684.78 425.35 684.68 C 424.71 681.98 423.66 679.29 421.59 677.36 C 414.61 670.63 400.93 672.94 397.49 682.34 Z" />
<path fill="#01803d" opacity="1.00" d=" M 379.59 145.89 C 433.66 141.64 489.03 155.09 534.83 184.20 C 566.03 203.77 592.92 230.16 613.09 260.96 C 634.05 292.66 647.61 329.19 652.61 366.85 C 658.56 411.18 652.69 457.06 635.50 498.37 C 609.47 561.61 557.03 613.36 493.40 638.45 C 450.39 655.62 402.66 660.60 357.01 652.93 C 319.68 646.73 283.80 631.99 252.88 610.18 C 219.86 587.10 192.46 556.09 173.49 520.55 C 147.20 471.55 137.92 413.80 147.08 358.98 C 155.88 304.71 183.10 253.75 222.96 215.94 C 265.03 175.47 321.34 150.13 379.59 145.89 M 344.33 625.70 C 398.91 603.35 445.03 560.06 469.14 506.06 C 456.47 505.96 443.80 505.99 431.12 506.03 C 417.99 528.48 400.56 548.67 379.00 563.38 C 379.18 455.13 379.15 346.89 379.00 238.65 C 400.54 253.35 418.01 273.50 431.07 295.97 C 443.74 295.99 456.42 296.02 469.10 295.96 C 445.04 241.95 398.89 198.70 344.34 176.35 C 344.04 326.13 344.07 475.92 344.33 625.70 M 198.03 290.11 C 179.46 323.93 169.51 362.46 169.55 401.05 C 170.61 445.54 182.44 490.56 207.57 527.65 C 217.56 522.27 227.74 517.25 237.83 512.06 C 217.03 478.12 205.33 438.57 204.96 398.73 C 229.98 398.92 255.00 398.72 280.02 398.85 C 279.74 465.26 279.72 531.67 280.03 598.08 C 291.33 604.63 303.07 610.40 315.09 615.50 C 315.23 472.48 314.91 329.45 314.92 186.43 C 265.88 206.69 223.48 243.39 198.03 290.11 M 486.03 186.57 C 486.01 329.48 485.92 472.40 486.05 615.31 C 497.98 610.20 509.70 604.53 520.85 597.85 C 521.02 531.48 520.78 465.11 520.96 398.74 C 549.30 398.83 577.63 398.76 605.97 398.86 C 605.90 387.14 604.84 375.42 602.87 363.88 C 575.56 363.72 548.26 363.76 520.95 363.85 C 521.18 325.57 520.21 287.28 521.46 249.02 C 542.35 264.42 559.99 284.16 572.99 306.62 C 585.63 306.32 598.27 306.52 610.91 306.52 C 586.82 252.41 540.68 209.00 486.03 186.57 Z" />
<path fill="#01803d" opacity="1.00" d=" M 122.30 192.48 C 127.52 190.40 133.31 192.37 137.81 195.25 C 142.56 198.31 147.20 202.46 148.63 208.15 C 150.41 215.29 145.25 223.14 138.09 224.59 C 132.85 225.63 127.64 223.36 123.41 220.44 C 119.05 217.41 114.86 213.34 113.69 207.96 C 112.33 201.61 116.33 194.82 122.30 192.48 Z" />
<path fill="#01803d" opacity="1.00" d=" M 663.18 232.92 C 673.19 227.00 683.19 221.06 693.20 215.13 C 695.76 220.31 700.41 224.89 700.63 230.94 C 700.10 237.30 694.15 241.28 689.09 244.17 C 683.70 247.09 676.18 249.42 670.95 244.99 C 667.64 241.50 665.81 236.91 663.18 232.92 Z" />
<path fill="#01803d" opacity="1.00" d=" M 89.81 248.75 C 97.12 249.78 104.40 251.02 111.71 252.09 C 109.73 256.15 107.71 260.18 105.74 264.23 C 100.38 259.13 95.05 253.98 89.81 248.75 Z" />
<path fill="#01803d" opacity="1.00" d=" M 206.45 363.94 C 212.14 316.89 241.34 274.68 280.25 248.53 C 279.71 286.98 279.82 325.44 280.15 363.89 C 255.58 363.95 231.02 363.86 206.45 363.94 Z" />
<path fill="#01803d" opacity="1.00" d=" M 58.08 350.45 C 65.39 349.30 72.69 348.12 80.00 346.96 C 79.23 351.44 78.89 356.00 77.84 360.43 C 71.36 356.90 64.58 353.94 58.08 350.45 Z" />
<path fill="#01803d" opacity="1.00" d=" M 77.49 463.65 C 82.94 462.67 89.39 463.34 93.22 467.78 C 98.38 473.30 97.94 483.14 91.74 487.72 C 85.67 492.22 77.51 494.14 70.09 492.67 C 61.80 490.97 57.33 480.63 61.18 473.25 C 64.31 467.27 71.21 464.74 77.49 463.65 Z" />
<path fill="#01803d" opacity="1.00" d=" M 684.84 528.99 C 686.40 523.69 689.05 518.79 691.06 513.66 C 695.42 515.51 699.78 517.38 704.15 519.24 C 702.25 523.69 700.42 528.16 698.45 532.57 C 697.39 534.92 695.50 537.21 692.82 537.61 C 688.31 538.05 683.41 533.73 684.84 528.99 Z" />
<path fill="#01803d" opacity="1.00" d=" M 712.43 522.84 C 716.02 524.28 719.56 525.85 723.14 527.35 C 721.15 531.92 719.39 536.61 717.16 541.08 C 716.04 543.53 713.37 545.75 710.54 544.67 C 707.20 543.97 705.46 540.23 706.57 537.11 C 708.14 532.21 710.54 527.62 712.43 522.84 Z" />
<path fill="#01803d" opacity="1.00" d=" M 669.53 562.65 C 674.85 561.29 680.31 563.39 684.79 566.21 C 689.18 568.97 693.42 572.76 694.82 577.95 C 696.84 585.24 691.52 593.53 684.07 594.78 C 678.57 595.70 673.22 593.27 668.76 590.28 C 664.72 587.55 660.92 583.82 659.74 578.93 C 658.08 572.06 662.73 564.46 669.53 562.65 Z" />
<path fill="#01803d" opacity="1.00" d=" M 134.81 622.08 C 138.78 615.80 142.82 609.57 146.81 603.31 C 149.72 606.77 152.62 610.24 155.53 613.71 C 148.63 616.51 141.72 619.30 134.81 622.08 Z" />
<path fill="#01803d" opacity="1.00" d=" M 319.82 670.48 C 320.03 675.07 320.02 679.66 320.10 684.26 C 317.41 683.47 314.73 682.67 312.05 681.87 C 314.64 678.07 317.31 674.33 319.82 670.48 Z" />
<path fill="#01803d" opacity="1.00" d=" M 345.35 675.14 C 348.58 675.91 352.31 675.77 355.04 677.92 C 357.13 680.47 355.66 685.69 352.05 685.91 C 349.20 685.89 346.43 685.15 343.64 684.69 C 344.20 681.50 344.77 678.32 345.35 675.14 Z" />
<path fill="#01803d" opacity="1.00" d=" M 441.42 676.60 C 445.43 675.00 450.29 676.98 452.06 680.92 C 454.19 685.54 455.10 691.64 451.92 696.01 C 448.48 700.45 440.72 699.94 438.09 694.89 C 434.85 689.24 434.16 679.38 441.42 676.60 Z" />
</g>
<g id="#fffdffff">
<path fill="#fffdff" opacity="1.00" d=" M 237.73 50.74 C 313.27 15.50 400.41 6.22 481.76 24.14 C 558.40 40.74 629.38 81.78 682.43 139.47 C 735.53 196.73 770.63 270.46 781.11 347.88 C 787.99 397.89 785.06 449.23 772.43 498.10 C 761.59 540.10 743.51 580.23 719.15 616.13 C 693.71 653.91 661.24 686.75 624.52 713.62 C 624.55 691.70 624.65 669.78 624.69 647.87 C 619.92 646.92 615.16 645.97 610.39 645.06 C 556.90 691.55 487.78 719.65 416.99 723.37 C 369.13 726.03 320.69 717.85 276.39 699.50 C 243.34 685.88 212.62 666.68 185.82 643.04 C 180.12 644.09 174.42 645.16 168.72 646.23 C 169.72 668.14 170.73 690.05 171.71 711.96 C 138.37 687.14 108.56 657.46 84.54 623.50 C 59.42 588.26 40.39 548.71 28.56 507.09 C 7.78 434.28 8.88 355.32 32.10 283.22 C 47.46 235.26 72.42 190.42 104.98 152.02 C 141.20 109.17 186.81 74.29 237.73 50.74 M 274.09 44.84 C 231.19 59.96 191.11 82.97 156.37 112.33 C 114.22 147.84 79.91 192.63 56.77 242.66 C 22.62 315.86 13.39 400.18 30.19 479.13 C 39.59 523.76 57.33 566.62 82.20 604.86 C 104.05 638.59 131.45 668.64 162.65 693.95 C 161.83 675.78 160.98 657.61 160.17 639.44 C 178.38 636.01 196.61 632.69 214.80 629.21 C 215.39 628.05 213.49 627.63 212.98 626.86 C 170.75 592.32 138.28 545.85 120.98 494.06 C 98.55 427.59 101.10 353.03 128.24 288.32 C 141.73 255.84 161.18 225.86 185.24 200.21 C 228.78 153.56 287.86 121.62 350.88 111.30 C 393.03 104.29 436.73 106.53 477.90 118.02 C 511.98 127.49 544.27 143.27 572.75 164.24 C 621.66 200.10 659.11 251.40 678.00 309.06 C 693.05 354.62 696.65 403.92 688.22 451.16 C 675.89 521.51 636.72 586.58 580.71 630.82 C 598.12 634.23 615.52 637.67 632.94 641.07 C 632.95 659.51 632.80 677.95 632.83 696.39 C 686.76 653.82 729.21 596.58 753.03 532.04 C 784.74 447.20 784.29 350.84 751.73 266.32 C 737.64 229.43 717.64 194.81 692.82 164.10 C 645.50 105.31 580.25 61.10 507.91 39.44 C 432.02 16.48 348.84 18.35 274.09 44.84 M 345.14 120.71 C 306.52 128.12 269.52 143.75 237.22 166.18 C 186.31 201.31 147.29 253.35 128.15 312.19 C 114.97 352.27 111.07 395.28 116.35 437.11 C 121.99 482.51 138.90 526.47 165.22 563.91 C 184.11 591.05 208.04 614.46 234.75 633.86 C 221.94 636.35 209.09 638.65 196.27 641.08 C 243.07 680.90 301.80 706.45 362.85 713.49 C 407.54 718.78 453.34 714.13 496.13 700.23 C 533.94 687.94 569.37 668.40 599.98 643.02 C 587.17 640.46 574.34 637.98 561.53 635.43 C 578.60 623.15 594.71 609.46 608.87 593.89 C 633.28 567.31 652.61 536.08 665.51 502.38 C 680.08 464.51 686.47 423.50 683.89 383.00 C 681.38 341.57 669.59 300.73 649.63 264.34 C 620.60 211.05 574.15 167.46 519.07 141.96 C 465.25 116.78 403.44 109.39 345.14 120.71 Z" />
<path fill="#fffdff" opacity="1.00" d=" M 398.13 51.08 C 406.40 40.78 423.36 40.40 433.06 48.83 C 437.11 52.38 439.28 57.62 439.74 62.92 C 436.02 62.78 432.30 62.60 428.58 62.41 C 427.77 59.59 426.78 56.53 424.21 54.82 C 419.41 51.63 412.25 51.87 408.15 56.13 C 404.86 59.51 403.62 64.31 403.21 68.88 C 402.75 74.23 403.22 80.01 406.27 84.59 C 410.26 90.54 420.05 91.17 424.76 85.77 C 426.25 84.14 426.96 82.01 427.76 79.99 C 431.45 80.17 435.14 80.35 438.83 80.52 C 437.14 87.75 432.59 94.76 425.41 97.47 C 417.17 100.51 407.12 99.45 400.22 93.80 C 394.41 89.00 391.92 81.28 391.70 73.96 C 391.44 65.97 392.94 57.42 398.13 51.08 Z" />
<path fill="#fffdff" opacity="1.00" d=" M 342.27 47.94 C 355.26 46.58 368.26 45.19 381.26 43.80 C 381.61 46.93 381.95 50.07 382.28 53.21 C 372.90 54.21 363.52 55.21 354.14 56.20 C 354.51 59.90 354.94 63.59 355.26 67.29 C 363.91 66.49 372.54 65.48 381.18 64.59 C 381.50 67.73 381.84 70.86 382.18 74.00 C 373.56 74.90 364.94 75.84 356.32 76.74 C 356.79 81.32 357.29 85.89 357.77 90.47 C 367.58 89.44 377.38 88.36 387.19 87.36 C 387.51 90.48 387.84 93.61 388.19 96.74 C 374.76 98.18 361.32 99.61 347.89 101.03 C 346.02 83.33 344.11 65.64 342.27 47.94 Z" />
<path fill="#fffdff" opacity="1.00" d=" M 463.53 50.69 C 472.27 48.83 481.95 51.26 488.54 57.37 C 494.22 62.51 496.30 70.58 495.52 78.01 C 494.69 86.27 492.01 94.96 485.63 100.65 C 474.83 110.01 456.53 107.13 448.07 95.97 C 443.20 89.49 442.84 80.78 444.52 73.12 C 446.26 63.03 452.86 52.75 463.53 50.69 M 465.41 60.61 C 457.68 64.00 455.18 73.28 454.75 80.98 C 454.15 87.67 458.30 94.71 465.08 96.21 C 471.28 98.05 478.19 94.75 480.97 88.98 C 484.12 82.72 485.73 75.13 483.45 68.33 C 481.02 61.28 472.17 57.77 465.41 60.61 Z" />
<path fill="#fffdff" opacity="1.00" d=" M 313.99 54.19 C 319.13 52.64 325.23 52.92 329.44 56.59 C 337.11 63.25 338.34 77.30 329.90 83.85 C 324.26 87.89 317.02 88.21 310.61 90.38 C 312.27 96.56 313.84 102.77 315.45 108.96 C 311.84 109.89 308.24 110.83 304.64 111.75 C 300.12 94.60 295.88 77.37 291.18 60.27 C 298.70 57.95 306.40 56.27 313.99 54.19 M 304.43 66.13 C 305.60 71.25 307.01 76.30 308.31 81.38 C 312.51 80.18 316.87 79.46 320.92 77.80 C 326.69 75.39 325.50 65.93 320.28 63.69 C 314.89 62.44 309.68 65.29 304.43 66.13 Z" />
<path fill="#fffdff" opacity="1.00" d=" M 512.03 61.64 C 524.20 66.42 536.35 71.26 548.53 76.02 C 547.40 78.97 546.25 81.90 545.08 84.83 C 536.30 81.38 527.52 77.92 518.76 74.45 C 517.37 77.92 516.01 81.40 514.64 84.88 C 522.70 88.07 530.79 91.20 538.83 94.46 C 537.65 97.38 536.54 100.34 535.27 103.22 C 527.26 99.97 519.20 96.86 511.16 93.67 C 509.48 97.96 507.78 102.24 506.11 106.53 C 515.28 110.10 524.41 113.78 533.59 117.32 C 532.48 120.29 531.32 123.23 530.12 126.16 C 517.57 121.19 505.00 116.25 492.45 111.29 C 498.99 94.75 505.51 78.19 512.03 61.64 Z" />
<path fill="#fffdff" opacity="1.00" d=" M 252.26 75.63 C 256.16 73.80 260.16 72.17 264.12 70.43 C 276.93 84.28 289.74 98.14 302.56 111.98 C 298.82 113.57 295.11 115.24 291.34 116.77 C 288.90 113.82 286.40 110.94 283.90 108.05 C 277.89 110.66 271.87 113.25 265.85 115.86 C 266.18 119.69 266.46 123.53 266.82 127.37 C 263.24 129.00 259.61 130.52 256.00 132.08 C 254.75 113.27 253.60 94.44 252.26 75.63 M 262.81 83.91 C 263.51 91.33 264.22 98.75 264.92 106.18 C 269.08 104.42 273.21 102.60 277.36 100.83 C 272.54 95.16 267.65 89.56 262.81 83.91 Z" />
<path fill="#fffdff" opacity="1.00" d=" M 560.27 81.61 C 563.66 83.60 567.06 85.57 570.44 87.58 C 570.24 101.87 570.07 116.16 569.96 130.46 C 576.29 119.77 582.52 109.03 588.80 98.31 C 591.81 100.06 594.81 101.81 597.80 103.59 C 588.82 118.94 579.82 134.28 570.87 149.64 C 567.64 147.78 564.42 145.90 561.21 144.00 C 561.37 129.31 561.49 114.62 561.64 99.94 C 555.19 110.93 548.76 121.94 542.32 132.94 C 539.30 131.19 536.29 129.45 533.31 127.63 C 542.34 112.32 551.28 96.95 560.27 81.61 Z" />
<path fill="#fffdff" opacity="1.00" d=" M 216.60 94.12 C 219.74 92.12 222.88 90.11 226.03 88.12 C 235.59 103.13 245.16 118.12 254.71 133.13 C 251.58 135.13 248.45 137.14 245.30 139.12 C 241.03 132.41 236.72 125.71 232.48 118.97 C 226.59 122.63 220.78 126.42 214.92 130.13 C 219.19 136.86 223.50 143.57 227.78 150.30 C 224.64 152.31 221.50 154.31 218.37 156.31 C 208.80 141.31 199.23 126.31 189.67 111.30 C 192.81 109.30 195.94 107.30 199.09 105.31 C 202.70 110.99 206.33 116.66 209.95 122.34 C 215.80 118.63 221.63 114.89 227.47 111.17 C 223.85 105.49 220.23 99.80 216.60 94.12 Z" />
<path fill="#fffdff" opacity="1.00" d=" M 594.58 132.97 C 593.21 123.12 603.94 113.88 613.55 116.52 C 620.57 118.40 626.75 123.25 630.68 129.31 C 634.51 135.22 633.92 143.26 629.61 148.76 C 626.87 146.50 624.12 144.28 621.37 142.03 C 622.72 139.55 623.52 136.48 622.07 133.85 C 619.96 130.09 616.33 126.89 612.04 126.01 C 608.30 125.06 604.21 129.18 605.73 132.89 C 609.83 140.26 616.64 145.97 619.86 153.87 C 623.59 163.76 612.79 174.33 602.94 172.67 C 594.01 171.21 586.29 164.91 581.74 157.25 C 578.18 151.36 579.32 143.76 583.50 138.50 C 586.31 140.69 589.05 142.97 591.83 145.19 C 590.00 147.98 589.39 151.71 591.29 154.62 C 593.76 158.39 597.56 161.48 601.91 162.77 C 605.78 164.15 610.67 160.13 609.00 156.05 C 605.22 147.75 596.82 142.06 594.58 132.97 Z" />
<path fill="#fffdff" opacity="1.00" d=" M 172.36 126.49 C 179.18 124.32 186.81 126.35 192.07 131.08 C 189.30 133.57 186.52 136.04 183.72 138.50 C 181.07 136.93 178.02 135.41 174.84 136.20 C 169.49 137.51 164.84 142.35 164.74 148.01 C 164.65 152.84 167.18 157.24 170.13 160.89 C 173.50 164.96 177.77 168.70 183.05 169.90 C 189.44 171.39 196.15 166.34 197.24 160.04 C 197.76 157.11 196.64 154.26 195.44 151.65 C 198.18 149.17 200.96 146.71 203.74 144.28 C 207.25 150.26 209.07 157.73 206.52 164.42 C 203.44 172.35 196.16 178.64 187.83 180.44 C 180.06 182.05 172.16 178.65 166.46 173.47 C 159.77 167.45 154.09 159.27 153.95 149.96 C 153.78 139.10 162.35 129.64 172.36 126.49 Z" />
<path fill="#fffdff" opacity="1.00" d=" M 377.49 137.79 C 429.56 133.41 482.86 144.92 528.34 170.70 C 583.84 201.82 627.44 253.58 648.33 313.72 C 663.62 357.17 667.07 404.67 658.50 449.92 C 651.73 485.89 637.26 520.37 616.43 550.46 C 597.13 578.32 572.52 602.54 544.18 621.15 C 514.05 641.16 479.70 654.74 444.06 660.85 C 399.07 668.61 352.08 664.51 309.19 648.83 C 247.95 626.70 195.77 580.94 165.60 523.27 C 137.21 469.74 128.50 406.23 140.94 346.96 C 148.08 312.47 162.32 279.49 182.43 250.58 C 203.45 220.31 230.85 194.47 262.32 175.29 C 297.09 154.04 336.87 141.07 377.49 137.79 M 379.59 145.89 C 321.34 150.13 265.03 175.47 222.96 215.94 C 183.10 253.75 155.88 304.71 147.08 358.98 C 137.92 413.80 147.20 471.55 173.49 520.55 C 192.46 556.09 219.86 587.10 252.88 610.18 C 283.80 631.99 319.68 646.73 357.01 652.93 C 402.66 660.60 450.39 655.62 493.40 638.45 C 557.03 613.36 609.47 561.61 635.50 498.37 C 652.69 457.06 658.56 411.18 652.61 366.85 C 647.61 329.19 634.05 292.66 613.09 260.96 C 592.92 230.16 566.03 203.77 534.83 184.20 C 489.03 155.09 433.66 141.64 379.59 145.89 Z" />
<path fill="#fffdff" opacity="1.00" d=" M 609.72 181.49 C 622.84 169.48 635.92 157.42 649.02 145.39 C 657.86 155.03 666.70 164.67 675.57 174.28 C 673.26 176.43 670.94 178.57 668.63 180.71 C 662.18 173.79 655.88 166.75 649.40 159.88 C 646.69 162.42 643.95 164.92 641.22 167.43 C 647.05 173.86 653.00 180.17 658.79 186.64 C 656.46 188.73 654.15 190.86 651.85 192.98 C 645.97 186.62 640.13 180.21 634.25 173.84 C 630.85 176.95 627.47 180.07 624.08 183.18 C 630.75 190.44 637.44 197.67 644.07 204.97 C 641.76 207.10 639.45 209.23 637.12 211.35 C 628.00 201.38 618.82 191.48 609.72 181.49 Z" />
<path fill="#fffdff" opacity="1.00" d=" M 344.33 625.70 C 344.07 475.92 344.04 326.13 344.34 176.35 C 398.89 198.70 445.04 241.95 469.10 295.96 C 456.42 296.02 443.74 295.99 431.07 295.97 C 418.01 273.50 400.54 253.35 379.00 238.65 C 379.15 346.89 379.18 455.13 379.00 563.38 C 400.56 548.67 417.99 528.48 431.12 506.03 C 443.80 505.99 456.47 505.96 469.14 506.06 C 445.03 560.06 398.91 603.35 344.33 625.70 Z" />
<path fill="#fffdff" opacity="1.00" d=" M 122.46 181.61 C 129.85 179.44 137.75 181.88 144.01 185.98 C 150.60 190.22 156.74 196.20 158.64 204.05 C 161.76 217.71 151.55 232.70 137.90 235.32 C 129.60 236.85 121.40 233.07 114.98 228.08 C 108.93 223.51 103.79 216.88 103.24 209.08 C 102.43 197.04 110.92 185.04 122.46 181.61 M 122.30 192.48 C 116.33 194.82 112.33 201.61 113.69 207.96 C 114.86 213.34 119.05 217.41 123.41 220.44 C 127.64 223.36 132.85 225.63 138.09 224.59 C 145.25 223.14 150.41 215.29 148.63 208.15 C 147.20 202.46 142.56 198.31 137.81 195.25 C 133.31 192.37 127.52 190.40 122.30 192.48 Z" />
<path fill="#fffdff" opacity="1.00" d=" M 198.03 290.11 C 223.48 243.39 265.88 206.69 314.92 186.43 C 314.91 329.45 315.23 472.48 315.09 615.50 C 303.07 610.40 291.33 604.63 280.03 598.08 C 279.72 531.67 279.74 465.26 280.02 398.85 C 255.00 398.72 229.98 398.92 204.96 398.73 C 205.33 438.57 217.03 478.12 237.83 512.06 C 227.74 517.25 217.56 522.27 207.57 527.65 C 182.44 490.56 170.61 445.54 169.55 401.05 C 169.51 362.46 179.46 323.93 198.03 290.11 M 206.45 363.94 C 231.02 363.86 255.58 363.95 280.15 363.89 C 279.82 325.44 279.71 286.98 280.25 248.53 C 241.34 274.68 212.14 316.89 206.45 363.94 Z" />
<path fill="#fffdff" opacity="1.00" d=" M 486.03 186.57 C 540.68 209.00 586.82 252.41 610.91 306.52 C 598.27 306.52 585.63 306.32 572.99 306.62 C 559.99 284.16 542.35 264.42 521.46 249.02 C 520.21 287.28 521.18 325.57 520.95 363.85 C 548.26 363.76 575.56 363.72 602.87 363.88 C 604.84 375.42 605.90 387.14 605.97 398.86 C 577.63 398.76 549.30 398.83 520.96 398.74 C 520.78 465.11 521.02 531.48 520.85 597.85 C 509.70 604.53 497.98 610.20 486.05 615.31 C 485.92 472.40 486.01 329.48 486.03 186.57 Z" />
<path fill="#fffdff" opacity="1.00" d=" M 649.66 228.22 C 664.97 219.16 680.25 210.04 695.59 201.01 C 699.79 208.26 704.22 215.37 708.33 222.67 C 711.28 228.00 711.94 234.74 709.19 240.29 C 705.76 247.28 699.08 252.12 692.13 255.25 C 685.82 258.08 678.42 259.57 671.75 257.13 C 667.16 255.48 663.61 251.82 661.20 247.69 C 657.34 241.21 653.51 234.71 649.66 228.22 M 663.18 232.92 C 665.81 236.91 667.64 241.50 670.95 244.99 C 676.18 249.42 683.70 247.09 689.09 244.17 C 694.15 241.28 700.10 237.30 700.63 230.94 C 700.41 224.89 695.76 220.31 693.20 215.13 C 683.19 221.06 673.19 227.00 663.18 232.92 Z" />
<path fill="#fffdff" opacity="1.00" d=" M 71.47 224.39 C 74.33 226.67 77.28 229.96 76.46 233.94 C 75.25 238.39 70.87 240.78 68.52 244.51 C 67.64 246.16 69.00 247.66 69.84 248.98 C 69.18 250.37 68.50 251.75 67.81 253.13 C 64.78 250.76 61.86 247.17 62.89 243.04 C 63.71 238.43 68.79 236.61 70.66 232.62 C 71.25 231.08 70.08 229.81 69.38 228.57 C 70.06 227.17 70.76 225.77 71.47 224.39 Z" />
<path fill="#fffdff" opacity="1.00" d=" M 76.24 249.11 C 78.13 245.26 80.03 241.42 81.92 237.56 C 100.65 239.82 119.38 242.04 138.11 244.31 C 136.32 247.94 134.54 251.56 132.75 255.19 C 128.98 254.59 125.21 254.03 121.47 253.35 C 118.42 259.19 115.62 265.15 112.68 271.04 C 115.41 273.77 118.15 276.49 120.89 279.22 C 119.17 282.74 117.43 286.26 115.70 289.77 C 102.52 276.24 89.40 262.66 76.24 249.11 M 89.81 248.75 C 95.05 253.98 100.38 259.13 105.74 264.23 C 107.71 260.18 109.73 256.15 111.71 252.09 C 104.40 251.02 97.12 249.78 89.81 248.75 Z" />
<path fill="#fffdff" opacity="1.00" d=" M 673.89 270.31 C 690.39 263.68 706.90 257.06 723.40 250.43 C 728.29 262.57 733.16 274.72 738.02 286.87 C 735.09 288.04 732.17 289.22 729.25 290.38 C 725.74 281.63 722.21 272.88 718.72 264.11 C 715.25 265.49 711.80 266.90 708.34 268.25 C 711.49 276.34 714.84 284.35 717.96 292.46 C 715.04 293.61 712.13 294.78 709.22 295.94 C 705.99 287.90 702.77 279.86 699.54 271.82 C 695.27 273.51 691.00 275.23 686.75 276.95 C 690.40 286.11 694.08 295.24 697.75 304.39 C 694.83 305.58 691.90 306.75 688.97 307.91 C 683.95 295.37 678.88 282.85 673.89 270.31 Z" />
<path fill="#fffdff" opacity="1.00" d=" M 64.21 283.19 C 68.91 278.90 75.60 277.37 81.79 278.50 C 80.67 282.09 79.69 285.73 78.38 289.27 C 70.68 287.94 64.74 295.84 65.84 302.98 C 66.49 308.35 71.08 312.15 75.74 314.23 C 81.44 316.73 88.04 318.30 94.15 316.39 C 101.10 314.19 104.33 304.72 100.26 298.71 C 99.05 296.83 97.14 295.58 95.35 294.31 C 96.42 290.79 97.50 287.28 98.58 283.76 C 105.23 287.07 110.85 293.27 111.70 300.87 C 112.65 309.94 108.85 319.90 101.05 325.00 C 94.90 329.02 87.05 329.25 80.08 327.65 C 72.03 325.80 63.89 321.89 59.25 314.77 C 52.81 304.93 55.86 290.94 64.21 283.19 Z" />
<path fill="#fffdff" opacity="1.00" d=" M 694.47 328.28 C 711.96 325.04 729.44 321.77 746.93 318.53 C 749.22 330.98 751.59 343.42 753.87 355.88 C 750.77 356.45 747.67 357.03 744.59 357.61 C 742.94 348.81 741.32 340.01 739.66 331.22 C 735.73 331.97 731.79 332.69 727.86 333.43 C 729.28 341.13 730.73 348.82 732.16 356.51 C 729.05 357.09 725.96 357.67 722.87 358.25 C 721.43 350.56 720.01 342.86 718.56 335.17 C 711.22 336.55 703.87 337.88 696.53 339.28 C 695.81 335.62 695.13 331.95 694.47 328.28 Z" />
<path fill="#fffdff" opacity="1.00" d=" M 47.18 342.29 C 65.69 338.65 84.21 335.05 102.72 331.42 C 102.10 335.44 101.63 339.50 100.86 343.50 C 97.09 344.00 93.33 344.62 89.58 345.23 C 88.64 351.71 87.67 358.19 86.73 364.67 C 90.17 366.45 93.63 368.19 97.06 369.97 C 96.50 373.84 95.93 377.72 95.35 381.59 C 78.67 372.73 62.00 363.87 45.32 355.01 C 45.93 350.76 46.56 346.52 47.18 342.29 M 58.08 350.45 C 64.58 353.94 71.36 356.90 77.84 360.43 C 78.89 356.00 79.23 351.44 80.00 346.96 C 72.69 348.12 65.39 349.30 58.08 350.45 Z" />
<path fill="#fffdff" opacity="1.00" d=" M 721.00 367.08 C 732.34 366.63 743.68 366.26 755.03 365.81 C 755.17 369.60 755.31 373.40 755.44 377.20 C 743.61 377.67 731.77 378.00 719.95 378.59 C 716.02 378.76 711.89 381.07 710.90 385.09 C 710.10 388.56 710.56 392.51 712.59 395.50 C 714.46 398.12 717.90 398.87 720.96 398.74 C 732.71 398.38 744.46 397.86 756.22 397.44 C 756.35 401.23 756.49 405.03 756.63 408.83 C 745.09 409.29 733.54 409.67 722.00 410.13 C 716.59 410.34 710.70 409.18 706.80 405.15 C 702.41 400.66 701.12 394.08 701.09 388.02 C 700.99 382.19 702.60 376.00 706.89 371.84 C 710.56 368.15 716.02 367.32 721.00 367.08 Z" />
<path fill="#fffdff" opacity="1.00" d=" M 42.91 381.51 C 60.70 382.19 78.48 382.84 96.26 383.55 C 96.12 387.26 95.97 390.96 95.83 394.68 C 78.05 394.03 60.27 393.35 42.50 392.66 C 42.64 388.94 42.78 385.22 42.91 381.51 Z" />
<path fill="#fffdff" opacity="1.00" d=" M 76.63 399.54 C 84.04 400.41 91.58 404.10 95.09 410.97 C 99.25 419.19 99.15 429.95 93.56 437.50 C 89.28 443.21 82.30 446.17 75.41 447.19 C 67.67 448.32 59.24 447.82 52.44 443.61 C 40.84 436.57 38.42 419.05 46.30 408.41 C 49.36 404.28 54.12 401.77 59.09 400.75 C 59.35 404.46 59.61 408.17 59.85 411.89 C 57.19 412.99 54.35 414.29 52.92 416.96 C 50.21 422.11 51.28 429.30 56.04 432.91 C 59.98 435.91 65.17 436.49 69.97 436.30 C 75.11 436.02 80.51 434.84 84.52 431.42 C 90.03 426.67 89.41 416.64 83.23 412.74 C 81.48 411.57 79.40 411.15 77.41 410.61 C 77.16 406.92 76.88 403.23 76.63 399.54 Z" />
<path fill="#fffdff" opacity="1.00" d=" M 746.92 416.98 C 750.05 417.31 753.19 417.64 756.33 417.97 C 754.75 432.37 753.21 446.76 751.63 461.16 C 748.50 460.80 745.37 460.46 742.25 460.14 C 742.79 454.78 743.42 449.44 743.97 444.08 C 729.42 442.53 714.88 440.93 700.34 439.37 C 700.71 435.66 701.13 431.97 701.53 428.27 C 716.08 429.82 730.63 431.44 745.19 432.99 C 745.75 427.65 746.36 422.31 746.92 416.98 Z" />
<path fill="#fffdff" opacity="1.00" d=" M 75.53 452.68 C 82.82 451.36 90.97 452.31 96.83 457.19 C 106.32 465.14 109.42 480.22 103.09 491.01 C 98.48 498.66 89.61 502.36 81.15 503.79 C 73.83 505.15 65.62 504.17 59.75 499.26 C 50.48 491.47 47.36 476.94 53.09 466.19 C 57.54 458.05 66.79 454.16 75.53 452.68 M 77.49 463.65 C 71.21 464.74 64.31 467.27 61.18 473.25 C 57.33 480.63 61.80 490.97 70.09 492.67 C 77.51 494.14 85.67 492.22 91.74 487.72 C 97.94 483.14 98.38 473.30 93.22 467.78 C 89.39 463.34 82.94 462.67 77.49 463.65 Z" />
<path fill="#fffdff" opacity="1.00" d=" M 698.09 457.10 C 715.33 461.46 732.56 465.88 749.80 470.24 C 746.60 482.93 743.35 495.62 740.13 508.30 C 737.07 507.52 734.02 506.74 730.98 505.97 C 733.28 496.81 735.64 487.67 737.94 478.52 C 734.32 477.60 730.71 476.69 727.10 475.77 C 724.95 484.16 722.82 492.55 720.70 500.94 C 717.61 500.21 714.54 499.44 711.50 498.57 C 713.70 490.20 715.79 481.80 717.92 473.42 C 713.46 472.30 709.01 471.15 704.55 470.04 C 702.14 479.59 699.69 489.13 697.26 498.68 C 694.21 497.91 691.16 497.13 688.12 496.36 C 691.41 483.27 694.77 470.19 698.09 457.10 Z" />
<path fill="#fffdff" opacity="1.00" d=" M 676.46 524.61 C 679.71 516.39 683.36 508.33 686.79 500.18 C 703.15 507.21 719.59 514.06 735.88 521.24 C 732.32 529.25 729.00 537.37 725.48 545.40 C 723.50 549.96 719.99 554.41 714.89 555.50 C 707.91 557.16 699.11 552.33 699.11 544.56 C 692.52 551.68 680.22 547.84 676.34 539.73 C 673.64 535.05 674.54 529.40 676.46 524.61 M 684.84 528.99 C 683.41 533.73 688.31 538.05 692.82 537.61 C 695.50 537.21 697.39 534.92 698.45 532.57 C 700.42 528.16 702.25 523.69 704.15 519.24 C 699.78 517.38 695.42 515.51 691.06 513.66 C 689.05 518.79 686.40 523.69 684.84 528.99 M 712.43 522.84 C 710.54 527.62 708.14 532.21 706.57 537.11 C 705.46 540.23 707.20 543.97 710.54 544.67 C 713.37 545.75 716.04 543.53 717.16 541.08 C 719.39 536.61 721.15 531.92 723.14 527.35 C 719.56 525.85 716.02 524.28 712.43 522.84 Z" />
<path fill="#fffdff" opacity="1.00" d=" M 87.92 513.99 C 88.74 505.99 97.68 501.76 104.94 502.59 C 112.18 503.57 117.22 509.84 120.06 516.11 C 122.72 522.23 124.50 529.48 121.80 535.90 C 120.16 539.96 116.53 542.73 112.73 544.64 C 111.33 541.36 109.96 538.09 108.58 534.82 C 111.39 533.21 113.73 530.40 113.48 526.99 C 113.14 522.30 111.17 517.55 107.70 514.31 C 104.87 511.53 99.02 512.88 98.53 517.10 C 98.02 525.84 102.23 534.38 100.68 543.14 C 99.32 549.74 92.21 553.37 85.97 553.61 C 79.78 553.86 74.45 549.60 71.48 544.48 C 67.87 538.34 65.33 530.72 67.74 523.69 C 69.19 519.23 72.78 515.86 76.90 513.81 C 78.28 517.09 79.67 520.37 81.03 523.66 C 78.53 525.28 76.31 527.80 76.54 530.99 C 76.84 535.38 78.61 540.15 82.41 542.66 C 85.41 544.64 90.29 542.64 90.53 538.91 C 90.31 530.56 87.11 522.39 87.92 513.99 Z" />
<path fill="#fffdff" opacity="1.00" d=" M 107.90 559.01 C 106.99 548.15 121.01 541.28 129.93 546.11 C 137.98 550.44 143.20 559.07 144.91 567.88 C 146.30 574.64 142.63 581.45 136.89 584.94 C 135.05 581.91 133.21 578.88 131.38 575.85 C 134.06 573.80 135.93 570.46 135.01 567.02 C 133.89 562.55 131.26 558.24 127.40 555.64 C 124.12 553.34 118.52 555.75 118.83 560.02 C 119.73 569.17 125.83 577.48 124.56 586.90 C 122.17 596.29 109.42 601.08 101.39 595.60 C 95.18 591.37 90.84 584.44 89.33 577.12 C 87.90 570.39 91.30 563.43 96.95 559.73 C 98.80 562.77 100.66 565.81 102.48 568.87 C 100.46 570.72 98.60 573.17 99.06 576.10 C 99.72 580.61 102.28 585.23 106.44 587.37 C 109.93 589.20 114.96 585.96 114.04 581.92 C 112.40 574.18 108.63 566.94 107.90 559.01 Z" />
<path fill="#fffdff" opacity="1.00" d=" M 668.24 552.15 C 676.33 549.80 684.86 552.83 691.62 557.35 C 698.51 561.75 704.58 568.63 705.31 577.09 C 706.31 589.46 697.66 602.24 685.50 605.29 C 677.19 607.26 668.71 603.88 661.98 599.16 C 655.82 594.94 650.47 588.70 649.45 581.08 C 647.91 568.71 656.27 555.74 668.24 552.15 M 669.53 562.65 C 662.73 564.46 658.08 572.06 659.74 578.93 C 660.92 583.82 664.72 587.55 668.76 590.28 C 673.22 593.27 678.57 595.70 684.07 594.78 C 691.52 593.53 696.84 585.24 694.82 577.95 C 693.42 572.76 689.18 568.97 684.79 566.21 C 680.31 563.39 674.85 561.29 669.53 562.65 Z" />
<path fill="#fffdff" opacity="1.00" d=" M 150.30 576.01 C 152.94 579.06 155.49 582.18 158.11 585.25 C 156.08 588.52 153.95 591.73 151.89 594.99 C 156.07 600.01 160.31 604.98 164.45 610.03 C 168.20 608.77 171.76 606.99 175.58 605.97 C 177.88 609.05 180.46 611.89 182.88 614.87 C 165.17 621.43 147.47 628.00 129.76 634.56 C 127.00 631.28 124.27 627.98 121.50 624.72 C 131.07 608.46 140.72 592.26 150.30 576.01 M 134.81 622.08 C 141.72 619.30 148.63 616.51 155.53 613.71 C 152.62 610.24 149.72 606.77 146.81 603.31 C 142.82 609.57 138.78 615.80 134.81 622.08 Z" />
<path fill="#fffdff" opacity="1.00" d=" M 613.26 616.74 C 621.55 607.30 629.88 597.90 638.19 588.47 C 651.51 600.24 664.89 611.95 678.18 623.78 C 675.72 626.56 673.32 629.38 670.85 632.15 C 659.91 622.53 649.00 612.87 638.07 603.25 C 632.21 609.87 626.37 616.50 620.52 623.13 C 618.10 621.00 615.68 618.87 613.26 616.74 Z" />
<path fill="#fffdff" opacity="1.00" d=" M 250.99 638.09 C 259.47 632.71 272.25 639.18 273.29 649.06 C 273.59 651.29 272.92 653.48 272.31 655.61 C 270.31 654.47 268.31 653.32 266.34 652.15 C 268.52 646.26 261.55 640.51 256.11 643.15 C 251.38 645.59 248.37 650.84 247.65 656.01 C 246.94 660.63 251.43 664.84 255.96 664.33 C 257.92 664.11 259.41 662.74 260.90 661.60 C 262.88 662.72 264.85 663.87 266.82 665.03 C 263.98 668.04 260.25 670.62 255.94 670.57 C 248.25 670.48 240.40 664.08 240.69 655.98 C 241.06 648.90 245.04 641.95 250.99 638.09 Z" />
<path fill="#fffdff" opacity="1.00" d=" M 525.17 649.97 C 525.52 640.39 537.02 633.40 545.73 637.18 C 547.86 638.03 549.46 639.72 551.00 641.38 C 549.01 642.54 547.01 643.70 545.01 644.83 C 542.91 642.89 539.93 641.46 537.14 642.87 C 533.04 644.16 531.05 648.94 532.39 652.90 C 533.90 657.91 537.24 663.66 542.94 664.37 C 548.20 664.70 552.23 659.20 550.46 654.24 C 552.43 653.11 554.40 651.99 556.42 650.94 C 557.09 653.93 557.77 657.08 556.86 660.10 C 555.33 665.87 549.70 669.75 544.03 670.69 C 538.99 671.48 534.06 668.85 530.92 665.04 C 527.49 660.82 524.90 655.52 525.17 649.97 Z" />
<path fill="#fffdff" opacity="1.00" d=" M 280.36 647.48 C 282.49 648.36 284.62 649.27 286.74 650.19 C 285.11 654.03 283.44 657.86 281.81 661.71 C 285.74 663.41 289.67 665.08 293.60 666.80 C 295.28 662.97 296.91 659.13 298.58 655.30 C 300.69 656.20 302.80 657.11 304.92 658.02 C 300.58 668.16 296.20 678.28 291.84 688.41 C 289.74 687.50 287.63 686.60 285.52 685.73 C 287.37 681.13 289.41 676.61 291.35 672.05 C 287.40 670.36 283.47 668.62 279.50 666.98 C 277.66 671.50 275.53 675.92 273.83 680.50 C 271.59 679.72 269.42 678.80 267.30 677.75 C 271.71 667.68 276.04 657.58 280.36 647.48 Z" />
<path fill="#fffdff" opacity="1.00" d=" M 498.62 656.72 C 501.67 653.11 506.38 651.07 511.02 650.65 C 515.37 650.29 519.27 653.08 521.28 656.78 C 519.29 657.66 517.28 658.53 515.28 659.38 C 512.46 654.97 505.97 656.71 503.36 660.38 C 502.09 662.29 503.51 665.50 505.94 665.39 C 510.97 665.13 515.87 663.34 520.95 663.62 C 527.61 664.24 530.51 673.46 526.60 678.44 C 523.16 682.89 517.49 685.34 511.95 685.56 C 507.73 685.77 503.90 682.91 502.33 679.10 C 504.37 678.28 506.39 677.41 508.44 676.61 C 511.11 681.68 517.95 679.23 521.05 675.94 C 522.83 674.12 521.83 670.31 519.09 670.23 C 513.68 670.10 508.43 672.61 503.02 671.68 C 496.95 670.06 494.63 661.44 498.62 656.72 Z" />
<path fill="#fffdff" opacity="1.00" d=" M 297.50 690.62 C 304.38 681.17 311.35 671.79 318.19 662.32 C 320.75 663.03 323.30 663.79 325.85 664.54 C 326.53 676.22 327.01 687.92 327.60 699.61 C 325.20 698.88 322.81 698.17 320.42 697.46 C 320.35 695.07 320.34 692.69 320.32 690.31 C 316.46 689.14 312.59 688.06 308.76 686.82 C 307.27 688.74 305.85 690.71 304.46 692.71 C 302.14 692.00 299.82 691.31 297.50 690.62 M 319.82 670.48 C 317.31 674.33 314.64 678.07 312.05 681.87 C 314.73 682.67 317.41 683.47 320.10 684.26 C 320.02 679.66 320.03 675.07 319.82 670.48 Z" />
<path fill="#fffdff" opacity="1.00" d=" M 339.55 668.29 C 345.47 669.53 351.58 670.04 357.36 671.87 C 365.76 675.31 363.97 689.14 355.67 691.54 C 351.31 692.61 346.93 690.88 342.61 690.32 C 341.91 694.22 341.21 698.12 340.51 702.02 C 338.23 701.64 335.95 701.23 333.68 700.84 C 335.64 689.99 337.58 679.14 339.55 668.29 M 345.35 675.14 C 344.77 678.32 344.20 681.50 343.64 684.69 C 346.43 685.15 349.20 685.89 352.05 685.91 C 355.66 685.69 357.13 680.47 355.04 677.92 C 352.31 675.77 348.58 675.91 345.35 675.14 Z" />
<path fill="#fffdff" opacity="1.00" d=" M 440.51 670.73 C 446.85 668.99 454.54 671.17 457.86 677.16 C 460.89 682.71 461.93 689.69 459.74 695.72 C 455.57 706.38 438.51 708.42 432.30 698.62 C 428.65 692.48 427.44 684.24 430.81 677.74 C 432.82 674.11 436.58 671.78 440.51 670.73 M 441.42 676.60 C 434.16 679.38 434.85 689.24 438.09 694.89 C 440.72 699.94 448.48 700.45 451.92 696.01 C 455.10 691.64 454.19 685.54 452.06 680.92 C 450.29 676.98 445.43 675.00 441.42 676.60 Z" />
<path fill="#fffdff" opacity="1.00" d=" M 367.98 673.13 C 376.07 673.66 384.16 674.28 392.26 674.83 C 392.11 676.78 391.97 678.72 391.84 680.68 C 386.00 680.30 380.18 679.85 374.35 679.45 C 374.18 681.75 374.01 684.04 373.84 686.36 C 379.19 686.73 384.55 687.12 389.90 687.50 C 389.77 689.45 389.63 691.40 389.51 693.37 C 384.15 692.97 378.79 692.58 373.42 692.22 C 373.23 695.05 373.03 697.88 372.83 700.72 C 378.92 701.18 385.01 701.59 391.10 702.03 C 390.95 703.97 390.82 705.92 390.69 707.87 C 382.33 707.32 373.99 706.67 365.64 706.12 C 366.42 695.12 367.22 684.12 367.98 673.13 Z" />
<path fill="#fffdff" opacity="1.00" d=" M 397.49 682.34 C 400.93 672.94 414.61 670.63 421.59 677.36 C 423.66 679.29 424.71 681.98 425.35 684.68 C 423.05 684.78 420.75 684.87 418.46 684.94 C 417.20 679.02 408.73 677.65 405.31 682.39 C 402.24 686.97 402.49 693.37 404.76 698.25 C 406.69 702.60 413.03 703.68 416.46 700.50 C 417.83 699.31 418.26 697.47 418.90 695.86 C 421.18 695.74 423.47 695.65 425.76 695.59 C 424.92 699.72 423.05 703.99 419.26 706.20 C 413.58 709.50 405.48 709.12 400.73 704.33 C 395.44 698.52 394.88 689.47 397.49 682.34 Z" />
<path fill="#fffdff" opacity="1.00" d=" M 188.04 739.43 L 188.58 739.40 L 188.73 740.00 L 188.13 740.00 L 188.04 739.43 Z" />
</g>
</svg>
