<?xml version="1.0" encoding="UTF-8"?>
<!DOCTYPE svg PUBLIC "-//W3C//DTD SVG 1.1//EN" "http://www.w3.org/Graphics/SVG/1.1/DTD/svg11.dtd">
<!-- Creator: CorelDRAW X6 -->
<svg xmlns="http://www.w3.org/2000/svg" xml:space="preserve" width="210mm" height="297mm" version="1.1" style="shape-rendering:geometricPrecision; text-rendering:geometricPrecision; image-rendering:optimizeQuality; fill-rule:evenodd; clip-rule:evenodd"
viewBox="0 0 21000 29700"
 xmlns:xlink="http://www.w3.org/1999/xlink">
 <defs>
  <style type="text/css">
   <![CDATA[
    .fil4 {fill:#373435}
    .fil3 {fill:white}
    .fil5 {fill:#125B9F}
    .fil1 {fill:#EE4037}
    .fil2 {fill:#FEFEFE}
    .fil0 {fill:#FFF212}
   ]]>
  </style>
 </defs>
 <g id="HQFL">
  <metadata id="CorelCorpID_0Corel-Layer"/>
  <polygon class="fil0" points="4338,9705 5008,10128 4804,9365 5437,8897 4604,8843 4326,8131 4015,8861 3210,8889 3851,9394 3631,10123 "/>
  <polygon class="fil0" points="7624,7769 8293,8191 8090,7429 8723,6961 7890,6907 7612,6195 7300,6924 6495,6953 7136,7457 6917,8187 "/>
  <polygon class="fil0" points="13118,7836 13788,8258 13584,7495 14217,7027 13384,6973 13106,6261 12795,6991 11990,7019 12631,7524 12411,8253 "/>
  <polygon class="fil0" points="10752,4765 11585,5291 11332,4342 12120,3759 11082,3692 10737,2806 10349,3714 9347,3749 10145,4377 9871,5285 "/>
  <path class="fil1" d="M17000 11698c-452,-668 -853,-1093 -1478,-1571l-10 -8 -8 9 -1653 1906c-56,41 -115,221 -118,331 -3,98 4,167 9,229 7,86 13,154 -6,263 0,0 -8,44 -8,44 -13,81 -23,139 -67,217l-314 309c132,100 257,208 376,322 117,-111 299,-283 302,-285 6,-2 56,-16 56,-16 69,-20 124,-37 207,-49 109,-16 177,-7 263,3 61,7 131,16 229,17 109,1 292,-52 337,-109l1890 -1603 -7 -10z"/>
  <path class="fil1" d="M6965 13451c86,-9 154,-16 263,1l46 7c80,12 138,21 216,62 2,2 180,176 296,290 116,-117 239,-227 368,-329 -108,-110 -319,-326 -323,-330 -2,-6 -17,-56 -17,-56 -22,-69 -39,-123 -52,-206 -8,-49 -11,-89 -11,-127 0,-46 4,-88 9,-136 6,-58 13,-124 13,-213 0,-5 0,-11 0,-16 -1,-108 -55,-287 -113,-333 0,-1 -1638,-1863 -1638,-1863l-10 7c-660,464 -1078,872 -1545,1505l-7 10c0,0 1942,1626 1943,1627 46,57 225,112 333,113 98,1 168,-6 229,-13z"/>
  <path class="fil1" d="M16584 17999l-9 -36 -15 34c-3,7 -343,740 -1576,1633l-23 16c0,0 501,133 533,142 -169,278 -281,436 -490,692 -90,111 -174,214 -256,311l-933 -1036c-103,106 -211,206 -325,300l961 1067c-248,253 -520,468 -920,679l-129 69c-336,180 -579,310 -991,325l-30 1c-217,8 -360,13 -567,-70 -234,-94 -365,-198 -517,-414 -82,-116 -77,-255 -73,-389 4,-114 8,-223 -42,-311 -130,12 -262,19 -396,19 -149,0 -296,-8 -441,-23 -38,65 -46,142 -46,225 0,30 1,60 2,91 1,31 2,62 2,94 0,103 -12,206 -75,295 -152,215 -283,320 -517,414 -208,83 -351,78 -567,70l-30 -1c-411,-15 -654,-145 -991,-325l-129 -69c-349,-184 -600,-370 -823,-583l990 -1099c-116,-92 -227,-189 -332,-292l-4 5 -958 1064c-111,-127 -223,-265 -346,-416 -209,-256 -321,-415 -490,-692 32,-9 533,-142 533,-142l-23 -16c-1233,-893 -1573,-1626 -1576,-1633l-15 -34 -9 36c-4,17 -426,1667 183,2717l11 19c0,0 263,-419 284,-453 262,451 438,704 775,1110 37,45 74,89 109,131l-951 1057 0 5c0,6 -8,153 86,239 56,51 137,69 238,54l5 -1 913 -1014c424,480 810,827 1481,1194 500,273 820,371 1390,536 76,22 141,33 204,44 95,16 185,31 294,83 241,115 355,229 507,426 160,208 216,353 282,599l13 47 13 -47c72,-258 128,-399 282,-600 152,-197 266,-311 507,-426 109,-52 199,-67 294,-83 63,-11 128,-22 204,-44 570,-164 890,-263 1390,-536 718,-393 1111,-764 1571,-1298l918 1020 5 1c102,16 182,-2 238,-53 94,-86 86,-232 86,-239l0 -5 -959 -1065c7,-8 14,-16 21,-25 337,-406 513,-659 775,-1110 21,34 284,453 284,453l11 -19c610,-1050 188,-2700 183,-2717z"/>
  <path class="fil2" d="M7830 13483c-171,-152 -438,-389 -438,-389 0,0 -181,-230 -465,55 97,-97 184,-312 21,-499l-833 -882 882 833c187,162 402,76 499,-21 -285,285 -55,465 -55,465 0,0 237,267 389,438z"/>
  <path class="fil2" d="M4765 11666l1795 1492c115,76 267,101 267,101 0,0 -168,46 -298,-50 0,0 -1818,-1497 -1814,-1486l50 -57z"/>
  <path class="fil2" d="M13688 13459c155,-168 396,-431 396,-431 0,0 233,-177 -47,-466 96,99 309,189 499,30l896 -817 -848 867c-166,184 -83,400 13,499 -280,-290 -464,-63 -464,-63 0,0 -271,232 -445,381z"/>
  <path class="fil2" d="M15558 10426l-1523 1769c-78,113 -106,265 -106,265 0,0 -43,-169 55,-297 0,0 1529,-1791 1517,-1788l56 51z"/>
  <path class="fil1" d="M9216 11749c0,0 -15,-671 0,-683 397,-311 1117,-453 1117,-453 -345,-152 -551,-473 -551,-874 0,-542 440,-982 982,-982 542,0 977,440 977,982 0,401 -206,722 -551,874 0,0 720,143 1117,453 15,12 0,683 0,683 0,0 -297,317 -924,360 -54,4 -128,318 -162,477 -143,-15 -288,-22 -434,-22 -163,0 -324,10 -482,27 -33,-156 -108,-478 -163,-482 -627,-43 -924,-360 -924,-360zm1057 -2011c0,271 220,491 491,491 271,0 491,-220 491,-491 0,-271 -220,-491 -491,-491 -271,0 -491,220 -491,491z"/>
  <path class="fil3" d="M10003 9310c-73,130 -112,278 -112,429 0,129 28,254 80,367 5,5 22,18 33,15 9,-3 13,-16 16,-27 -53,-111 -81,-230 -81,-355 0,-168 51,-328 145,-466 -5,-4 -13,-7 -24,-6 -18,1 -38,17 -57,43z"/>
  <path class="fil3" d="M11343 9469c-26,-27 -43,-34 -50,-31 -7,3 -10,18 -10,28 45,83 69,177 69,273 0,150 -58,292 -162,400 0,1 0,2 0,3 0,6 1,12 5,15 11,8 43,-3 58,-11 97,-113 150,-258 150,-407 0,-95 -21,-187 -60,-269z"/>
  <path class="fil2" d="M9519 11698c-15,0 -26,12 -26,26 0,15 12,26 26,26l2639 0c15,0 26,-12 26,-26 0,-15 -12,-26 -26,-26l-2639 0z"/>
  <path class="fil2" d="M9414 11060l-26 0 0 515c0,15 12,26 26,26 15,0 26,-12 26,-26 0,0 0,-415 0,-462 52,0 2718,0 2718,0 15,0 26,-12 26,-26 0,-15 -12,-26 -26,-26l-2745 0z"/>
  <path class="fil2" d="M7092 21141l742 -826 -23 -46 -752 838c11,12 22,23 33,35z"/>
  <path class="fil2" d="M6488 21743l-862 960c0,0 -207,51 23,46l870 -969c-10,-12 -21,-24 -32,-37z"/>
  <path class="fil2" d="M14559 21007l-750 -835 -23 46 741 825c11,-12 22,-24 33,-36z"/>
  <path class="fil2" d="M15994 22605l-869 -967c-11,12 -21,25 -31,37l877 976c230,5 23,-46 23,-46z"/>
  <path class="fil2" d="M5556 19910c38,75 80,152 124,230 358,633 620,970 1148,1464 632,591 1054,902 1865,1185 458,160 830,237 1376,259 0,0 586,101 694,932l0 -1992c-23,976 -659,988 -659,988 -546,-21 -860,-80 -1376,-259 -814,-281 -1233,-594 -1865,-1185 -528,-494 -788,-832 -1148,-1464 -36,-64 -70,-126 -103,-188 -186,-367 446,-276 596,-286l-38 -29 -744 -52c-126,-293 -237,-636 -325,-921 0,0 -44,7 -24,73 83,268 190,603 302,877l-197 796 19 44c43,-147 213,-773 356,-472z"/>
  <path class="fil2" d="M15968 19910c-38,75 -80,152 -124,230 -358,633 -620,970 -1148,1464 -632,591 -1054,902 -1864,1185 -458,160 -830,237 -1376,259l-34 -73c546,-21 860,-80 1376,-259 814,-281 1233,-594 1865,-1185 528,-494 788,-832 1148,-1464 36,-64 71,-126 103,-188 186,-367 -446,-276 -596,-286l38 -29 744 -52c126,-293 237,-636 325,-921 0,0 44,7 24,73 -83,268 -190,603 -302,877l197 796 -19 44c-43,-147 -213,-773 -356,-472z"/>
  <path class="fil4" d="M15422 17009c37,-31 58,-68 61,-106 8,-122 -119,-185 -240,-193 -19,-1 -43,-2 -69,-1 0,-11 0,-22 -1,-33 89,9 187,-18 250,-70 37,-31 58,-68 61,-105 8,-122 -119,-185 -240,-193 -40,-3 -111,-2 -181,8 4,-10 5,-21 5,-31 0,-4 0,-7 0,-11 4,-13 23,-84 23,-185 0,-77 -11,-170 -50,-264 -25,-60 -54,-105 -84,-142 0,0 0,0 0,0 16,-8 21,-24 21,-40 0,-13 -3,-23 -5,-31 0,-4 1,-15 1,-34 0,-74 -13,-246 -118,-402 -48,-71 -96,-117 -143,-152 0,0 0,0 0,0 12,-8 15,-20 15,-32 0,-16 -6,-32 -10,-41 -2,-23 -22,-240 -180,-413 -73,-80 -140,-120 -204,-150 2,-1 5,-1 6,-3 8,-7 11,-17 11,-26 0,-18 -11,-36 -17,-47 -5,-22 -57,-234 -239,-382 -62,-50 -119,-80 -174,-100 5,-6 7,-13 7,-20 0,-20 -16,-39 -25,-50 -9,-20 -96,-220 -301,-335 -91,-51 -166,-67 -236,-74 0,-1 1,-3 1,-4 0,-22 -21,-41 -33,-50 -11,-18 -127,-204 -348,-287 -61,-23 -113,-32 -161,-35 0,0 0,0 0,0 1,-3 2,-7 2,-10 0,-25 -29,-43 -43,-50 -16,-18 -166,-174 -397,-211 -84,-14 -150,-10 -209,1 0,0 0,0 0,0 0,-2 0,-4 0,-5 0,-28 -35,-42 -51,-48 -19,-15 -190,-148 -424,-150 -107,-1 -182,20 -249,47 0,-2 1,-4 1,-6l0 0c0,-32 -39,-41 -57,-45 -6,-4 -26,-15 -57,-28 0,-4 1,-8 1,-12 0,-79 -27,-160 -72,-215 -31,-37 -68,-58 -105,-61 -118,-7 -181,111 -192,228 -5,1 -11,1 -16,2 -7,1 -14,2 -21,4 -8,-65 -31,-128 -69,-173 -31,-37 -68,-58 -106,-61 -122,-8 -185,119 -193,240 -5,1 -9,2 -14,3 -5,1 -10,3 -15,4 -6,-70 -31,-140 -72,-189 -32,-38 -70,-60 -109,-62 -125,-8 -190,121 -198,244 -1,13 -1,30 -1,49 0,7 0,15 0,23 -86,-8 -211,-6 -338,47 -60,25 -105,54 -142,84 0,0 0,0 0,0 -14,-29 -53,-20 -70,-16 -20,-2 -239,-15 -436,116 -71,48 -117,96 -152,143 0,0 0,0 0,0 -18,-27 -57,-12 -73,-5 -23,2 -240,22 -413,179 -80,73 -120,140 -150,205 -1,-2 -1,-5 -3,-6 -22,-23 -56,-4 -72,6 -22,5 -234,57 -382,239 -50,62 -80,119 -100,174 -26,-19 -56,6 -70,19 -20,8 -220,96 -335,301 -50,90 -67,165 -74,235 -23,-3 -44,20 -55,32 -18,11 -204,127 -287,348 -23,61 -32,113 -35,161 0,0 0,0 0,0 -31,-10 -52,26 -60,42 -18,16 -174,166 -211,397 -6,38 -9,73 -9,104 0,39 4,72 10,104 0,0 0,0 0,0 -32,-5 -47,33 -54,50 -15,19 -148,190 -150,424 0,3 0,6 0,8 0,103 21,176 47,240 -2,0 -4,-1 -6,-1 -32,0 -41,39 -45,57 -6,10 -32,58 -55,130 -63,-7 -123,-8 -159,-5 -121,8 -247,71 -240,193 2,38 23,74 61,105 64,53 163,81 253,70 23,-3 43,-8 61,-14 3,15 6,30 10,44 -1,3 -1,6 -2,8 -54,-5 -106,-6 -143,-3 -121,8 -247,71 -240,193 2,38 23,74 61,106 64,53 163,81 253,70 28,-3 51,-11 72,-19 6,21 12,41 19,59 -62,-8 -124,-9 -166,-6 -121,8 -247,71 -240,193 2,38 23,74 61,106 64,53 163,81 253,70 39,-5 70,-17 97,-28 0,0 23,-8 39,-13 -2,22 -3,46 -3,72 0,77 11,170 50,264 25,60 54,105 84,142 0,0 0,0 0,0 -16,8 -21,24 -21,40 0,12 3,23 5,31 0,4 -1,15 -1,34 0,73 13,246 118,402 48,71 96,117 143,152 0,0 0,0 0,0 -12,8 -15,20 -15,32 0,16 6,32 10,41 2,23 22,240 180,412 73,80 140,120 204,151 -2,1 -5,1 -6,3 -8,8 -11,17 -11,26 0,18 11,36 17,47 5,22 57,234 239,382 62,50 119,80 174,100 -5,7 -7,13 -7,20 0,20 16,39 25,50 8,20 96,220 301,335 91,50 166,67 235,74 0,1 -1,3 -1,4 0,22 21,41 33,50 11,18 127,204 347,287 61,23 113,32 161,35 0,0 0,0 0,0 -1,3 -2,7 -2,10 0,25 29,43 43,50 16,18 166,174 397,211 84,14 150,10 208,-1 0,0 0,0 0,0 0,2 0,4 0,5 0,28 35,42 51,48 19,15 190,148 424,150 107,1 182,-20 248,-46 0,2 -1,4 -1,6 0,32 39,41 57,45 3,1 7,4 14,8 -22,69 -30,159 -30,228 0,18 0,34 1,48 8,121 71,247 193,240 38,-2 74,-23 106,-61 46,-55 72,-135 72,-214 0,-13 -1,-26 -2,-39 -5,-39 -17,-70 -29,-97 0,0 -3,-10 -7,-21 26,1 53,1 80,-1 -8,50 -11,102 -11,145 0,18 1,34 1,48 8,121 71,247 193,240 38,-2 74,-23 106,-61 46,-55 72,-136 72,-214 0,-13 -1,-26 -2,-39 -5,-39 -17,-70 -29,-97 0,0 -3,-10 -7,-21 26,-1 54,-4 81,-9 -9,54 -12,109 -12,153 0,19 1,35 1,49 8,121 71,247 193,240 38,-2 74,-23 105,-61 46,-55 73,-136 73,-215 0,-13 -1,-26 -2,-39 -5,-39 -17,-70 -28,-97 0,0 -13,-39 -17,-51 18,-21 31,-43 42,-69 68,14 242,39 421,-34 60,-25 105,-54 142,-84 0,0 0,0 0,0 14,29 53,20 70,16 20,2 239,15 436,-116 71,-48 117,-96 152,-143 0,0 0,0 0,0 18,27 57,12 73,5 23,-2 240,-22 412,-180 80,-73 120,-140 151,-204 1,2 1,5 3,6 22,23 56,4 73,-6 22,-5 234,-57 382,-238 50,-62 80,-119 100,-174 26,19 56,-6 70,-19 20,-9 220,-96 335,-301 50,-91 67,-166 74,-235 23,3 44,-20 55,-32 18,-11 204,-127 287,-348 23,-61 32,-113 35,-161 0,0 0,0 0,0 31,10 52,-26 60,-42 18,-16 174,-166 211,-397 6,-38 9,-73 9,-104 0,-38 -4,-72 -10,-104 0,0 0,0 0,0 32,5 47,-33 54,-50 15,-19 148,-190 150,-424 0,-3 0,-6 0,-8 0,-103 -21,-176 -47,-240 2,0 4,1 6,1 16,0 27,-10 34,-23 1,0 1,1 1,1 27,11 58,24 97,28 90,11 189,-17 253,-70 37,-31 58,-68 61,-105 8,-122 -119,-185 -240,-193 -20,-1 -44,-2 -71,-1 1,-11 1,-22 2,-33 89,9 186,-18 249,-70zm-4063 -4129c0,-36 -2,-67 -7,-95 111,24 230,42 308,39 1,0 40,-2 96,-7 83,62 386,183 540,200 1,0 22,2 54,4 81,76 347,236 486,279 2,1 61,18 139,38 75,93 306,290 435,352 1,1 28,14 70,32 55,103 260,349 381,436 1,1 49,34 113,76 27,103 189,386 299,495 1,1 29,28 70,65 11,103 130,408 222,531 1,1 13,17 34,43 0,112 64,415 128,546 1,2 28,57 67,128 -9,60 -9,166 -3,274 -2,0 -3,0 -5,0 -46,4 -85,15 -128,36 -19,-7 -40,-13 -63,-17 -210,-1718 -1556,-3086 -3264,-3328 14,-42 27,-91 27,-126zm3474 3815c0,8 -1,16 -1,24 -14,-1 -29,-2 -45,0 -46,4 -85,15 -128,36 -11,-4 -23,-7 -35,-11 0,-30 -1,-59 -2,-88 45,19 117,41 163,41 17,0 32,-1 47,-1zm-3871 -3960c1,0 18,-4 44,-10 -9,20 -29,70 -29,132 0,7 0,13 1,20 3,34 10,64 22,95 -20,-1 -39,-2 -59,-3 9,-32 16,-65 16,-91 0,-57 -5,-103 -16,-141 8,-1 15,-2 22,-4zm-416 22c17,-4 34,-8 48,-12 0,0 1,0 2,-1 -10,26 -21,66 -21,113 0,7 0,14 1,20 2,33 10,63 21,94 -19,1 -37,2 -55,3 10,-34 17,-69 17,-96 0,-48 -4,-88 -12,-122zm-3735 3066c62,-83 183,-386 200,-540 0,-1 2,-22 5,-54 76,-81 236,-346 279,-486 1,-2 18,-61 38,-139 94,-75 290,-306 352,-435 1,-1 14,-28 32,-70 104,-55 349,-260 436,-382 1,-1 34,-49 76,-113 103,-27 386,-189 495,-299 1,-1 28,-29 65,-71 103,-11 408,-130 531,-222 1,-1 17,-13 43,-34 111,0 415,-63 546,-128 2,-1 57,-28 128,-67 34,5 83,7 138,7 -4,20 -7,42 -7,66 0,7 0,14 1,21 4,46 15,85 36,128 -1,2 -1,4 -2,6 -1684,259 -3007,1614 -3219,3313 -43,5 -85,13 -120,26 -36,-17 -69,-28 -105,-33 35,-132 65,-299 61,-399 0,-1 -2,-40 -7,-96zm1785 -314l1256 3977c-1109,-387 -1904,-1442 -1904,-2682 0,-608 192,-1172 518,-1634l17 391 113 -52zm-1855 1187c56,-2 146,-32 183,-52 10,3 21,6 32,9 -1,26 -2,53 -2,79 -33,5 -64,12 -91,22 -41,-20 -78,-31 -120,-35 0,-8 -1,-16 -1,-23zm21 402c55,-7 129,-33 162,-50 12,4 25,7 38,11 2,25 4,50 6,75 -38,5 -74,13 -105,24 -33,-16 -63,-26 -96,-32 -1,-9 -3,-19 -4,-27zm3441 3715c-105,-22 -215,-38 -288,-35 -1,0 -40,2 -96,7 -83,-62 -386,-183 -540,-200 -1,0 -22,-2 -54,-4 -81,-76 -346,-236 -486,-279 -2,-1 -61,-18 -139,-38 -75,-93 -306,-289 -435,-352 -1,-1 -29,-14 -70,-32 -55,-104 -260,-349 -381,-436 -1,-1 -49,-34 -113,-76 -27,-103 -189,-386 -299,-495 -1,-1 -29,-28 -71,-65 -11,-103 -130,-407 -222,-531 -1,-1 -13,-17 -34,-43 0,-111 -64,-415 -128,-546 -1,-2 -28,-57 -67,-128 3,-18 4,-39 5,-64 51,-10 110,-32 138,-46 27,9 56,16 87,22 282,1601 1556,2859 3164,3118 3,74 11,152 32,212 -2,3 -3,7 -4,10zm382 59c-10,2 -22,5 -37,8 -10,-51 -32,-110 -47,-139 11,-33 20,-71 26,-111 18,1 35,2 53,3 4,60 13,121 30,169 -12,24 -20,46 -26,69zm409 -20c-4,1 -9,2 -12,3 0,0 -4,1 -9,3 -9,-1 -18,-1 -27,-2 -11,-45 -29,-91 -41,-116 10,-32 19,-67 25,-104 18,-1 36,-1 54,-2 4,60 13,120 30,168 -8,17 -14,33 -20,49zm-205 -1208c-210,0 -414,-23 -612,-67l1 -2 -1371 -4165 101 -47 -309 -371c521,-630 1308,-1031 2190,-1031 1569,0 2841,1272 2841,2841 0,321 -54,629 -152,917 -536,-859 -777,-1831 -736,-2967l-13 -10c-481,161 -797,318 -1126,492 2,-30 5,-62 5,-96 0,-176 -59,-386 -464,-420 -546,-49 -1291,212 -2277,800l-3 15c352,467 880,2249 987,3018l16 7c290,-227 606,-410 848,-493l0 1c-8,80 -19,186 -19,296 0,190 33,394 169,505 125,102 319,112 579,31 322,-100 629,-297 954,-505 330,-211 670,-428 1032,-541 -418,1049 -1442,1791 -2640,1791zm3975 -1866c-62,83 -183,386 -200,540 0,1 -2,22 -4,54 -76,82 -236,346 -279,486 -1,2 -18,61 -38,139 -94,75 -290,306 -352,435 -1,1 -14,28 -32,70 -104,55 -349,260 -436,382 -1,1 -34,49 -76,113 -103,27 -386,189 -495,299 -1,1 -28,29 -65,71 -103,11 -407,130 -531,222 -1,1 -17,13 -43,34 -112,0 -414,64 -546,128 -2,1 -57,28 -128,67 -47,-7 -122,-9 -204,-6 -9,-28 -20,-53 -28,-69 14,-42 24,-89 31,-141 1643,-236 2950,-1513 3231,-3141 10,-3 19,-5 29,-8 35,18 118,47 174,51 -11,68 -17,132 -15,180 0,1 2,40 7,96zm106 -651c-24,-5 -52,-8 -83,-6 -46,3 -85,15 -128,36 -15,-6 -32,-10 -49,-14 3,-29 5,-58 7,-87 45,19 121,43 169,43 32,0 59,-2 84,-5 2,7 4,14 5,21 -2,3 -4,7 -5,11z"/>
  <path class="fil2" d="M8397 13326c35,-83 69,-161 167,-251 167,-153 387,-168 389,-168l4 0 4 -2c9,-4 15,-6 20,-7 -10,53 -169,255 -289,376 -99,100 -323,225 -430,271 72,-77 106,-149 136,-220z"/>
  <path class="fil2" d="M7833 13795c23,-92 44,-179 128,-282 143,-176 358,-224 360,-224l4 -1 3 -2c9,-5 14,-8 19,-10 -5,55 -127,270 -230,415 -84,118 -279,275 -380,343 56,-85 78,-163 96,-239z"/>
  <path class="fil2" d="M7387 14294c5,-91 9,-177 74,-293 110,-198 314,-282 316,-283l4 -1 3 -3c8,-7 13,-11 17,-13 0,2 1,3 1,5 0,64 -82,292 -156,444 -59,123 -223,311 -309,394 41,-94 48,-173 52,-249z"/>
  <path class="fil2" d="M7036 15033c0,-44 -5,-84 -11,-124 -5,-40 -10,-79 -10,-121 0,-52 8,-109 34,-177 80,-212 268,-326 270,-327l3 -2 2 -3c6,-8 10,-11 14,-14 2,6 3,11 3,22 0,82 -43,292 -89,443 -40,130 -164,330 -234,426 11,-44 18,-86 18,-123z"/>
  <path class="fil2" d="M6806 15706c0,-81 -18,-144 -36,-206 -18,-62 -35,-122 -35,-200 0,-30 2,-62 8,-98 36,-224 198,-373 200,-374l3 -3 2 -3c5,-9 8,-13 11,-17 14,26 21,116 21,221 0,85 -4,178 -13,252 -15,139 -111,374 -165,476 1,-16 4,-34 4,-49z"/>
  <path class="fil2" d="M9614 12652c11,-3 16,-3 20,-3 -18,52 -204,227 -341,329 -112,83 -349,173 -461,204 82,-65 125,-132 164,-197 46,-76 90,-149 200,-223 188,-126 408,-109 410,-109l4 0 4 -1z"/>
  <path class="fil2" d="M12080 12775c86,-24 167,-48 298,-27 224,36 373,198 374,200l3 3 3 2c9,5 14,8 17,11 -47,25 -304,27 -473,8 -138,-15 -374,-111 -476,-165 105,9 182,-11 255,-32z"/>
  <path class="fil2" d="M12670 13030c90,-12 175,-23 299,23 212,80 326,268 327,270l2 3 3 2c7,6 11,10 14,14 -51,14 -294,-34 -465,-86 -130,-40 -330,-164 -426,-234 96,24 173,17 247,7z"/>
  <path class="fil2" d="M13430 13649c-123,-59 -311,-223 -394,-309 94,41 173,48 249,52 91,5 178,9 293,74 198,110 282,314 283,316l1 4 3 3c7,8 11,13 13,17 -55,5 -292,-79 -448,-155z"/>
  <path class="fil2" d="M13888 14121c-118,-84 -275,-279 -343,-379 85,56 163,78 239,96 92,23 179,44 282,128 176,143 224,358 224,360l1 4 2 3c6,9 8,14 10,19 -54,-5 -270,-127 -415,-230z"/>
  <path class="fil2" d="M14306 14696c-100,-99 -225,-323 -271,-430 77,72 149,106 220,136 83,35 161,69 251,167 153,167 168,387 169,389l0 4 1 4c4,9 6,15 7,20 -53,-10 -255,-169 -376,-289z"/>
  <path class="fil2" d="M14602 15297c-83,-112 -173,-349 -204,-461 65,82 132,125 197,164 76,46 149,90 223,200 99,147 110,314 110,381 0,18 -1,29 -1,29l0 4 1 4c3,11 3,16 3,20 -52,-18 -227,-204 -329,-341z"/>
  <path class="fil2" d="M14768 15893c-60,-122 -105,-351 -119,-470 48,86 106,137 163,184 70,58 137,112 187,234 36,87 46,174 46,247 0,102 -21,175 -21,176l-1 4 0 4c0,4 0,8 0,11 0,5 0,7 -1,9 -45,-29 -176,-239 -255,-399z"/>
  <path class="fil2" d="M14595 18577c0,-85 4,-179 13,-255 15,-139 111,-374 165,-476 -1,16 -4,34 -4,48 0,81 18,144 35,206 18,62 35,122 35,200 0,30 -2,62 -8,98 -36,224 -198,373 -200,374l-3 3 -2 3c-5,9 -8,14 -11,17 -14,-26 -21,-114 -21,-219z"/>
  <path class="fil2" d="M14234 19313c0,-82 43,-292 89,-443 40,-130 164,-330 234,-426 -11,44 -18,86 -18,123 0,44 5,85 11,124 5,40 11,79 11,121 0,52 -8,109 -34,177 -80,212 -269,326 -270,327l-3 2 -2 3c-6,7 -10,11 -13,14 -2,-6 -3,-11 -3,-22z"/>
  <path class="fil2" d="M13775 19895c0,-64 82,-292 156,-444 62,-128 224,-310 309,-392 -41,93 -47,172 -51,248 -5,91 -9,178 -74,293 -110,198 -314,282 -316,283l-4 1 -3 3c-8,7 -13,11 -17,13 0,-2 -1,-3 -1,-5z"/>
  <path class="fil2" d="M13459 19909c84,-118 279,-275 379,-343 -56,85 -78,163 -96,239 -23,92 -44,179 -128,282 -143,176 -358,224 -360,224l-4 1 -3 2c-9,6 -14,8 -19,10 5,-55 127,-270 230,-415z"/>
  <path class="fil2" d="M12884 20326c99,-100 323,-225 430,-271 -72,77 -106,149 -136,220 -35,83 -69,161 -167,251 -167,153 -387,168 -389,168l-4 0 -4 2c-9,4 -15,6 -20,7 10,-53 169,-255 289,-376z"/>
  <path class="fil2" d="M12282 20623c112,-83 349,-173 461,-204 -82,65 -125,132 -165,197 -46,76 -90,149 -200,222 -188,126 -407,109 -410,109l-4 0 -4 1c-11,3 -16,3 -20,3 19,-51 206,-228 341,-329z"/>
  <path class="fil2" d="M9274 20629c139,15 374,111 476,165 -105,-9 -182,11 -255,32 -86,24 -167,47 -298,27 -224,-36 -373,-198 -374,-200l-3 -3 -3 -2c-9,-5 -13,-8 -17,-11 47,-25 306,-27 473,-8z"/>
  <path class="fil2" d="M8726 20344c130,40 330,164 426,234 -96,-24 -173,-17 -247,-7 -90,12 -175,23 -299,-23 -212,-80 -326,-269 -327,-270l-2 -3 -3 -2c-7,-6 -11,-10 -14,-14 51,-14 294,34 465,86z"/>
  <path class="fil2" d="M8145 19951c123,59 311,223 394,309 -94,-41 -173,-48 -249,-52 -91,-5 -178,-9 -293,-74 -198,-110 -282,-314 -283,-316l-1 -4 -3 -3c-7,-8 -11,-13 -13,-17 55,-5 292,79 448,155z"/>
  <path class="fil2" d="M7791 19763c-92,-23 -179,-44 -282,-128 -176,-143 -224,-358 -224,-360l-1 -4 -2 -3c-6,-9 -8,-14 -10,-19 55,5 270,127 415,230 118,84 275,279 343,379 -85,-56 -163,-78 -239,-96z"/>
  <path class="fil2" d="M7322 19199c-83,-35 -161,-69 -251,-167 -153,-167 -168,-387 -168,-389l0 -4 -2 -4c-4,-9 -6,-15 -7,-20 53,10 255,169 376,289 100,99 225,323 271,430 -77,-72 -149,-105 -220,-135z"/>
  <path class="fil2" d="M6980 18599c-76,-46 -149,-90 -223,-200 -99,-148 -110,-314 -110,-381 0,-18 1,-29 1,-29l0 -4 -1 -4c-3,-11 -3,-16 -3,-20 51,19 228,206 329,341 83,112 173,349 204,461 -65,-82 -132,-125 -197,-164z"/>
  <path class="fil2" d="M10191 21061l0 0c-2,-5 -4,-10 -5,-16 -6,4 -11,7 -14,10 4,2 10,3 20,5z"/>
  <path class="fil2" d="M10173 20982c-1,-10 -2,-20 -2,-31 0,-7 0,-13 1,-20 2,-27 7,-52 15,-76 -96,-20 -198,-35 -270,-33 -170,7 -424,46 -467,78 4,2 9,5 19,8l4 1 3 2c2,1 173,140 400,142 133,1 210,-33 293,-69 2,-1 4,-2 6,-3z"/>
  <path class="fil2" d="M10385 20862c-95,34 -183,365 -173,521 4,70 40,201 142,194 31,-2 56,-25 71,-43 44,-53 68,-140 59,-217 -4,-32 -14,-58 -25,-85l-9 -26c-38,55 -78,101 -107,126l-35 -40c68,-59 196,-236 196,-363 0,-30 -10,-78 -22,-117 -7,-21 -14,-38 -21,-50 -20,33 -42,65 -67,93l-11 7z"/>
  <path class="fil2" d="M11359 20923c38,-26 81,-49 135,-68 -38,-2 -89,-3 -146,-1 6,25 11,49 11,69z"/>
  <path class="fil2" d="M10586 21094l3 2c0,0 4,2 10,4 2,-5 3,-10 5,-14 -2,-5 -5,-12 -9,-21 -16,10 -28,18 -33,25 4,1 10,2 20,3l4 0z"/>
  <path class="fil2" d="M10977 20951c0,-7 0,-13 1,-20 1,-10 2,-19 4,-29 -9,3 -17,6 -26,9 1,6 1,13 1,18 0,102 -17,167 -55,220 29,-2 59,-5 90,-11 5,-18 10,-36 16,-52 -9,-19 -31,-70 -31,-135z"/>
  <path class="fil2" d="M10587 21142c-6,-2 -10,-4 -13,-5 -15,-1 -43,-5 -55,-22 -6,12 -13,24 -21,34 28,2 58,1 88,-1 0,-2 1,-4 1,-5z"/>
  <path class="fil2" d="M10583 21022c-5,-21 -9,-45 -9,-71 0,-7 0,-13 1,-20 0,-4 1,-8 1,-12 -8,2 -15,3 -23,5 0,2 0,3 0,5 0,48 -4,88 -12,122 11,-9 25,-19 41,-29z"/>
  <path class="fil2" d="M10791 20862c-95,34 -183,365 -173,521 4,70 40,201 142,194 31,-2 56,-25 71,-43 44,-53 68,-140 59,-217 -4,-32 -14,-58 -25,-85l-9 -26c-38,55 -78,101 -107,126l-35 -40c68,-59 196,-236 196,-363 0,-30 -10,-78 -22,-117 -7,-21 -14,-38 -21,-50 -20,33 -42,65 -67,93l-11 7z"/>
  <path class="fil2" d="M11192 20862c-95,34 -183,365 -173,521 4,70 40,201 142,194 31,-2 56,-25 71,-43 44,-53 68,-140 59,-217 -4,-32 -14,-58 -25,-85l-9 -26c-38,55 -78,101 -107,126l-35 -40c68,-59 196,-236 196,-363 0,-30 -10,-78 -22,-117 -7,-21 -14,-38 -21,-50 -20,33 -42,65 -67,93l-11 7z"/>
  <path class="fil2" d="M11687 20788c-112,55 -247,135 -329,193 -2,26 -5,49 -10,70 67,13 230,34 391,-32 122,-50 176,-117 234,-187 47,-57 98,-115 184,-163 -119,14 -347,59 -470,119z"/>
  <path class="fil2" d="M6694 17502c-69,-4 -120,-17 -162,-43 -1,17 -2,35 -2,54 0,73 11,160 46,247 50,122 117,176 187,234 57,47 115,98 163,184 -15,-119 -59,-347 -119,-470 -32,-66 -73,-140 -113,-206z"/>
  <path class="fil2" d="M6737 17503c2,4 3,8 5,12 0,-4 0,-8 1,-12 -2,0 -4,0 -5,0z"/>
  <path class="fil2" d="M6501 17033c-7,2 -22,8 -35,12 8,31 18,58 29,83 30,6 59,13 84,23 19,-9 75,-32 142,-30 -1,-8 -3,-14 -4,-22 -101,-2 -164,-22 -216,-66z"/>
  <path class="fil2" d="M6501 16630c-2,1 -6,2 -9,3 -7,19 -17,48 -26,86 41,6 81,15 113,29 4,-2 9,-4 15,-7 -12,-28 -24,-53 -36,-75 -21,-10 -40,-21 -58,-36z"/>
  <path class="fil2" d="M6579 16344c6,-3 17,-8 30,-12 -26,-78 -51,-139 -68,-157 -2,4 -3,10 -5,19l-1 4 -2 3c-1,1 -27,46 -50,117 34,6 68,14 97,26z"/>
  <path class="fil2" d="M6618 16685c6,14 13,27 19,41 18,-4 38,-8 61,-9 0,-8 -1,-15 -2,-22 -29,-1 -55,-5 -78,-10z"/>
  <path class="fil2" d="M6664 16318c15,-2 31,-4 48,-4 31,-116 63,-270 63,-375 0,-6 0,-12 0,-18 -7,-170 -46,-424 -78,-467 -2,4 -5,9 -8,19l-1 4 -2 3c-1,2 -140,173 -142,399 0,3 0,5 0,8 0,128 34,204 70,285 20,45 39,92 53,147z"/>
  <path class="fil2" d="M6803 16528c-34,-95 -365,-183 -521,-173 -70,4 -201,40 -195,142 2,31 25,56 43,71 53,44 140,68 217,59 32,-4 58,-14 85,-25l27 -9c-55,-38 -101,-78 -126,-107l40 -34c59,68 235,196 363,196 30,0 76,-10 115,-21 21,-7 39,-15 52,-21 -33,-20 -65,-42 -92,-67l-7 -11z"/>
  <path class="fil2" d="M6803 16931c-34,-95 -365,-183 -521,-173 -70,4 -201,40 -195,142 2,31 25,56 43,71 53,44 140,68 217,59 32,-4 58,-14 85,-25l27 -9c-55,-38 -101,-78 -126,-107l40 -34c59,68 235,196 363,196 30,0 76,-10 115,-21 21,-7 39,-15 52,-21 -33,-20 -65,-42 -92,-67l-7 -11z"/>
  <path class="fil2" d="M6803 17335c-34,-95 -365,-183 -521,-173 -70,4 -201,40 -195,142 2,31 25,56 43,71 53,44 140,68 217,59 32,-4 58,-14 85,-25l27 -9c-55,-38 -101,-78 -126,-107l40 -34c59,68 235,196 363,196 30,0 76,-10 115,-21 21,-7 39,-15 52,-21 -33,-20 -65,-42 -92,-67l-7 -11z"/>
  <path class="fil2" d="M14943 16344c14,-6 30,-11 45,-15 -7,-9 -14,-17 -22,-26 -49,-59 -99,-121 -132,-218 -1,23 -2,51 -2,83 0,45 2,95 5,147 51,5 90,22 106,29z"/>
  <path class="fil2" d="M14943 16747c53,-21 123,-32 187,-36 0,-14 -1,-29 -2,-44 -21,-6 -39,-13 -56,-20 0,0 -39,-13 -51,-17 -31,26 -66,44 -111,54 7,20 15,39 22,59 4,2 8,3 11,5z"/>
  <path class="fil2" d="M14879 16725c-1,-2 -1,-4 -2,-6 0,2 0,3 0,5 1,0 1,0 2,1z"/>
  <path class="fil2" d="M14943 17151c52,-21 121,-32 185,-36 1,-14 2,-29 2,-44 -12,-3 -23,-7 -34,-11 -5,4 -11,7 -18,8 -15,2 -32,-11 -50,-32 -2,-1 -4,-1 -6,-2 -30,26 -65,43 -107,53 5,20 10,39 16,59 5,2 10,4 13,6z"/>
  <path class="fil2" d="M14816 17502c-9,58 -15,113 -15,160 0,6 0,12 0,18 7,170 46,424 78,467 2,-4 5,-9 8,-19l1 -4 2 -3c1,-2 140,-173 142,-400 0,-3 0,-5 0,-8 0,-109 -25,-181 -54,-250 -42,23 -93,35 -163,37z"/>
  <path class="fil2" d="M15149 16451l40 35c-25,29 -70,69 -126,107l27 9c27,11 52,21 85,25 76,9 163,-15 217,-59 19,-16 41,-41 43,-71 6,-102 -124,-137 -194,-142 -156,-10 -488,78 -521,173l-7 11c-28,25 -59,47 -92,67 12,6 30,13 51,21 39,11 86,21 116,21 128,0 304,-128 363,-196z"/>
  <path class="fil2" d="M15149 16855l40 35c-25,29 -70,69 -126,107l27 9c27,11 52,21 85,25 76,9 163,-15 217,-59 19,-16 41,-41 43,-71 6,-102 -124,-137 -194,-142 -156,-10 -488,78 -521,173l-7 11c-28,25 -59,47 -92,67 12,6 30,13 51,21 39,11 86,21 116,21 128,0 304,-128 363,-196z"/>
  <path class="fil2" d="M15149 17258l40 35c-25,29 -70,69 -126,107l27 9c27,11 52,21 85,25 76,9 163,-15 217,-59 19,-16 41,-41 43,-71 6,-102 -124,-137 -194,-142 -156,-10 -488,78 -521,173l-7 11c-28,25 -59,47 -92,67 12,6 30,14 51,21 39,11 86,21 116,21 128,0 304,-128 363,-196z"/>
  <path class="fil2" d="M11311 12591c46,-17 80,-34 93,-46 -4,-2 -10,-3 -20,-5l-4 -1 -3 -2c-1,0 -16,-9 -42,-21 -6,29 -15,53 -24,75z"/>
  <path class="fil2" d="M12108 12692l-4 -1 -3 -2c-2,-1 -173,-140 -399,-142 -133,-1 -210,33 -293,70 -33,15 -68,29 -106,41 17,23 30,49 40,79 109,26 232,46 317,43 170,-7 424,-46 467,-78 -4,-2 -9,-5 -19,-8z"/>
  <path class="fil2" d="M10936 12496c-5,39 -17,70 -29,97 0,0 -13,39 -17,51 14,16 25,34 34,52 10,-1 20,-3 30,-5 13,-3 27,-6 41,-9 -20,-69 -26,-152 -26,-212 0,-6 0,-11 0,-16 -3,0 -5,0 -8,1 -8,1 -16,3 -24,4 0,12 -1,25 -2,37z"/>
  <path class="fil2" d="M10160 12539c-82,-8 -203,-7 -324,42 -122,50 -176,117 -234,187 -47,57 -98,116 -184,163 119,-14 347,-59 470,-119 94,-46 205,-110 287,-164 -8,-36 -12,-74 -15,-109z"/>
  <path class="fil2" d="M10521 12688c24,3 48,6 74,8 -8,-25 -14,-54 -19,-82 -26,12 -53,24 -82,34 10,13 19,26 27,40z"/>
  <path class="fil2" d="M10537 12496c-5,40 -18,71 -29,99 0,0 0,1 -1,2 22,-9 43,-19 64,-29 -4,-34 -5,-68 -5,-98 0,-1 0,-2 0,-3 -1,0 -1,0 -2,0 -9,2 -17,5 -26,7 0,7 0,15 -1,22z"/>
  <path class="fil2" d="M10196 12722c-3,-8 -6,-17 -9,-26 -31,19 -65,36 -106,50 29,2 65,2 105,2 4,-11 8,-19 10,-25z"/>
  <path class="fil2" d="M10250 12994l5 9 0 1c34,-5 69,-9 103,-13 -52,-25 -95,-96 -128,-183 -5,23 -9,48 -10,69 0,14 1,28 2,41 6,25 14,50 28,77z"/>
  <path class="fil2" d="M10643 12970c28,-1 56,-2 84,-2 -37,-34 -69,-92 -94,-160 -5,23 -9,48 -10,69 0,14 1,28 2,41 4,17 10,35 17,52z"/>
  <path class="fil2" d="M11049 12975c34,2 69,5 103,8 -47,-30 -86,-96 -116,-176 -5,23 -9,48 -10,69 0,14 1,28 2,41 4,19 11,38 20,58z"/>
  <path class="fil2" d="M14789 16363c-14,0 -28,1 -42,2 -25,6 -49,14 -76,28l-9 5 -9 -4c-3,-1 -6,-2 -10,-3 -13,5 -26,11 -38,16 5,46 8,92 11,138 20,-13 39,-28 57,-43 24,-53 96,-96 184,-129 -23,-5 -48,-9 -68,-10z"/>
  <path class="fil2" d="M14789 16766c-14,0 -28,1 -42,2 -25,6 -49,14 -76,28l-9 5 -9 -4c-3,-1 -6,-2 -10,-3 -6,2 -12,5 -18,7 0,1 0,1 0,1 0,47 -1,94 -3,141 18,-12 35,-25 51,-39 24,-53 96,-96 184,-129 -23,-5 -48,-9 -68,-10z"/>
  <path class="fil2" d="M14789 17170c-14,0 -28,1 -42,2 -25,6 -49,14 -76,28l-9 5 -9 -4c-3,-1 -6,-2 -10,-3 -14,5 -27,11 -40,17 -6,53 -12,105 -20,157 32,-18 63,-40 90,-64 24,-53 96,-96 184,-129 -23,-5 -48,-9 -68,-10z"/>
  <path class="fil2" d="M11035 20702c16,-29 34,-54 52,-75 -19,2 -39,3 -59,4 2,24 4,48 7,71z"/>
  <path class="fil2" d="M11135 20624l14 18c-31,23 -68,78 -94,144 1,3 2,7 3,10l4 9 -5 9c-14,27 -23,51 -28,77 -1,14 -2,28 -2,41 0,20 4,45 10,68 33,-88 77,-160 130,-184 28,-31 82,-103 113,-208 -48,6 -96,11 -145,15z"/>
  <path class="fil2" d="M10677 20638c-17,0 -33,-1 -50,-2 2,23 4,45 7,67 13,-25 28,-46 43,-65z"/>
  <path class="fil2" d="M10789 20639c-15,0 -30,0 -44,-1l2 3c-31,23 -68,78 -94,144 1,3 2,7 3,10l4 9 -5 9c-14,27 -23,51 -28,77 -1,14 -2,28 -2,41 0,20 4,45 10,68 33,-88 77,-160 130,-184 25,-28 72,-89 104,-178 -26,1 -53,1 -79,1z"/>
  <path class="fil2" d="M10229 20702c22,-40 47,-72 71,-94 -27,-3 -54,-7 -80,-11 1,35 4,71 9,105z"/>
  <path class="fil2" d="M10318 20611l23 32c-31,23 -68,78 -94,144 1,3 2,7 3,10l4 9 -5 9c-14,27 -23,51 -28,77 -2,14 -3,28 -2,41 0,20 4,45 10,68 33,-88 77,-160 130,-184 26,-30 76,-95 108,-190 -50,-4 -100,-9 -149,-15z"/>
  <path class="fil2" d="M6971 17177c-3,0 -6,1 -8,1 3,2 6,4 9,5 0,-2 0,-4 -1,-6z"/>
  <path class="fil2" d="M6979 17251c-27,-19 -61,-38 -100,-53 -3,1 -7,2 -10,3l-9 4 -9 -5c-27,-14 -51,-23 -76,-28 -14,-2 -28,-3 -42,-2 -21,0 -45,5 -69,10 88,33 160,77 184,129 43,38 95,70 151,93 -8,-50 -15,-100 -20,-151z"/>
  <path class="fil2" d="M6953 16830c-22,-13 -47,-26 -74,-36 -3,1 -7,2 -10,3l-9 4 -9 -5c-27,-14 -51,-23 -76,-28 -14,-2 -28,-2 -42,-2 -21,0 -45,4 -69,10 88,33 160,77 184,129 32,28 69,53 108,73 -2,-49 -3,-99 -4,-148z"/>
  <path class="fil2" d="M6977 16370c-5,1 -10,1 -15,2 5,3 9,5 13,8 0,-3 1,-7 1,-10z"/>
  <path class="fil2" d="M6970 16438c-25,-17 -57,-34 -91,-47 -3,1 -7,2 -10,3l-9 4 -9 -5c-27,-14 -51,-23 -76,-28 -14,-2 -28,-3 -42,-2 -21,0 -45,4 -69,10 88,33 160,77 184,129 33,29 70,54 111,75 3,-47 6,-93 11,-139z"/>
  <path class="fil2" d="M10385 12946l11 7c9,10 17,20 25,31 22,-2 45,-4 67,-6 9,-35 17,-73 17,-99 0,-128 -128,-304 -196,-363l35 -40c29,25 69,71 107,126l9 -27c11,-27 21,-52 25,-85 9,-76 -15,-163 -59,-217 -16,-19 -41,-41 -71,-43 -102,-6 -137,124 -142,194 -10,156 78,488 173,521z"/>
  <path class="fil2" d="M10788 12946l11 7c4,4 7,9 11,13 28,0 56,0 84,1 8,-32 14,-65 14,-89 0,-128 -128,-304 -196,-363l35 -40c29,25 69,71 107,126l9 -27c11,-27 21,-52 25,-85 9,-76 -15,-163 -59,-217 -16,-19 -41,-41 -71,-43 -102,-6 -137,124 -142,194 -10,156 78,488 173,521z"/>
  <path class="fil2" d="M11192 12946l11 7c11,12 21,25 31,39 18,2 37,4 55,7 1,-2 2,-4 2,-7 11,-38 21,-84 21,-113 0,-128 -128,-304 -196,-363l35 -40c29,25 69,71 107,126l9 -27c11,-27 21,-52 25,-85 9,-76 -15,-163 -59,-217 -16,-19 -41,-41 -71,-43 -102,-6 -137,124 -142,194 -10,156 78,488 173,521z"/>
  <polygon class="fil2" points="12538,19745 12311,19701 12519,19593 12494,19350 12678,19511 12885,19403 12784,19618 12956,19787 12708,19762 12584,19979 "/>
  <polygon class="fil2" points="9217,19788 9444,19744 9236,19635 9262,19392 9077,19553 8871,19447 8971,19661 8800,19829 9047,19805 9171,20021 "/>
  <path class="fil2" d="M8534 19111c19,-19 74,-73 -5,-157 -11,-12 -71,-76 -126,-24 -23,22 -29,46 -6,88l86 155c24,44 87,157 -16,252 -79,74 -211,80 -355,-74 -187,-201 -91,-306 -40,-355l135 144c-15,14 -68,62 -5,131 38,41 85,47 114,20 36,-33 16,-73 2,-99l-66 -118c-47,-84 -102,-184 2,-281 109,-102 249,-49 369,80 50,53 122,147 115,241 -4,74 -52,120 -72,140l-133 -143z"/>
  <polygon class="fil2" points="8248,18656 8153,18514 8267,18437 8362,18580 "/>
  <path class="fil2" d="M7591 18119c-58,35 -61,91 -38,141 48,107 156,99 268,49 37,-16 191,-86 130,-223 -42,-94 -111,-75 -137,-68l-82 -185c192,-84 298,113 336,197 28,62 66,177 27,279 -40,102 -132,157 -195,186 -84,37 -177,54 -269,23 -100,-34 -156,-110 -198,-204 -46,-104 -58,-193 -29,-267 30,-75 84,-100 107,-111l81 183z"/>
  <polygon class="fil2" points="7787,17698 7745,17532 7879,17498 7921,17664 "/>
  <path class="fil2" d="M7347 16787c-67,10 -91,60 -90,116 3,118 106,151 228,148 41,-1 209,-6 206,-156 -2,-103 -74,-112 -100,-115l-5 -202c209,-4 232,219 234,311 2,68 -7,189 -83,268 -76,79 -182,95 -252,96 -92,2 -184,-18 -257,-83 -79,-70 -102,-162 -104,-264 -3,-114 21,-201 76,-257 56,-58 116,-60 141,-62l5 200z"/>
  <path class="fil2" d="M7517 16283c-112,-25 -208,-82 -180,-207 9,-42 30,-84 72,-104 34,-14 84,-27 175,-7 90,20 205,69 175,205 -28,126 -138,136 -242,113zm-42 196c243,54 376,-95 417,-278 36,-163 -1,-374 -261,-432 -159,-35 -363,-2 -423,271 -11,50 -33,183 31,288 64,105 193,141 236,150z"/>
  <path class="fil2" d="M7582 15364l32 -65c25,-51 58,-119 132,-82 19,9 53,36 46,80 -2,17 -12,36 -31,75l-32 65 -147 -72zm404 415l86 -175 -234 -115 36 -73c39,-79 66,-68 143,-41 56,20 104,38 146,45l93 -189c-50,-6 -119,-29 -162,-43 -99,-31 -154,-50 -217,71l-3 -2c6,-19 21,-59 16,-111 -3,-38 -17,-80 -83,-112 -65,-32 -110,-24 -138,-13 -55,20 -83,59 -138,173l-143 292 600 294z"/>
  <polygon class="fil2" points="7755,14803 7871,14640 8416,15027 8300,15190 "/>
  <polygon class="fil2" points="8886,13870 8703,13981 8634,13868 9172,13542 9240,13655 9054,13768 9332,14226 9164,14328 "/>
  <polygon class="fil2" points="9339,13463 9526,13401 9609,13648 9831,13574 9748,13326 9935,13264 10147,13897 9960,13960 9874,13704 9651,13779 9737,14035 9552,14097 "/>
  <polygon class="fil2" points="10140,13232 10338,13201 10440,13862 10242,13893 "/>
  <path class="fil2" d="M10783 13582l104 -278 3 0 83 283 -191 -5zm-294 250l194 5 51 -133 281 7 45 136 220 6 -259 -675 -237 -6 -294 661z"/>
  <polygon class="fil2" points="11498,13223 11756,13297 11846,13841 11982,13362 12145,13409 11960,14052 11708,13979 11619,13413 11477,13912 11313,13865 "/>
  <path class="fil2" d="M12300 13995c-12,24 -49,91 51,149 14,8 90,52 128,-14 16,-27 14,-53 -20,-86l-128 -122c-36,-35 -129,-124 -60,-246 54,-94 178,-139 360,-35 238,136 178,265 143,327l-171 -98c10,-18 47,-80 -34,-126 -49,-28 -95,-19 -115,15 -24,43 7,74 28,95l98 93c69,66 152,146 81,269 -74,129 -224,120 -376,33 -63,-36 -160,-104 -181,-196 -18,-72 14,-130 27,-155l170 97z"/>
  <path class="fil2" d="M13394 14420l57 64c37,42 80,97 19,151 -67,60 -118,2 -150,-33l-58 -65 131 -117zm-536 216l130 146 180 -160 85 94c25,28 82,91 139,113 28,11 119,36 207,-42 65,-58 83,-128 69,-195 -13,-66 -60,-119 -96,-159l-215 -241 -499 445z"/>
  <path class="fil2" d="M13580 15132l292 -55 1 3 -199 218 -94 -165zm-366 -122l96 169 140 -25 139 244 -92 109 109 191 443 -572 -118 -206 -718 91z"/>
  <path class="fil2" d="M14292 15694l-382 109c-35,10 -70,23 -91,49 -28,35 -33,84 -20,130 34,119 130,108 194,90l376 -108 52 182 -372 107c-71,20 -151,32 -211,4 -95,-43 -145,-160 -169,-245 -91,-319 97,-374 202,-404l366 -104 54 189z"/>
  <polygon class="fil2" points="14452,16391 14463,16588 13927,16619 13946,16934 13815,16941 13785,16430 "/>
  <polygon class="fil2" points="14468,17049 14451,17248 13785,17192 13801,16992 "/>
  <path class="fil2" d="M13947 17516c-26,-6 -101,-23 -130,90 -4,16 -25,101 48,119 30,8 54,0 78,-42l83 -156c23,-44 85,-158 220,-124 105,27 182,134 131,338 -67,266 -207,242 -277,226l48 -191c20,5 90,24 112,-67 14,-55 -7,-97 -46,-107 -48,-12 -70,27 -84,52l-64 119c-45,85 -99,185 -237,151 -145,-37 -176,-183 -133,-353 18,-71 57,-182 140,-228 65,-37 129,-22 157,-16l-48 189z"/>
  <polygon class="fil2" points="14025,18302 14119,18110 14238,18168 13962,18733 13843,18674 13939,18478 13457,18242 13544,18066 "/>
  <path class="fil2" d="M13463 18723l164 247 -2 2 -278 -98 115 -152zm-30 -385l-118 155 78 119 -170 224 -136 -43 -133 175 700 184 144 -189 -364 -625z"/>
  <path class="fil2" d="M9917 19874c-60,27 -146,36 -179,36l36 -138c81,-3 129,-11 214,-51l152 39 -161 622 -182 -47 119 -462z"/>
  <path class="fil2" d="M10529 20116c-77,-5 -99,-61 -96,-109 4,-55 40,-97 112,-93 82,6 101,66 98,109 -4,57 -41,97 -114,92zm-285 158c0,27 0,71 34,110 52,59 130,81 216,87 83,6 172,-4 240,-75 64,-67 84,-163 90,-237 5,-66 -1,-134 -23,-196 -21,-56 -68,-152 -247,-165 -170,-12 -287,73 -296,203 -4,58 15,112 51,152 33,37 77,64 168,70 81,6 126,-21 162,-55 -10,114 -28,195 -131,188 -54,-4 -86,-34 -85,-70l-179 -12z"/>
  <path class="fil2" d="M11135 19972c-46,47 -122,87 -153,100l-18 -141c74,-33 116,-59 180,-126l156 -20 80 637 -186 23 -60 -473z"/>
  <path class="fil2" d="M11704 20020c-59,-185 -20,-221 32,-237 59,-19 87,17 100,37 27,41 53,112 62,142 4,13 36,115 24,171 -7,27 -31,50 -60,59 -76,24 -117,-42 -159,-172zm-182 55c19,61 64,167 159,222 65,38 146,35 220,12 206,-65 232,-235 176,-410 -39,-122 -94,-181 -152,-216 -38,-25 -108,-53 -230,-14 -58,18 -137,58 -173,141 -43,97 -19,208 0,266z"/>
  <path class="fil2" d="M11956 18106c-371,228 -692,424 -1084,545 97,141 254,116 301,104 317,-99 629,-297 960,-506 352,-223 717,-453 1153,-618 -20,-35 -32,-68 -42,-100 -9,-29 -19,-56 -34,-84 -514,206 -907,447 -1254,661z"/>
  <path class="fil2" d="M11499 17848c-248,73 -483,186 -702,295 -16,46 -24,89 -24,132 0,23 3,46 8,70 17,-8 54,-25 54,-25 239,-108 464,-210 693,-391 12,-23 18,-41 18,-54 0,-5 -1,-10 -3,-13 -6,-9 -21,-14 -42,-14z"/>
  <path class="fil2" d="M13095 17185c-9,-19 -50,-102 -50,-102 0,0 -26,-57 -31,-70 -496,145 -960,363 -1344,633 1,11 17,176 20,204 501,-334 961,-552 1405,-665z"/>
  <path class="fil2" d="M8504 14953c67,80 297,356 328,394 -44,20 -255,118 -305,140 -2,-56 -19,-429 -24,-534z"/>
  <polygon class="fil2" points="8453,14884 8450,14813 8513,14889 8588,14815 8224,14445 8760,14647 8947,14463 8480,13986 8358,14105 8708,14459 8190,14269 7998,14457 8455,14923 "/>
  <path class="fil2" d="M9441 17501c-16,-6 -133,-48 -191,-69 23,71 111,345 117,364 16,6 136,52 195,74 -24,-73 -115,-350 -121,-368z"/>
  <path class="fil2" d="M9199 16771c-15,-6 -123,-47 -179,-68 23,73 110,354 116,373 16,6 131,48 189,69 -25,-73 -120,-356 -126,-374z"/>
  <path class="fil2" d="M9683 18226c-17,-6 -149,-53 -208,-75 23,71 111,351 117,369 16,6 152,57 213,79 -24,-73 -115,-355 -121,-374z"/>
  <path class="fil2" d="M8963 16045c-15,-6 -114,-43 -169,-63 22,71 106,345 112,364 16,6 122,46 178,67 -24,-73 -115,-350 -121,-368z"/>
  <path class="fil2" d="M8765 15435c-31,14 -100,44 -125,55 8,29 37,130 42,147 16,6 113,42 167,63 -20,-63 -72,-228 -84,-265z"/>
  <path class="fil2" d="M9918 18950c-16,-6 -153,-58 -213,-80 23,72 111,351 117,370 16,6 156,60 217,84 -24,-73 -115,-355 -121,-373z"/>
  <path class="fil1" d="M8912 15530c0,0 1,2 1,2 0,0 45,96 45,96 116,192 248,504 416,978 3,-1 241,-132 241,-132 299,-173 627,-344 1000,-418 65,-16 125,-26 183,-32 -31,-265 -71,-525 -110,-776 0,0 -63,-421 -69,-464 -464,95 -1022,338 -1706,745z"/>
  <polygon class="fil2" points="10386,15089 10388,15185 10452,15111 10546,15135 10491,15058 10545,14980 10457,15008 10396,14933 10389,15029 10300,15057 "/>
  <polygon class="fil2" points="10562,15908 10563,16002 10627,15926 10721,15952 10666,15875 10720,15797 10632,15825 10571,15750 10564,15846 10475,15873 "/>
  <polygon class="fil2" points="9453,16393 9455,16487 9518,16413 9613,16439 9558,16361 9611,16283 9524,16311 9463,16236 9455,16332 9366,16360 "/>
  <polygon class="fil2" points="9142,15654 9144,15749 9207,15674 9301,15699 9247,15622 9300,15544 9212,15572 9152,15497 9144,15592 9055,15621 "/>
  <path class="fil2" d="M10433 15692c-13,-651 -1054,-652 -1040,-1 14,652 1054,652 1040,1z"/>
  <path class="fil5" d="M9522 15742c-1,-4 2,-7 1,-13 1,0 3,-4 4,-4l-1 -8 1 0c6,-19 -6,-18 10,-36l-1 -3c8,-3 19,-8 22,-15 1,0 4,-3 4,-5l27 -9c-2,-12 7,-36 5,-50 3,-5 1,-13 0,-20l-2 -3c0,0 -6,-1 -8,0 -2,-5 -4,-7 -8,-7l-2 -1 -1 -9 6 -2c-1,-3 2,-1 2,-4l6 -3 -1 -8 -6 3c-1,-3 -3,-7 -5,-7l-1 -6c13,-4 40,-24 51,-13 9,-3 56,7 61,-10l4 -2c1,-2 3,-7 7,-8 -1,-7 6,-13 3,-21 -3,1 -5,-1 -8,-1 0,-2 -2,-2 -3,-4 -1,0 -2,-1 -6,0l-1 -1 -1 -5c-1,0 -4,-1 -5,-1 0,-1 -1,-8 2,-9 0,-1 2,-4 1,-4l63 -23c-1,-2 1,-5 1,-7 1,0 3,-2 5,-3 -1,-6 3,-7 6,-9l0 -5 5 -1 1 -4c7,-2 14,6 21,4 0,1 1,4 4,3 1,5 3,10 3,15 -3,1 -9,11 -12,13l-1 5 2 17c4,1 8,7 9,8 -5,-7 -1,-1 0,4 3,-2 5,-1 6,2 -3,-3 -1,-3 2,-1 -5,-2 -3,-1 1,3 6,-2 12,-5 18,-8 0,-1 2,-3 2,-5 7,-2 17,-8 25,-11 0,-5 0,-5 0,-10 2,-1 4,-2 4,-4 4,-1 2,-4 2,-6 9,-2 29,-17 37,-9l18 -7 1 -3c3,-2 9,-4 12,-7 0,-1 2,-3 2,-4 1,-1 2,-2 5,-3l1 -3 -1 -4c2,-1 2,-3 2,-4 0,0 1,-3 1,-4 2,-1 7,-3 6,-5 3,-1 3,-7 6,-7l-2 -8 2 -3 7 -2c1,1 2,2 4,2l1 5c2,2 4,6 5,13 2,0 3,5 4,9 0,0 6,7 6,12 6,0 13,4 18,3 1,5 -1,7 0,12 -3,3 -18,22 -19,25 -2,0 -3,4 -6,5l-2 2c2,-2 0,0 0,3l-1 4c-1,0 -2,3 -3,3l0 4c2,-1 3,1 3,2 3,-1 4,2 4,4 2,0 6,1 7,0l3 2c0,4 0,4 4,2 0,3 8,-1 9,3 13,-5 26,-11 32,-26 2,0 5,-3 5,-3 5,-2 25,-16 26,-6 3,-1 22,-4 22,-3l5 -1 2 3c6,2 18,-5 23,-3l1 4c3,0 12,7 12,9 1,0 23,-15 24,-10l12 -4c6,4 26,-3 35,-6 0,5 16,-9 17,0 6,-2 7,-1 10,3 1,-1 7,0 8,0l3 1c2,3 6,4 10,3 0,1 10,5 13,3 1,5 12,4 16,3 0,6 16,0 21,-1 0,1 0,1 2,1 0,0 7,4 9,3 1,3 5,6 8,4l4 0c0,4 4,10 5,10 2,13 5,60 -9,64 1,4 1,4 -3,4 0,4 -2,10 -4,10l1 5c-5,1 -4,4 -6,7l-4 5c0,1 0,3 0,4 -2,0 -4,2 -5,3 0,1 -4,11 -8,13 0,3 -2,9 -7,10 0,2 -2,4 -1,6l-5 1c0,4 -8,11 -9,16l-14 5 -3 3 3 36c-3,6 5,27 -1,34 1,11 -8,23 -7,36 -6,9 -2,25 -7,31l1 5c-2,0 -3,5 -6,7 4,-6 3,-1 0,3 -1,1 -1,5 -3,6 -1,5 -5,5 -4,10l-1 1 -2 2 -4 3 1 4c-4,1 2,3 -4,4 0,5 -3,10 -2,14l-1 3c-1,0 -5,4 -5,7 -3,1 -7,5 -6,8 -7,2 -37,4 -36,15 -4,2 -19,4 -18,11 -9,4 -31,11 -34,20 -3,0 -7,7 -8,10 -2,0 -7,2 -7,6 -4,1 -6,7 -8,10 0,1 -1,3 -1,5 -1,1 -4,6 -6,6 0,1 -4,16 -6,17 3,19 5,39 0,58 -5,2 -8,5 -7,9 -2,0 1,2 -2,3l1 6c-3,0 -4,8 -3,12 0,-11 -1,-4 -3,0l1 4c-3,1 -3,1 -2,5 -3,1 -8,9 -8,9l-1 2c-2,1 -7,8 -7,9 -2,1 0,2 -4,4 0,2 0,4 0,5l-5 2c-1,-3 -3,-8 -3,-11 4,-3 1,-3 4,-3 0,-3 1,-1 1,-6 4,-1 4,-4 6,-5 0,-5 2,-7 4,-10l-11 4c0,3 -2,0 -1,5 -6,2 -4,6 -6,6 0,3 -1,6 -1,8 -4,1 -1,2 -4,2 0,6 -4,24 -7,25 0,3 2,6 -1,8 1,5 -3,9 -4,12l-7 3 -1 -9c7,-3 -10,-17 -11,-17 -1,-5 -2,-1 -2,-3 -3,0 -12,-5 -12,-5l-4 2c-2,-2 -11,2 -14,4 -1,-5 -5,-5 -7,-6 -9,2 -18,0 -27,3 -1,-9 12,-18 11,-24 5,0 8,-3 9,-7 3,0 6,-2 6,-5l5 -1c-1,-2 2,-5 2,-5 8,-3 4,-18 13,-21 -1,-3 7,-8 8,-13 1,0 5,-2 5,-5 6,-2 6,-8 9,-9l-1 -15c-2,0 -6,-4 -7,-6 -6,3 -11,-4 -13,-3l-4 -26c-7,2 -14,3 -20,5 0,-2 0,-2 -2,-2l-1 -18c0,0 -4,-2 -5,-2 -1,-4 -4,-5 -4,-7 -2,1 -4,0 -5,-3 -8,3 -20,3 -29,6l-1 0c-4,-10 -2,-47 -10,-48 -3,-18 -16,-28 -19,-46 -2,1 -6,-5 -7,-9 -2,0 -4,0 -4,-3 -9,3 -16,3 -23,6l-2 -3 -2 -3 -4 -27c-8,3 -27,5 -38,9 -2,-3 -4,-2 -8,-1 0,-3 -5,1 -5,-3 -6,1 -11,-1 -15,-5 -6,2 -24,-3 -26,-8 -1,0 -3,0 -3,-2l-3 -3c-1,1 -7,-2 -7,-2 0,-3 -2,-5 -2,-5l-6 -14 -1 -5 -2 -1c-7,1 -16,2 -24,5 -2,3 -5,6 -4,9 -3,1 -6,3 -6,5 -3,3 -6,8 -12,10l-3 7 -2 0c0,0 -5,7 -5,8l-4 1c-3,6 -21,9 -27,9l0 -2c-2,0 -7,-1 -9,0 -1,-1 -2,-13 -3,-12 0,-4 -2,-6 -2,-7l-17 6c0,0 -4,5 -4,7 -4,1 -13,6 -14,0 -3,2 -6,0 -8,0l-4 2 -1 -2 -3 -2c0,-3 0,-3 -3,-3 -1,-3 -3,-12 -7,-11 0,-2 -1,-3 -3,-3 0,-5 -3,-11 -4,-11zm488 -315c-2,2 -35,3 -34,10l-6 3 1 5c-2,1 -1,6 -1,7l-3 3 3 1 1 3 2 2 4 -2c0,2 2,-1 2,2 3,-2 8,-4 9,0 8,-3 15,-10 22,-12 -1,0 2,-5 3,-5 0,-2 0,-4 2,-5l-2 -7 -4 1 -1 -4 2 -3z"/>
  <path class="fil2" d="M11556 15209c-247,-273 -552,-221 -869,-134 6,30 9,61 11,93 2,37 5,76 14,111 282,-109 545,-93 825,48 6,-39 12,-79 19,-118z"/>
  <path class="fil2" d="M11510 15517c-254,-87 -521,-80 -755,18 3,15 20,111 20,111 0,0 16,91 21,114 87,-41 502,-124 686,1 8,-80 17,-162 28,-244z"/>
  <path class="fil2" d="M11566 15499c-12,87 -22,172 -30,257 56,-33 164,-96 164,-96 199,-121 388,-236 945,-415 1,-12 14,-209 16,-236 -501,183 -753,284 -1094,489z"/>
  <path class="fil2" d="M11502 16285c26,-18 60,-40 60,-40 266,-181 597,-405 1126,-467 -2,-17 -29,-207 -31,-226 -489,113 -774,262 -1145,511 -4,75 -8,149 -9,222z"/>
  <path class="fil2" d="M11458 16074c-134,-20 -340,-35 -405,-35 -578,0 -1054,262 -1515,516 0,0 -121,66 -135,74 6,15 64,155 71,172 18,-9 300,-149 300,-149 527,-268 1123,-570 1676,-382 2,-65 5,-130 8,-196z"/>
  <path class="fil2" d="M11510 16801c21,-13 38,-24 38,-24 367,-231 748,-469 1222,-532 -15,-42 -18,-86 -19,-129 -1,-34 -3,-67 -10,-98 -434,101 -808,264 -1240,541 1,81 4,162 9,242z"/>
  <path class="fil2" d="M11448 16589l-1 0c-639,-224 -1261,141 -1862,496 9,30 13,62 16,96 3,36 8,73 19,107 577,-356 1153,-656 1838,-465 -5,-78 -8,-156 -10,-234z"/>
  <path class="fil2" d="M12839 16535c-518,138 -896,345 -1299,611 8,72 17,143 28,215 33,-20 136,-82 136,-82 352,-215 750,-457 1218,-528 -8,-20 -76,-200 -82,-215z"/>
  <path class="fil2" d="M11476 17057c-641,-130 -1108,143 -1697,490 0,0 -51,30 -63,37 4,11 13,39 13,39 0,0 46,135 53,155 19,-12 218,-131 218,-131 449,-274 874,-532 1498,-398 -8,-64 -16,-127 -22,-191z"/>
  <path class="fil2" d="M11531 17470c-553,-104 -964,143 -1438,430 0,0 -256,152 -270,160 3,9 8,25 8,25 0,0 51,148 58,169 20,-12 228,-144 228,-144 455,-293 851,-545 1446,-461 -12,-60 -22,-119 -32,-178z"/>
  <polygon class="fil0" points="16601,9507 17270,9929 17067,9167 17700,8699 16866,8645 16589,7933 16277,8662 15472,8691 16113,9195 15893,9925 "/>
 </g>
</svg>
