<?xml version="1.0" encoding="utf-8"?>
<!-- Generator: Adobe Illustrator 15.1.0, SVG Export Plug-In . SVG Version: 6.00 Build 0)  -->
<!DOCTYPE svg PUBLIC "-//W3C//DTD SVG 1.1//EN" "http://www.w3.org/Graphics/SVG/1.1/DTD/svg11.dtd">
<svg version="1.1" xmlns="http://www.w3.org/2000/svg" xmlns:xlink="http://www.w3.org/1999/xlink" x="0px" y="0px" width="501px"
	 height="501px" viewBox="0 0 501 501" enable-background="new 0 0 501 501" xml:space="preserve">
<g id="Camada_2">
</g>
<g id="Camada_1">
	<path fill="#FFFFFF" d="M250.077,18.251h0.002c63.423,0,121.001,25.863,162.718,67.581c41.721,41.718,67.581,99.291,67.587,162.714
		v0.008l0,0c0,63.423-25.866,121.004-67.587,162.719c-41.717,41.722-99.29,67.584-162.714,67.584h-0.006h-0.001
		c-63.426,0-121.002-25.862-162.72-67.584c-41.718-41.715-67.58-99.288-67.582-162.712v-0.007l0,0
		c0-63.424,25.864-121.005,67.582-162.722c41.718-41.718,99.294-67.581,162.717-67.581H250.077L250.077,18.251z"/>
	<path fill="#0E5823" d="M250.077,21.584h0.002c62.505,0,119.25,25.488,160.363,66.603c41.116,41.114,66.603,97.854,66.608,160.359
		v0.008l0,0c0,62.505-25.492,119.253-66.608,160.364c-41.113,41.117-97.854,66.605-160.359,66.605h-0.006h-0.001
		c-62.508,0-119.251-25.488-160.365-66.605c-41.114-41.111-66.602-97.852-66.604-160.357v-0.007l0,0
		c0-62.506,25.489-119.254,66.604-160.367c41.114-41.114,97.857-66.603,160.362-66.603H250.077L250.077,21.584z M250.079,31.48
		h-0.002h-0.004c-59.773,0-114.04,24.38-153.364,63.704c-39.325,39.324-63.705,93.594-63.705,153.37l0,0v0.007
		c0,59.768,24.38,114.035,63.703,153.359c39.324,39.328,93.593,63.705,153.369,63.705h0.001h0.006
		c59.773,0,114.041-24.377,153.363-63.699c39.325-39.33,63.704-93.598,63.704-153.372l0,0v-0.008
		c0-59.769-24.379-114.038-63.702-153.362C364.124,55.86,309.856,31.48,250.079,31.48L250.079,31.48z"/>
	<path fill="#0E5823" d="M88.335,320.938l-6.065,2.703l-6.977-15.664l14.349-6.389c2.152,0.854,4.438,2.486,6.841,4.879
		c2.403,2.391,4.271,5.072,5.592,8.035c1.677,3.766,2.348,7.404,2.019,10.906c-0.336,3.504-1.656,6.619-3.967,9.33
		c-2.315,2.717-5.203,4.844-8.656,6.381c-3.751,1.676-7.434,2.371-11.048,2.1c-3.613-0.27-6.876-1.578-9.783-3.92
		c-2.217-1.775-4.099-4.385-5.627-7.826c-1.993-4.473-2.608-8.387-1.856-11.729c0.759-3.346,2.631-6.117,5.62-8.313l4.563,6.627
		c-1.542,1.285-2.516,2.863-2.912,4.717c-0.398,1.854-0.13,3.84,0.799,5.932c1.417,3.18,3.55,5.26,6.395,6.234
		c2.849,0.975,6.261,0.582,10.223-1.178c4.274-1.904,7.059-4.289,8.347-7.137c1.292-2.844,1.252-5.818-0.118-8.893
		c-0.675-1.518-1.656-2.914-2.934-4.18c-1.28-1.262-2.594-2.258-3.934-2.977l-4.568,2.033L88.335,320.938L88.335,320.938z
		 M73.338,297.38c-3.949,0.698-7.377,0.69-10.27-0.02c-2.129-0.527-4.127-1.429-5.959-2.676c-1.84-1.238-3.305-2.71-4.38-4.397
		c-1.446-2.234-2.455-4.944-3.012-8.104c-1.008-5.71-0.038-10.608,2.9-14.659c2.947-4.059,7.583-6.647,13.896-7.765
		c6.265-1.104,11.47-0.266,15.607,2.514c4.139,2.783,6.716,7.024,7.722,12.729c1.019,5.773,0.065,10.678-2.85,14.695
		C84.07,293.73,79.516,296.296,73.338,297.38L73.338,297.38z M71.642,289.345c4.398-0.772,7.56-2.371,9.472-4.795
		c1.911-2.432,2.589-5.219,2.039-8.342c-0.552-3.123-2.13-5.486-4.731-7.093c-2.606-1.599-6.167-2.012-10.662-1.219
		c-4.445,0.785-7.6,2.351-9.441,4.682c-1.842,2.33-2.482,5.122-1.912,8.347c0.569,3.232,2.134,5.651,4.696,7.229
		c2.562,1.586,6.081,1.991,10.55,1.198L71.642,289.345L71.642,289.345z M86.879,250.193l-39.392-1.381l0.277-7.949l39.392,1.376
		L86.879,250.193L86.879,250.193z M93.071,199.706l-1.652,8.494l-9.443,1.674l-3.007,15.476l8.166,4.892l-1.611,8.291L49.76,215.945
		l1.604-8.264L93.071,199.706L93.071,199.706z M74.963,211.115l-15.391,2.533l13.345,8.028L74.963,211.115L74.963,211.115z
		 M47.453,215.951l-7.18-5.17l1.615-8.312l6.484,8.793L47.453,215.951L47.453,215.951z M82.571,191.656l2.597-7.338
		c2.551,0.678,4.685,0.625,6.386-0.142c1.703-0.779,3.078-2.27,4.1-4.465c1.083-2.316,1.406-4.303,0.975-5.932
		c-0.435-1.637-1.313-2.766-2.63-3.38c-0.842-0.393-1.677-0.482-2.499-0.265c-0.819,0.217-1.746,0.853-2.763,1.877
		c-0.677,0.709-2.102,2.388-4.249,5.051c-2.763,3.421-5.211,5.582-7.329,6.49c-2.988,1.28-5.897,1.254-8.725-0.067
		c-1.817-0.841-3.279-2.155-4.384-3.916c-1.102-1.775-1.618-3.827-1.537-6.151c0.073-2.326,0.752-4.868,2.034-7.617
		c2.09-4.481,4.65-7.399,7.664-8.749c3.021-1.348,6.21-1.314,9.546,0.101l-3.054,7.361c-1.973-0.547-3.604-0.497-4.882,0.141
		c-1.275,0.637-2.391,1.979-3.339,4.009c-0.975,2.095-1.311,3.945-1.004,5.527c0.195,1.016,0.763,1.748,1.684,2.181
		c0.842,0.393,1.737,0.366,2.666-0.067c1.189-0.556,3.018-2.393,5.478-5.517c2.466-3.12,4.541-5.318,6.206-6.588
		c1.665-1.268,3.501-2.021,5.474-2.253c1.971-0.234,4.101,0.174,6.359,1.226c2.04,0.954,3.695,2.421,4.948,4.385
		c1.259,1.977,1.835,4.211,1.736,6.694c-0.1,2.479-0.878,5.277-2.324,8.381c-2.103,4.512-4.766,7.493-7.98,8.942
		c-3.216,1.443-6.936,1.477-11.148,0.081H82.571L82.571,191.656z M129.062,137.373l-25.344-30.189l22.396-18.792l4.286,5.108
		l-16.295,13.674l5.614,6.691l15.16-12.722l4.272,5.093l-15.159,12.721l6.896,8.216l16.87-14.156l4.268,5.087L129.062,137.373
		L129.062,137.373z M149.436,103.532l6.409-4.403c1.666,2.045,3.425,3.256,5.253,3.632c1.834,0.375,3.821-0.025,5.939-1.196
		c2.238-1.241,3.667-2.655,4.274-4.229c0.612-1.581,0.563-3.009-0.141-4.282c-0.45-0.812-1.074-1.374-1.865-1.681
		c-0.792-0.308-1.914-0.338-3.338-0.104c-0.968,0.176-3.106,0.699-6.41,1.588c-4.241,1.142-7.495,1.455-9.743,0.943
		c-3.168-0.723-5.506-2.453-7.019-5.182c-0.973-1.751-1.385-3.675-1.242-5.75c0.149-2.078,0.94-4.047,2.369-5.88
		c1.429-1.837,3.474-3.493,6.126-4.963c4.323-2.399,8.11-3.254,11.342-2.575c3.236,0.687,5.797,2.589,7.663,5.693l-6.797,4.162
		c-1.272-1.604-2.625-2.523-4.031-2.759c-1.407-0.233-3.1,0.197-5.058,1.283c-2.022,1.119-3.379,2.42-4.06,3.878
		c-0.444,0.942-0.414,1.864,0.077,2.754c0.452,0.813,1.19,1.319,2.199,1.515c1.285,0.252,3.847-0.161,7.673-1.244
		c3.827-1.075,6.798-1.634,8.89-1.68c2.094-0.049,4.023,0.42,5.756,1.392c1.731,0.97,3.215,2.553,4.42,4.731
		c1.095,1.972,1.571,4.128,1.429,6.457c-0.144,2.337-0.991,4.482-2.527,6.433c-1.538,1.948-3.815,3.758-6.807,5.416
		c-4.354,2.414-8.261,3.263-11.713,2.544c-3.452-0.723-6.48-2.882-9.068-6.486L149.436,103.532L149.436,103.532z M190.114,96.508
		l-10.209-38.073l12.344-3.307c4.672-1.253,7.771-1.875,9.297-1.876c2.329-0.016,4.495,0.743,6.473,2.257
		c1.983,1.515,3.387,3.797,4.198,6.824c0.625,2.335,0.725,4.421,0.307,6.236c-0.417,1.814-1.164,3.364-2.228,4.62
		c-1.063,1.255-2.234,2.22-3.504,2.872c-1.736,0.85-4.347,1.749-7.831,2.683l-5.01,1.343l3.849,14.361L190.114,96.508
		L190.114,96.508z M189.322,62.81l2.896,10.808l4.208-1.126c3.026-0.812,4.999-1.556,5.916-2.225
		c0.916-0.674,1.549-1.517,1.903-2.517c0.354-0.998,0.378-2.072,0.077-3.191c-0.368-1.382-1.085-2.421-2.134-3.101
		c-1.057-0.682-2.247-0.977-3.55-0.864c-0.957,0.078-2.834,0.485-5.605,1.227L189.322,62.81L189.322,62.81z M223.375,67.023
		c-0.068-4.007,0.473-7.395,1.627-10.142c0.859-2.017,2.06-3.85,3.576-5.464c1.518-1.623,3.2-2.839,5.031-3.638
		c2.437-1.079,5.267-1.652,8.473-1.708c5.802-0.101,10.481,1.621,14.03,5.158c3.547,3.545,5.378,8.528,5.489,14.938
		c0.114,6.36-1.529,11.37-4.924,15.022c-3.395,3.651-7.989,5.534-13.776,5.635c-5.86,0.103-10.556-1.604-14.074-5.113
		C225.302,78.194,223.485,73.296,223.375,67.023L223.375,67.023z M231.576,66.607c0.078,4.464,1.16,7.838,3.261,10.104
		c2.1,2.269,4.747,3.375,7.916,3.319c3.169-0.055,5.753-1.245,7.744-3.564c1.992-2.323,2.956-5.775,2.876-10.341
		c-0.08-4.514-1.134-7.871-3.145-10.055c-2.014-2.184-4.674-3.254-7.949-3.197c-3.275,0.059-5.911,1.229-7.876,3.509
		c-1.963,2.281-2.913,5.695-2.834,10.231L231.576,66.607L231.576,66.607z M268.646,86.337l8.861-38.408l16.328,3.768
		c4.099,0.947,7.007,1.987,8.704,3.099c1.695,1.116,2.9,2.696,3.612,4.71c0.707,2.022,0.806,4.174,0.284,6.439
		c-0.666,2.887-2.07,5.075-4.19,6.56c-2.128,1.484-4.935,2.083-8.417,1.793c1.448,1.364,2.594,2.761,3.412,4.182
		c0.815,1.422,1.813,3.848,2.974,7.259l2.964,8.57l-9.281-2.143l-3.676-9.646c-1.297-3.442-2.229-5.647-2.781-6.591
		c-0.553-0.95-1.211-1.667-1.958-2.141c-0.761-0.477-2.029-0.923-3.813-1.335l-1.568-0.362L276.4,88.126L268.646,86.337
		L268.646,86.337z M281.517,65.956l5.735,1.332c3.716,0.856,6.082,1.233,7.072,1.14c1.001-0.099,1.856-0.475,2.551-1.122
		c0.699-0.647,1.19-1.554,1.454-2.703c0.299-1.29,0.19-2.416-0.309-3.369c-0.507-0.955-1.368-1.682-2.574-2.18
		c-0.61-0.23-2.492-0.717-5.629-1.439l-6.054-1.397L281.517,65.956L281.517,65.956z M315.153,100.03l13.321-29.918l-10.688-4.759
		l2.711-6.092l28.617,12.74l-2.713,6.095l-10.66-4.748l-13.319,29.919L315.153,100.03L315.153,100.03z M336.885,111.578
		l24.263-31.065l23.036,17.998l-4.105,5.255L363.315,90.67l-5.378,6.883l15.597,12.186l-4.093,5.236l-15.597-12.185l-6.602,8.453
		l17.354,13.559l-4.089,5.232L336.885,111.578L336.885,111.578z M409.404,174.373l1.456,7.961
		c-4.354,0.976-8.101,0.738-11.229-0.704c-3.133-1.45-5.696-4.046-7.683-7.778c-2.46-4.627-2.903-9.27-1.327-13.916
		c1.572-4.654,5.104-8.442,10.575-11.351c5.791-3.082,11.093-3.979,15.883-2.693c4.798,1.29,8.495,4.373,11.087,9.244
		c2.262,4.261,2.844,8.39,1.746,12.385c-0.652,2.373-2.162,4.7-4.523,6.969l-5.358-6.075c1.581-1.366,2.546-2.99,2.901-4.847
		c0.348-1.855,0.025-3.728-0.963-5.591c-1.373-2.576-3.415-4.18-6.115-4.806c-2.703-0.619-6.141,0.17-10.284,2.375
		c-4.398,2.337-7.113,4.803-8.137,7.373c-1.031,2.572-0.866,5.137,0.476,7.664c0.993,1.87,2.445,3.167,4.345,3.871
		c1.902,0.719,4.291,0.692,7.144-0.081H409.404L409.404,174.373z M402.344,194.678l37.582-10.778l2.195,7.648l-31.199,8.943
		l5.453,19.024l-6.383,1.829L402.344,194.678L402.344,194.678z M450.133,225.682l0.271,7.954l-21.34,0.744
		c-3.385,0.114-5.58,0.292-6.574,0.53c-1.601,0.393-2.872,1.251-3.797,2.565c-0.93,1.314-1.363,3.091-1.284,5.305
		c0.078,2.257,0.603,3.937,1.565,5.054c0.96,1.112,2.123,1.771,3.469,1.953c1.352,0.183,3.586,0.23,6.707,0.114l21.791-0.758
		l0.277,7.954l-20.689,0.717c-4.73,0.17-8.084,0.068-10.043-0.291c-1.968-0.359-3.647-1.097-5.033-2.201
		c-1.381-1.112-2.51-2.622-3.369-4.527c-0.861-1.902-1.353-4.423-1.462-7.538c-0.131-3.762,0.203-6.627,1.004-8.598
		c0.8-1.974,1.874-3.552,3.222-4.729c1.348-1.181,2.787-1.974,4.291-2.387c2.242-0.595,5.566-0.975,9.971-1.13L450.133,225.682
		L450.133,225.682z M449.322,276.115l-3.549,15.354c-0.701,3.035-1.354,5.269-1.949,6.704c-0.592,1.438-1.439,2.65-2.512,3.641
		c-1.074,0.996-2.377,1.74-3.887,2.207c-1.521,0.477-3.113,0.529-4.77,0.145c-1.799-0.416-3.342-1.283-4.617-2.598
		s-2.098-2.893-2.471-4.721c-1.215,2.18-2.793,3.705-4.722,4.588c-1.934,0.873-4.016,1.063-6.229,0.547
		c-1.745-0.398-3.356-1.199-4.818-2.393c-1.459-1.186-2.522-2.605-3.184-4.231c-0.664-1.642-0.877-3.517-0.623-5.632
		c0.157-1.319,0.785-4.463,1.899-9.41l3.02-13.076L449.322,276.115L449.322,276.115z M441.142,282.389l-8.889-2.054l-1.176,5.089
		c-0.693,3.015-1.082,4.911-1.166,5.656c-0.154,1.363,0.072,2.521,0.65,3.442c0.586,0.935,1.502,1.551,2.74,1.842
		c1.186,0.271,2.229,0.17,3.121-0.312c0.891-0.481,1.568-1.355,2.021-2.614c0.258-0.752,0.82-2.948,1.662-6.594L441.142,282.389
		L441.142,282.389z M425.867,278.865l-10.277-2.371l-1.656,7.174c-0.644,2.792-0.973,4.588-0.99,5.373
		c-0.056,1.198,0.235,2.257,0.873,3.172c0.644,0.906,1.654,1.522,3.013,1.836c1.152,0.264,2.198,0.216,3.131-0.157
		c0.927-0.372,1.71-1.043,2.313-2.011c0.609-0.983,1.324-3.232,2.141-6.756L425.867,278.865L425.867,278.865z M401.31,305.985
		l35.125,17.887L423.16,349.92l-5.941-3.027l9.656-18.951l-7.784-3.969l-8.982,17.637l-5.923-3.016l8.985-17.635l-9.558-4.871
		l-9.998,19.627l-5.915-3.016L401.31,305.985L401.31,305.985z"/>
	<path fill="#0E5823" d="M169.2,401.16l-6.579-3.313c0.674-1.348,0.887-2.549,0.647-3.549c-0.242-1.012-0.865-1.852-1.873-2.508
		c-1.331-0.867-2.861-0.996-4.563-0.4c-1.705,0.602-3.921,2.73-6.632,6.375c2.787-0.832,5.363-0.488,7.703,1.031
		c2.646,1.721,4.26,4.201,4.84,7.43c0.574,3.24-0.17,6.465-2.239,9.648c-2.195,3.383-4.955,5.447-8.261,6.207
		c-3.305,0.752-6.527,0.113-9.636-1.896c-3.336-2.17-5.244-5.252-5.709-9.242c-0.465-3.984,1.219-8.941,5.054-14.844
		c3.936-6.064,7.895-9.703,11.871-10.92c3.976-1.227,7.761-0.672,11.338,1.65c2.509,1.627,4.134,3.686,4.866,6.154
		c0.733,2.471,0.46,5.203-0.835,8.168L169.2,401.16L169.2,401.16z M145.86,405.645c-1.341,2.066-1.908,3.973-1.686,5.699
		c0.225,1.732,0.942,3.002,2.154,3.787c1.171,0.766,2.45,0.936,3.821,0.527c1.377-0.406,2.751-1.66,4.107-3.746
		c1.394-2.146,1.999-3.998,1.808-5.541c-0.195-1.537-0.923-2.73-2.184-3.551c-1.218-0.793-2.563-0.982-4.018-0.576
		c-1.46,0.406-2.807,1.547-4.013,3.408L145.86,405.645L145.86,405.645z M166.97,420.856l3.193-6.842l13.449,6.268l-3.193,6.848
		L166.97,420.856L166.97,420.856z M197.956,443.721l2.179-7.621l-15.509-4.453l1.823-6.359l23.346-19.35l6.101,1.748l-6.894,24.037
		l4.706,1.355l-1.833,6.389l-4.704-1.348l-2.185,7.615L197.956,443.721L197.956,443.721z M201.972,429.709l3.706-12.947
		l-12.42,10.449L201.972,429.709L201.972,429.709z M220.388,437.198l0.92-7.5l14.729,1.809l-0.919,7.5L220.388,437.198
		L220.388,437.198z M261.085,449.797l-7.551,0.266l-0.995-28.455c-2.668,2.676-5.854,4.703-9.559,6.063l-0.239-6.85
		c1.952-0.709,4.054-2.02,6.293-3.889c2.248-1.881,3.768-4.043,4.543-6.477l6.125-0.211L261.085,449.797L261.085,449.797z
		 M275.329,440.002l6.893-2.541c0.537,1.396,1.262,2.352,2.163,2.865c0.904,0.516,1.961,0.617,3.154,0.318
		c1.512-0.371,2.632-1.389,3.341-3.041c0.71-1.652,0.677-4.723-0.126-9.174c-1.305,2.594-3.352,4.24-6.115,4.932
		c-3.005,0.754-5.893,0.238-8.648-1.537c-2.761-1.775-4.615-4.531-5.543-8.258c-0.965-3.867-0.593-7.291,1.123-10.238
		c1.712-2.955,4.352-4.871,7.913-5.758c3.873-0.963,7.435-0.26,10.667,2.119c3.235,2.379,5.715,7.012,7.428,13.877
		c1.742,6.992,1.704,12.365-0.114,16.104c-1.816,3.738-4.811,6.131-8.965,7.168c-2.984,0.746-5.605,0.547-7.84-0.582
		c-2.247-1.125-4.025-3.213-5.338-6.246L275.329,440.002L275.329,440.002z M287.927,419.846c-0.588-2.363-1.594-4.059-3-5.094
		c-1.41-1.037-2.837-1.369-4.268-1.018c-1.354,0.34-2.352,1.158-2.972,2.445c-0.631,1.295-0.644,3.164-0.038,5.59
		c0.618,2.473,1.556,4.174,2.814,5.082c1.262,0.908,2.632,1.186,4.094,0.826c1.398-0.352,2.454-1.205,3.136-2.553
		c0.691-1.355,0.765-3.117,0.228-5.271L287.927,419.846L287.927,419.846z M325.701,435.049l-2.848-7.404l-15.064,5.785l-2.371-6.178
		l7.002-29.506l5.925-2.277l8.96,23.348l4.569-1.756l2.382,6.207l-4.567,1.756l2.839,7.404L325.701,435.049L325.701,435.049z
		 M320.477,421.44l-4.833-12.568l-3.628,15.82L320.477,421.44L320.477,421.44z M339.025,418.145l5.565-4.822
		c1.229,1.416,2.559,2.25,3.949,2.492c1.396,0.252,2.703-0.033,3.908-0.846c1.295-0.873,2.055-2.1,2.27-3.674
		c0.226-1.57-0.225-3.203-1.347-4.863c-1.064-1.578-2.339-2.541-3.798-2.893c-1.464-0.352-2.814-0.117-4.035,0.713
		c-0.795,0.533-1.649,1.348-2.554,2.402l-2.753-5.563c1.723-1.104,2.766-2.342,3.133-3.719c0.362-1.383,0.114-2.73-0.76-4.018
		c-0.737-1.096-1.659-1.76-2.751-1.971c-1.094-0.209-2.193,0.047-3.271,0.777c-1.071,0.721-1.737,1.715-1.993,2.963
		c-0.256,1.254,0.018,2.654,0.811,4.191l-6.435,2.916c-0.93-2.244-1.388-4.244-1.38-5.963c0.013-1.729,0.517-3.422,1.507-5.074
		c0.993-1.654,2.394-3.09,4.192-4.305c3.073-2.072,6.211-2.756,9.38-2.043c2.612,0.566,4.605,1.869,5.966,3.889
		c1.938,2.871,1.91,6.219-0.07,10.041c2.146-0.869,4.25-0.979,6.308-0.334c2.064,0.645,3.771,1.953,5.102,3.93
		c1.93,2.865,2.533,6.021,1.806,9.445c-0.731,3.426-2.662,6.213-5.785,8.313c-2.954,1.992-5.986,2.797-9.076,2.412
		c-3.089-0.387-5.728-1.85-7.886-4.391L339.025,418.145L339.025,418.145z"/>
	<path fill="#0E5823" d="M113.5,356.696c8.347,0,15.155,6.811,15.155,15.156c0,8.355-6.809,15.164-15.155,15.164
		c-8.35,0-15.157-6.809-15.157-15.164C98.343,363.506,105.15,356.696,113.5,356.696L113.5,356.696z"/>
	<path fill="#0E5823" d="M385.253,356.696c8.347,0,15.156,6.811,15.156,15.156c0,8.355-6.81,15.164-15.156,15.164
		c-8.35,0-15.153-6.809-15.153-15.164C370.099,363.506,376.903,356.696,385.253,356.696L385.253,356.696z"/>
	<path fill="#0E5823" d="M250.501,108.836c51.778,0,97.124,28.103,121.197,69.656h-50.015
		c-18.173-18.663-43.545-30.285-71.549-30.285c-55.047,0-99.944,44.9-99.944,99.946c0,55.048,44.897,99.944,99.944,99.944
		c40.492,0,75.482-24.303,91.155-59.057H228.628v-36.349h161.256c-3.228,73.108-64.588,131.747-139.383,131.747
		c-76.852,0-139.53-61.902-139.53-137.804C110.97,170.739,173.649,108.836,250.501,108.836L250.501,108.836z"/>
</g>
</svg>
