<?xml version="1.0" encoding="UTF-8" standalone="no"?>
<!-- Created with Inkscape (http://www.inkscape.org/) -->

<svg
   xmlns:dc="http://purl.org/dc/elements/1.1/"
   xmlns:cc="http://creativecommons.org/ns#"
   xmlns:rdf="http://www.w3.org/1999/02/22-rdf-syntax-ns#"
   xmlns:svg="http://www.w3.org/2000/svg"
   xmlns="http://www.w3.org/2000/svg"
   xmlns:sodipodi="http://sodipodi.sourceforge.net/DTD/sodipodi-0.dtd"
   xmlns:inkscape="http://www.inkscape.org/namespaces/inkscape"
   id="svg2"
   version="1.1"
   inkscape:version="0.48.1 "
   width="210.09225"
   height="210.09225"
   xml:space="preserve"
   sodipodi:docname="Ibis Sport Club.svg"><metadata
     id="metadata8"><rdf:RDF><cc:Work
         rdf:about=""><dc:format>image/svg+xml</dc:format><dc:type
           rdf:resource="http://purl.org/dc/dcmitype/StillImage" /><dc:title /></cc:Work></rdf:RDF></metadata><defs
     id="defs6" /><sodipodi:namedview
     pagecolor="#ffffff"
     bordercolor="#666666"
     borderopacity="1"
     objecttolerance="10"
     gridtolerance="10"
     guidetolerance="10"
     inkscape:pageopacity="0"
     inkscape:pageshadow="2"
     inkscape:window-width="1280"
     inkscape:window-height="750"
     id="namedview4"
     showgrid="false"
     inkscape:zoom="2.5274612"
     inkscape:cx="105.04612"
     inkscape:cy="105.04612"
     inkscape:window-x="-8"
     inkscape:window-y="-8"
     inkscape:window-maximized="1"
     inkscape:current-layer="g10"
     fit-margin-top="0"
     fit-margin-left="0"
     fit-margin-right="0"
     fit-margin-bottom="0" /><g
     id="g10"
     inkscape:groupmode="layer"
     inkscape:label="ink_ext_XXXXXX"
     transform="matrix(1.25,0,0,-1.25,-15.7515,226.2275)"><g
       id="g2995"
       transform="translate(1.8554687e-6,-1.8554688e-6)"><path
         d="m 96.6379,180.982 c 46.2851,0 84.0371,-37.751 84.0371,-84.0371 0,-46.2859 -37.752,-84.0367 -84.0371,-84.0367 -46.2863,0 -84.0367,37.7508 -84.0367,84.0367 0,46.2861 37.7504,84.0371 84.0367,84.0371"
         style="fill:#ee2722;fill-opacity:1;fill-rule:evenodd;stroke:none"
         id="path16"
         inkscape:connector-curvature="0" /><g
         transform="scale(0.1,0.1)"
         id="g18"><path
           d="m 966.379,1505.43 c 295.211,0 535.981,-240.77 535.981,-535.981 0,-295.207 -240.77,-535.984 -535.981,-535.984 -295.211,0 -535.985,240.777 -535.985,535.984 0,295.211 240.774,535.981 535.985,535.981"
           style="fill:none;stroke:#231f20;stroke-width:28.04540062;stroke-linecap:butt;stroke-linejoin:miter;stroke-miterlimit:2.61310005;stroke-opacity:1;stroke-dasharray:none"
           id="path20"
           inkscape:connector-curvature="0" /></g><path
         d="m 36.2551,121.298 72.7569,0 c 13.183,-0.185 13.059,-8.996 10.701,-18.575 -1.088,-4.4207 -5.158,-15.1277 3.57,-15.3773 5.222,-0.1496 5.855,7.6656 5.478,14.2303 -0.338,5.889 -4.172,17.545 5.544,17.904 6.412,0.237 6.219,-3.435 8.991,-4.323 4.511,-1.444 20.742,-2.492 36.082,-3.479 l 0.268,-1.587 c -11.01,-0.175 -22.022,-0.131 -33.032,-0.526 -9.786,-0.686 -8.826,-4.017 -9.293,-12.4834 -0.85,-15.3507 -8.613,-22.5914 -20.571,-25.6015 0.533,-1.1895 0.917,-1.7871 1.808,-2.3258 2.384,-1.4426 2.531,-2.191 -0.102,-2.191 l -8.04,0 c -1.537,0 0.68,1.7777 -1.481,3.2125 -10.5362,-1.2481 -22.5284,-0.2703 -36.319,0.9531 l -15.4144,-10.4117 -2.693,3.2703 15.4418,10.4609 -4.2504,5.8973 23.398,0 c 0.6946,0 1.8208,0.4723 1.5149,1.5277 l -0.643,2.2125 c -0.3582,1.2368 -0.9941,1.3786 -1.9933,1.3786 l -25.9575,0 -3.6808,5.1199 28.0383,0 c 0.7011,0 1.682,0.6383 1.4797,1.4953 l -0.4719,2.0055 c -0.2785,1.1839 -0.9953,1.6183 -2.2551,1.6183 l -30.4719,0 -3.6804,5.1195 32.6113,0 c 0.925,0 1.8504,0.513 1.557,1.553 l -0.623,2.208 c -0.3305,1.17 -1.2352,1.358 -2.0559,1.358 l -35.1703,0 -3.6805,5.119 37.7981,0 c 0.9484,0 1.3277,0.75 1.1261,1.384 l -0.7246,2.278 c -0.2922,0.92 -1.1035,1.457 -1.7589,1.457 l -40.1215,0 -3.6797,5.118"
         style="fill:#231f20;fill-opacity:1;fill-rule:evenodd;stroke:none"
         id="path22"
         inkscape:connector-curvature="0" /><path
         d="m 30.9641,68.6906 1.6418,-2.6668 c -0.8618,-0.6258 -1.3856,-1.3047 -1.5743,-2.0367 -0.1871,-0.7289 -0.0714,-1.5301 0.3559,-2.4066 0.4516,-0.9258 0.9891,-1.5309 1.6121,-1.8059 0.6211,-0.2801 1.1945,-0.2926 1.7184,-0.0367 0.339,0.1648 0.5754,0.4039 0.7144,0.7176 0.143,0.3121 0.1805,0.7582 0.1121,1.3371 -0.0445,0.3933 -0.2144,1.2629 -0.4996,2.607 -0.3711,1.7289 -0.4273,3.041 -0.1722,3.9328 0.3554,1.2586 1.0976,2.1625 2.2261,2.7133 0.727,0.3543 1.5039,0.4785 2.3387,0.3762 0.8313,-0.1039 1.602,-0.4629 2.3109,-1.0746 0.7071,-0.616 1.3278,-1.468 1.8621,-2.5625 0.8743,-1.7922 1.1383,-3.3278 0.7965,-4.6157 -0.3461,-1.2863 -1.1597,-2.2703 -2.4484,-2.9562 l -1.5293,2.8156 c 0.6738,0.4805 1.0723,1.0035 1.193,1.5637 0.1246,0.5617 -0.0121,1.2469 -0.4071,2.0566 -0.4078,0.8367 -0.898,1.411 -1.4726,1.7137 -0.3684,0.1984 -0.7379,0.2074 -1.1063,0.0277 -0.3386,-0.1652 -0.5578,-0.4496 -0.6574,-0.8511 -0.1289,-0.5102 -0.0172,-1.5481 0.3379,-3.1094 0.3508,-1.5621 0.5141,-2.7641 0.4891,-3.6059 -0.0282,-0.8437 -0.2536,-1.6023 -0.6813,-2.284 -0.4293,-0.6773 -1.0937,-1.2355 -1.9933,-1.6746 -0.8161,-0.398 -1.6926,-0.5457 -2.6247,-0.4379 -0.9355,0.1059 -1.7789,0.4883 -2.5281,1.1497 -0.7531,0.6593 -1.4312,1.6105 -2.0347,2.8484 -0.8786,1.8023 -1.1387,3.3883 -0.777,4.7598 0.3621,1.3726 1.2949,2.5418 2.7973,3.5054 z m 5.4527,-19.5578 11.5984,10.8152 3.5024,-3.7566 c 1.3269,-1.423 2.134,-2.4074 2.4203,-2.9476 0.4465,-0.8254 0.5902,-1.7368 0.4242,-2.729 -0.1648,-0.9921 -0.7094,-1.9187 -1.6297,-2.7773 -0.7136,-0.6652 -1.4332,-1.0945 -2.1586,-1.2859 -0.7277,-0.1938 -1.4133,-0.2223 -2.0636,-0.0821 -0.6461,0.1399 -1.2075,0.3739 -1.6789,0.702 -0.6321,0.4555 -1.4446,1.2121 -2.434,2.2738 L 42.9746,50.8707 38.6,46.7914 36.4168,49.1328 z m 11.818,6.643 -3.2891,-3.0672 1.1941,-1.2801 c 0.8606,-0.9234 1.4969,-1.4859 1.9079,-1.684 0.4109,-0.1965 0.8269,-0.2632 1.2519,-0.2004 0.4234,0.0664 0.8063,0.2571 1.1492,0.5774 0.4211,0.3922 0.6539,0.8414 0.6973,1.3469 0.0434,0.4996 -0.0785,0.9773 -0.3633,1.4183 -0.2078,0.3313 -0.707,0.9156 -1.493,1.7574 l -1.055,1.1317 z m 5.4824,-12.9344 c 0.8808,1.3566 1.8203,2.3629 2.823,3.0188 0.7418,0.4777 1.55,0.8207 2.4231,1.0195 0.8715,0.1961 1.7035,0.2234 2.4945,0.0789 1.0598,-0.1859 2.1258,-0.6316 3.2098,-1.3352 1.9601,-1.2738 3.1324,-2.8976 3.5195,-4.8789 0.3879,-1.9777 -0.1215,-4.0507 -1.5273,-6.2152 -1.3957,-2.1492 -3.0707,-3.4473 -5.0266,-3.9027 -1.9535,-0.4528 -3.9086,-0.0469 -5.859,1.2203 -1.9789,1.2855 -3.1597,2.9105 -3.5449,4.8734 -0.3832,1.9656 0.1145,4.0067 1.4879,6.1211 z m 2.8238,-1.7051 c -0.9773,-1.5054 -1.3699,-2.875 -1.1808,-4.1027 0.1921,-1.2301 0.8234,-2.1902 1.8949,-2.8859 1.0683,-0.6938 2.1969,-0.8813 3.3871,-0.5528 1.1851,0.3262 2.2789,1.2578 3.2805,2.8004 0.989,1.5238 1.3929,2.8766 1.2156,4.0617 -0.182,1.184 -0.827,2.1352 -1.9328,2.8539 -1.1086,0.7192 -2.2481,0.918 -3.4188,0.5996 -1.1676,-0.3203 -2.2504,-1.2417 -3.2457,-2.7742 z m 12.1059,-15.8605 4.3711,15.2433 6.4808,-1.8578 c 1.6293,-0.4675 2.7715,-0.9449 3.4313,-1.4297 0.6601,-0.4851 1.1133,-1.141 1.3558,-1.9675 0.2426,-0.8301 0.2336,-1.6918 -0.0246,-2.5938 -0.3277,-1.1426 -0.9367,-1.9937 -1.8215,-2.5461 -0.8835,-0.5492 -2.0265,-0.7324 -3.4199,-0.541 0.5551,-0.5816 0.9832,-1.1652 1.2832,-1.7543 0.2996,-0.5887 0.6457,-1.5785 1.0403,-2.9754 l 1.0105,-3.5086 -3.6809,1.0555 -1.2734,3.9566 c -0.4512,1.4121 -0.7769,2.3121 -0.9797,2.7047 -0.2027,0.3926 -0.4511,0.6903 -0.7441,0.9012 -0.2938,0.207 -0.7922,0.4117 -1.502,0.6148 l -0.6215,0.1786 -1.825,-6.3649 -3.0804,0.8844 z m 5.6039,7.9144 2.275,-0.6523 c 1.4762,-0.4234 2.4164,-0.627 2.8211,-0.6086 0.4011,0.0191 0.7508,0.1531 1.0476,0.398 0.2934,0.2465 0.5086,0.5954 0.6407,1.0536 0.1468,0.5148 0.1265,0.9656 -0.0559,1.3601 -0.1828,0.3945 -0.5125,0.7035 -0.9887,0.9328 -0.2394,0.1024 -0.9832,0.3352 -2.2328,0.6942 l -2.3988,0.6875 -1.1082,-3.8653 z m 17.6562,-12.7437 0.4598,13.1652 -4.7008,0.1641 0.0934,2.6828 12.5936,-0.4395 -0.093,-2.6828 -4.6905,0.1645 -0.4593,-13.1668 -3.2032,0.1125 z m 29.338,10.1242 3.251,0.1379 c 0.144,-1.7902 -0.159,-3.268 -0.911,-4.4379 -0.752,-1.1648 -1.93,-2.0422 -3.529,-2.6242 -1.977,-0.7195 -3.851,-0.6356 -5.615,0.2508 -1.766,0.8902 -3.078,2.507 -3.93,4.8484 -0.904,2.4813 -0.962,4.6406 -0.182,6.4801 0.782,1.8367 2.214,3.1355 4.303,3.8957 1.822,0.6637 3.499,0.6648 5.029,-4e-4 0.911,-0.3871 1.752,-1.1188 2.527,-2.1883 l -2.722,-1.7965 c -0.456,0.7114 -1.046,1.1875 -1.771,1.4305 -0.721,0.2449 -1.482,0.2191 -2.28,-0.0711 -1.103,-0.4012 -1.858,-1.125 -2.256,-2.1691 -0.399,-1.0411 -0.275,-2.4493 0.371,-4.2262 0.686,-1.884 1.511,-3.1043 2.482,-3.6547 0.968,-0.5551 1.994,-0.6332 3.077,-0.2398 0.802,0.2925 1.397,0.7957 1.787,1.5152 0.392,0.7164 0.513,1.6676 0.369,2.8496 z m 11.566,-1.4863 -8.566,13.191 2.684,1.7434 7.111,-10.9493 6.676,4.3352 1.456,-2.2414 -9.361,-6.0789 z m 3.03,20.8015 2.184,2.3411 6.28,-5.8571 c 0.997,-0.9293 1.672,-1.5043 2.02,-1.7219 0.568,-0.3429 1.173,-0.4582 1.809,-0.3492 0.642,0.1086 1.266,0.4907 1.875,1.145 0.62,0.6632 0.953,1.2914 0.995,1.8839 0.044,0.5887 -0.102,1.1039 -0.433,1.5395 -0.331,0.4398 -0.957,1.0844 -1.875,1.9398 l -6.416,5.9836 2.183,2.3414 6.092,-5.6812 c 1.393,-1.2996 2.318,-2.2781 2.775,-2.9418 0.457,-0.6625 0.724,-1.3457 0.804,-2.0563 0.076,-0.7078 -0.033,-1.4589 -0.327,-2.2449 -0.296,-0.7894 -0.875,-1.6426 -1.732,-2.5598 -1.032,-1.1078 -1.942,-1.8289 -2.732,-2.1625 -0.79,-0.3335 -1.543,-0.4746 -2.261,-0.4265 -0.718,0.048 -1.35,0.2297 -1.897,0.543 -0.808,0.4652 -1.858,1.3035 -3.157,2.5148 l -6.187,5.7691 z m 11.029,12.4176 3.169,5.4903 c 0.627,1.0875 1.141,1.8734 1.542,2.3539 0.398,0.4828 0.862,0.85 1.393,1.1062 0.531,0.2559 1.113,0.3844 1.756,0.3887 0.638,0.0066 1.256,-0.1629 1.848,-0.5047 0.643,-0.3707 1.135,-0.8848 1.473,-1.5406 0.336,-0.6582 0.467,-1.361 0.395,-2.1075 0.724,0.6938 1.513,1.1 2.356,1.2098 0.849,0.1113 1.669,-0.0641 2.462,-0.5215 0.623,-0.3605 1.147,-0.8554 1.571,-1.4867 0.42,-0.6312 0.665,-1.3012 0.726,-2.0062 0.062,-0.7047 -0.078,-1.4512 -0.421,-2.2375 -0.219,-0.4883 -0.83,-1.6223 -1.839,-3.3977 l -2.699,-4.6754 -13.732,7.9289 z m 3.887,1.4559 3.175,-1.8336 1.049,1.8164 c 0.624,1.0812 0.996,1.7613 1.115,2.0422 0.219,0.5051 0.272,0.9726 0.157,1.4011 -0.115,0.4293 -0.395,0.7704 -0.84,1.027 -0.425,0.2449 -0.837,0.3301 -1.237,0.2496 -0.402,-0.0836 -0.763,-0.3394 -1.083,-0.7683 -0.191,-0.2571 -0.663,-1.0375 -1.416,-2.3422 l -0.92,-1.5922 z m 5.462,-3.1531 3.671,-2.12 1.481,2.5645 c 0.577,1.0012 0.917,1.6488 1.015,1.9512 0.164,0.4543 0.173,0.8976 0.034,1.323 -0.141,0.427 -0.455,0.7828 -0.941,1.0637 -0.413,0.2375 -0.821,0.3367 -1.223,0.3051 -0.404,-0.0356 -0.781,-0.2012 -1.13,-0.5028 -0.35,-0.3019 -0.887,-1.0867 -1.615,-2.3465 l -1.292,-2.2382 z m -83.6456,91.7367 -5.9406,14.703 2.968,1.199 5.9406,-14.703 -2.968,-1.199 z m 6.8457,19.136 6.293,0.773 c 1.2453,0.153 2.1824,0.216 2.8078,0.184 0.6246,-0.027 1.1969,-0.176 1.7211,-0.447 0.5246,-0.27 0.9774,-0.657 1.3676,-1.167 0.3894,-0.506 0.6262,-1.102 0.7098,-1.781 0.0906,-0.736 -0.0243,-1.438 -0.3446,-2.102 -0.3242,-0.665 -0.8058,-1.193 -1.4461,-1.584 0.9903,-0.161 1.7891,-0.547 2.3852,-1.155 0.5988,-0.61 0.9527,-1.37 1.0644,-2.279 0.0879,-0.715 0.0082,-1.431 -0.2421,-2.15 -0.2508,-0.715 -0.6383,-1.314 -1.1641,-1.788 -0.5258,-0.473 -1.2066,-0.81 -2.041,-1.008 -0.5211,-0.12 -1.7957,-0.314 -3.8203,-0.578 l -5.3582,-0.658 -1.9325,15.74 z m 3.5032,-2.229 0.4465,-3.639 2.0816,0.255 c 1.2387,0.152 2.0059,0.265 2.3019,0.338 0.5348,0.129 0.9407,0.369 1.2141,0.719 0.2731,0.349 0.377,0.779 0.3141,1.288 -0.0598,0.487 -0.2407,0.867 -0.545,1.139 -0.3089,0.27 -0.7308,0.404 -1.2664,0.402 -0.3195,-0.002 -1.2269,-0.095 -2.7222,-0.279 l -1.8246,-0.223 z m 0.7683,-6.259 0.5168,-4.208 2.9387,0.361 c 1.1473,0.141 1.8695,0.259 2.1691,0.363 0.4625,0.142 0.8211,0.402 1.077,0.768 0.2558,0.371 0.3512,0.836 0.2832,1.393 -0.0582,0.473 -0.2246,0.857 -0.4922,1.16 -0.2711,0.301 -0.6309,0.502 -1.0816,0.6 -0.4508,0.097 -1.4024,0.054 -2.8457,-0.123 l -2.5653,-0.314 z m 16.6364,-6.004 1.106,15.819 3.194,-0.222 -1.107,-15.82 -3.193,0.223 z m 10.166,4.279 3.045,-0.725 c -0.166,-1.052 -0.057,-1.902 0.327,-2.554 0.383,-0.646 1.032,-1.132 1.954,-1.449 0.974,-0.335 1.781,-0.383 2.417,-0.137 0.637,0.241 1.051,0.637 1.241,1.189 0.123,0.356 0.121,0.692 -0.003,1.012 -0.119,0.323 -0.408,0.664 -0.866,1.025 -0.309,0.247 -1.044,0.742 -2.196,1.49 -1.485,0.96 -2.453,1.849 -2.904,2.66 -0.637,1.141 -0.752,2.305 -0.343,3.492 0.262,0.764 0.724,1.402 1.387,1.92 0.661,0.514 1.461,0.805 2.394,0.874 0.936,0.065 1.977,-0.099 3.129,-0.496 1.885,-0.648 3.157,-1.547 3.827,-2.699 0.664,-1.155 0.784,-2.427 0.359,-3.822 l -3.073,0.909 c 0.137,0.816 0.049,1.468 -0.262,1.949 -0.309,0.486 -0.89,0.873 -1.742,1.167 -0.88,0.302 -1.632,0.363 -2.253,0.17 -0.401,-0.12 -0.668,-0.375 -0.801,-0.762 -0.124,-0.356 -0.078,-0.712 0.136,-1.067 0.27,-0.452 1.084,-1.107 2.438,-1.96 1.352,-0.856 2.319,-1.591 2.896,-2.204 0.576,-0.616 0.953,-1.312 1.133,-2.096 0.175,-0.783 0.1,-1.648 -0.226,-2.594 -0.295,-0.858 -0.81,-1.583 -1.546,-2.165 -0.737,-0.586 -1.603,-0.913 -2.601,-0.976 -0.999,-0.065 -2.15,0.128 -3.453,0.577 -1.895,0.652 -3.201,1.59 -3.915,2.815 -0.714,1.227 -0.881,2.714 -0.499,4.457"
         style="fill:#231f20;fill-opacity:1;fill-rule:evenodd;stroke:none"
         id="path24"
         inkscape:connector-curvature="0" /></g></g></svg>