<?xml version="1.0" standalone="no"?>
<!DOCTYPE svg PUBLIC "-//W3C//DTD SVG 20010904//EN"
 "http://www.w3.org/TR/2001/REC-SVG-20010904/DTD/svg10.dtd">
<svg version="1.0" xmlns="http://www.w3.org/2000/svg"
 width="512.000000pt" height="512.000000pt" viewBox="0 0 512.000000 512.000000"
 preserveAspectRatio="xMidYMid meet">
<metadata>
Created by potrace 1.11, written by Peter Selinger 2001-2013
</metadata>
<g transform="translate(0.000000,512.000000) scale(0.100000,-0.100000)"
fill="#000000" stroke="none">
<path d="M1650 4860 c-52 -12 -90 -60 -90 -113 0 -23 7 -53 16 -65 9 -13 14
-24 13 -26 -2 -1 -44 -19 -94 -40 -393 -166 -735 -448 -965 -796 -134 -203
-248 -477 -304 -730 -45 -206 -58 -349 -54 -626 2 -187 0 -255 -9 -266 -20
-24 -43 -98 -43 -139 0 -66 21 -139 81 -290 71 -176 81 -248 55 -397 -44 -254
14 -642 130 -862 76 -145 188 -249 349 -325 265 -126 479 -111 1012 67 l122
41 133 -26 c241 -47 285 -51 548 -52 248 0 321 6 510 40 489 89 927 313 1255
640 346 344 551 773 620 1295 21 157 21 498 0 661 -91 702 -446 1260 -1031
1617 -455 279 -1059 407 -1627 347 -131 -14 -140 -14 -186 5 -113 44 -336 64
-441 40z m1275 -205 c525 -80 970 -296 1301 -631 245 -248 421 -565 508 -913
137 -545 74 -1150 -166 -1611 -321 -617 -926 -1016 -1688 -1116 -162 -21 -576
-15 -720 10 -52 9 -96 19 -98 21 -2 2 5 17 17 34 12 16 28 49 36 72 18 50 19
163 2 203 -11 24 -10 39 1 80 17 63 10 161 -16 219 -16 38 -17 47 -5 87 12 40
16 117 10 203 -2 27 4 31 176 112 301 141 367 187 419 293 28 57 33 77 33 142
0 128 -62 222 -181 277 -195 89 -402 36 -1029 -265 -304 -145 -480 -211 -531
-198 -31 8 -39 26 -86 180 -22 72 -56 162 -76 201 -51 97 -138 187 -220 227
-62 31 -74 33 -177 35 l-110 1 0 239 c1 178 5 265 19 348 73 454 246 811 540
1114 166 170 324 287 536 395 162 84 410 176 471 176 67 0 248 -86 368 -175
61 -46 81 -55 115 -55 58 0 102 30 117 78 17 57 0 98 -71 168 -56 55 -58 59
-37 66 36 12 434 0 542 -17z m-2390 -2504 c51 -23 124 -97 157 -159 24 -43 37
-81 98 -277 29 -94 61 -139 123 -170 118 -58 245 -20 772 232 387 186 550 243
689 243 84 0 139 -22 179 -69 23 -27 27 -42 27 -91 0 -51 -4 -64 -33 -102 -27
-36 -58 -56 -202 -129 -170 -85 -312 -146 -500 -215 -55 -20 -103 -39 -107
-43 -4 -4 18 -7 50 -6 81 0 131 -28 156 -88 17 -41 18 -52 7 -101 -7 -30 -23
-71 -37 -91 l-25 -37 35 -38 c56 -62 61 -173 11 -220 -31 -30 -32 -53 -1 -73
62 -41 53 -144 -19 -213 -52 -51 -137 -87 -361 -154 -310 -93 -469 -111 -626
-71 -242 62 -398 219 -472 474 -64 219 -78 420 -46 649 21 150 7 236 -70 426
-73 181 -84 242 -49 286 12 15 36 34 53 42 45 19 143 17 191 -5z"/>
<path d="M3485 4373 c-171 -104 -373 -155 -588 -150 l-88 2 -35 -37 c-28 -31
-34 -45 -34 -83 0 -100 90 -140 320 -140 189 0 327 40 477 138 170 110 212
202 126 277 -49 43 -99 41 -178 -7z"/>
<path d="M1746 4224 c-76 -24 -166 -119 -194 -204 -30 -90 -36 -154 -22 -230
33 -189 153 -305 315 -304 84 0 144 24 207 83 117 107 150 320 75 484 -67 146
-230 219 -381 171z"/>
<path d="M3165 3871 c-164 -41 -266 -208 -252 -415 25 -365 455 -462 605 -137
38 81 43 232 13 323 -57 170 -212 266 -366 229z"/>
<path d="M2110 2959 c-148 -14 -316 -72 -438 -151 -67 -43 -83 -72 -63 -114
21 -46 49 -50 179 -24 172 35 387 33 566 -4 227 -47 422 -133 587 -258 94 -72
125 -82 167 -52 37 26 30 75 -24 155 -205 309 -585 484 -974 448z"/>
</g>
</svg>
